<svg xmlns="http://www.w3.org/2000/svg" xmlns:xlink="http://www.w3.org/1999/xlink" version="1.1" width="2430" height="2100" style="width: 2430px; height: 2100px; background: #ffffff" viewBox="0 0 2430 2100"><style id="v-3" type="text/css">        .joint-element .scalable * {            vector-effect: non-scaling-stroke;        }    </style><defs joint-selector="defs"><marker id="v-21252848929" orient="auto" overflow="visible" markerUnits="userSpaceOnUse"><path id="v-105" stroke="#444444" fill="#444444" transform="rotate(180)" d="M 20 -10 0 0 20 10 Z"></path></marker></defs><g joint-selector="layers"  transform="matrix(1,0,0,1,0,0)"><g  style="pointer-events: none;"></g><g ></g><g  style="user-select: none;"><!--z-index:1--><!--z-index:2--><!--z-index:3--><!--z-index:4--><!--z-index:5--><!--z-index:6--><!--z-index:7--><!--z-index:8--><!--z-index:9--><!--z-index:10--><!--z-index:11--><!--z-index:12--><!--z-index:13--><!--z-index:14--><!--z-index:15--><!--z-index:16--><!--z-index:17--><g   id="j_19"  transform="translate(20,2056)"><g id="v-186"><text  id="v-187" font-size="24px" xml:space="preserve" y="0.8em" font-weight="normal" text-anchor="start" fill="#444444" pointer-events="none" display="block" font-family="Tahoma, Verdana, Helvetica, Arial"><tspan dy="0" >Friday, June 5, 2026 at 3:49 PM Central European Summer Time</tspan></text></g></g><!--z-index:18--><g   id="j_18"  transform="translate(20,2010)"><g id="v-184"><text  id="v-185" font-size="36px" xml:space="preserve" y="0.8em" font-weight="normal" text-anchor="start" fill="#444444" pointer-events="none" display="block" font-family="Tahoma, Verdana, Helvetica, Arial"><tspan dy="0" >C1 System Context Diagram - Apache Log4j2</tspan></text></g></g><!--z-index:19--><g   id="j_20"  transform="translate(199,684)" style=""><g  id="v-194" style="opacity: 1;"><rect  id="v-195" rx="20" ry="20" stroke-width="2" pointer-events="visiblePainted" fill="#999999" stroke="#8a8a8a" stroke-dasharray="" width="450" height="300" style="fill: rgb(153, 153, 153); stroke: rgb(138, 138, 138);"></rect><text  id="v-196" font-size="33.599999999999994px" xml:space="preserve" y="101.30000000000001" font-weight="bold" text-anchor="middle" pointer-events="visible" font-family="Tahoma, Verdana, Helvetica, Arial" fill="#ffffff" dominant-baseline="hanging" transform="matrix(1,0,0,1,225,0)" style="fill: rgb(255, 255, 255);"><tspan dy="0" >Applications / Libraries</tspan></text><text  id="v-197" font-size="16.799999999999997px" xml:space="preserve" y="142.9" text-anchor="middle" font-family="Tahoma, Verdana, Helvetica, Arial" fill="#ffffff" dominant-baseline="hanging" transform="matrix(1,0,0,1,225,0)" style="display: block; fill: rgb(255, 255, 255);"><tspan dy="0" >[Software System]</tspan></text><text  id="v-198" font-size="24px" xml:space="preserve" y="174.7" text-anchor="middle" font-family="Tahoma, Verdana, Helvetica, Arial" fill="#ffffff" dominant-baseline="hanging" transform="matrix(1,0,0,1,225,0)" style="display: block; fill: rgb(255, 255, 255);"><tspan dy="0" >Java applications that emit log calls</tspan></text><g  id="v-199" color="#ffffff" transform="matrix(1,0,0,1,222.5,268)" display="none" style="fill: rgb(255, 255, 255);"><g ></g><g ></g><g ></g><g ></g></g><image  id="v-200"></image></g></g><!--z-index:20--><g   id="j_21"  transform="translate(199,1034)" style=""><g  id="v-204" style="opacity: 1;"><rect  id="v-205" rx="20" ry="20" stroke-width="2" pointer-events="visiblePainted" fill="#999999" stroke="#8a8a8a" stroke-dasharray="" width="450" height="300" style="fill: rgb(153, 153, 153); stroke: rgb(138, 138, 138);"></rect><text  id="v-206" font-size="33.599999999999994px" xml:space="preserve" y="101.30000000000001" font-weight="bold" text-anchor="middle" pointer-events="visible" font-family="Tahoma, Verdana, Helvetica, Arial" fill="#ffffff" dominant-baseline="hanging" transform="matrix(1,0,0,1,225,0)" style="fill: rgb(255, 255, 255);"><tspan dy="0" >SLF4J 2 API</tspan></text><text  id="v-207" font-size="16.799999999999997px" xml:space="preserve" y="142.9" text-anchor="middle" font-family="Tahoma, Verdana, Helvetica, Arial" fill="#ffffff" dominant-baseline="hanging" transform="matrix(1,0,0,1,225,0)" style="display: block; fill: rgb(255, 255, 255);"><tspan dy="0" >[Software System]</tspan></text><text  id="v-208" font-size="24px" xml:space="preserve" y="174.7" text-anchor="middle" font-family="Tahoma, Verdana, Helvetica, Arial" fill="#ffffff" dominant-baseline="hanging" transform="matrix(1,0,0,1,225,0)" style="display: block; fill: rgb(255, 255, 255);"><tspan dy="0" >Logging facade bridged to Log4j2</tspan></text><g  id="v-209" color="#ffffff" transform="matrix(1,0,0,1,222.5,268)" display="none" style="fill: rgb(255, 255, 255);"><g ></g><g ></g><g ></g><g ></g></g><image  id="v-210"></image></g></g><!--z-index:21--><g   id="j_22"  transform="translate(1779,159)" style=""><g  id="v-211" style="opacity: 1;"><rect  id="v-212" rx="20" ry="20" stroke-width="2" pointer-events="visiblePainted" fill="#999999" stroke="#8a8a8a" stroke-dasharray="" width="450" height="300" style="fill: rgb(153, 153, 153); stroke: rgb(138, 138, 138);"></rect><text  id="v-213" font-size="33.599999999999994px" xml:space="preserve" y="101.30000000000001" font-weight="bold" text-anchor="middle" pointer-events="visible" font-family="Tahoma, Verdana, Helvetica, Arial" fill="#ffffff" dominant-baseline="hanging" transform="matrix(1,0,0,1,225,0)" style="fill: rgb(255, 255, 255);"><tspan dy="0" >File System</tspan></text><text  id="v-214" font-size="16.799999999999997px" xml:space="preserve" y="142.9" text-anchor="middle" font-family="Tahoma, Verdana, Helvetica, Arial" fill="#ffffff" dominant-baseline="hanging" transform="matrix(1,0,0,1,225,0)" style="display: block; fill: rgb(255, 255, 255);"><tspan dy="0" >[Software System]</tspan></text><text  id="v-215" font-size="24px" xml:space="preserve" y="174.7" text-anchor="middle" font-family="Tahoma, Verdana, Helvetica, Arial" fill="#ffffff" dominant-baseline="hanging" transform="matrix(1,0,0,1,225,0)" style="display: block; fill: rgb(255, 255, 255);"><tspan dy="0" >Log file destination</tspan></text><g  id="v-216" color="#ffffff" transform="matrix(1,0,0,1,222.5,268)" display="none" style="fill: rgb(255, 255, 255);"><g ></g><g ></g><g ></g><g ></g></g><image  id="v-217"></image></g></g><!--z-index:22--><g   id="j_23"  transform="translate(1779,509)" style=""><g  id="v-221" style="opacity: 1;"><rect  id="v-222" rx="20" ry="20" stroke-width="2" pointer-events="visiblePainted" fill="#999999" stroke="#8a8a8a" stroke-dasharray="" width="450" height="300" style="fill: rgb(153, 153, 153); stroke: rgb(138, 138, 138);"></rect><text  id="v-223" font-size="33.599999999999994px" xml:space="preserve" y="101.30000000000001" font-weight="bold" text-anchor="middle" pointer-events="visible" font-family="Tahoma, Verdana, Helvetica, Arial" fill="#ffffff" dominant-baseline="hanging" transform="matrix(1,0,0,1,225,0)" style="fill: rgb(255, 255, 255);"><tspan dy="0" >Console</tspan></text><text  id="v-224" font-size="16.799999999999997px" xml:space="preserve" y="142.9" text-anchor="middle" font-family="Tahoma, Verdana, Helvetica, Arial" fill="#ffffff" dominant-baseline="hanging" transform="matrix(1,0,0,1,225,0)" style="display: block; fill: rgb(255, 255, 255);"><tspan dy="0" >[Software System]</tspan></text><text  id="v-225" font-size="24px" xml:space="preserve" y="174.7" text-anchor="middle" font-family="Tahoma, Verdana, Helvetica, Arial" fill="#ffffff" dominant-baseline="hanging" transform="matrix(1,0,0,1,225,0)" style="display: block; fill: rgb(255, 255, 255);"><tspan dy="0" >Standard output / error</tspan></text><g  id="v-226" color="#ffffff" transform="matrix(1,0,0,1,222.5,268)" display="none" style="fill: rgb(255, 255, 255);"><g ></g><g ></g><g ></g><g ></g></g><image  id="v-227"></image></g></g><!--z-index:23--><g   id="j_24"  transform="translate(1779,859)" style=""><g  id="v-231" style="opacity: 1;"><rect  id="v-232" rx="20" ry="20" stroke-width="2" pointer-events="visiblePainted" fill="#999999" stroke="#8a8a8a" stroke-dasharray="" width="450" height="300" style="fill: rgb(153, 153, 153); stroke: rgb(138, 138, 138);"></rect><text  id="v-233" font-size="33.599999999999994px" xml:space="preserve" y="101.30000000000001" font-weight="bold" text-anchor="middle" pointer-events="visible" font-family="Tahoma, Verdana, Helvetica, Arial" fill="#ffffff" dominant-baseline="hanging" transform="matrix(1,0,0,1,225,0)" style="fill: rgb(255, 255, 255);"><tspan dy="0" >Network Endpoints</tspan></text><text  id="v-234" font-size="16.799999999999997px" xml:space="preserve" y="142.9" text-anchor="middle" font-family="Tahoma, Verdana, Helvetica, Arial" fill="#ffffff" dominant-baseline="hanging" transform="matrix(1,0,0,1,225,0)" style="display: block; fill: rgb(255, 255, 255);"><tspan dy="0" >[Software System]</tspan></text><text  id="v-235" font-size="24px" xml:space="preserve" y="174.7" text-anchor="middle" font-family="Tahoma, Verdana, Helvetica, Arial" fill="#ffffff" dominant-baseline="hanging" transform="matrix(1,0,0,1,225,0)" style="display: block; fill: rgb(255, 255, 255);"><tspan dy="0" >Syslog / HTTP / SMTP</tspan></text><g  id="v-236" color="#ffffff" transform="matrix(1,0,0,1,222.5,268)" display="none" style="fill: rgb(255, 255, 255);"><g ></g><g ></g><g ></g><g ></g></g><image  id="v-237"></image></g></g><!--z-index:24--><g   id="j_25"  transform="translate(1779,1209)" style=""><g  id="v-241" style="opacity: 1;"><path  d="M 0,30 a 225,30 0,0,0 450 0 a 225,30 0,0,0 -450 0 l 0,240 a 225,30 0,0,0 450 0 l 0,-240" id="v-242" stroke-width="2" pointer-events="visiblePainted" fill="#999999" stroke="#8a8a8a" stroke-dasharray="" style="fill: rgb(153, 153, 153); stroke: rgb(138, 138, 138);"></path><rect  id="v-243" stroke-width="0" pointer-events="visiblePainted" fill="none" stroke="none" width="450" height="270" x="0" y="30"></rect><text  id="v-244" font-size="33.599999999999994px" xml:space="preserve" y="116.30000000000001" font-weight="bold" text-anchor="middle" pointer-events="visible" font-family="Tahoma, Verdana, Helvetica, Arial" fill="#ffffff" dominant-baseline="hanging" transform="matrix(1,0,0,1,225,0)" style="fill: rgb(255, 255, 255);"><tspan dy="0" >JDBC Databases</tspan></text><text  id="v-245" font-size="16.799999999999997px" xml:space="preserve" y="157.9" text-anchor="middle" font-family="Tahoma, Verdana, Helvetica, Arial" fill="#ffffff" dominant-baseline="hanging" transform="matrix(1,0,0,1,225,0)" style="display: block; fill: rgb(255, 255, 255);"><tspan dy="0" >[Software System]</tspan></text><text  id="v-246" font-size="24px" xml:space="preserve" y="189.7" text-anchor="middle" font-family="Tahoma, Verdana, Helvetica, Arial" fill="#ffffff" dominant-baseline="hanging" transform="matrix(1,0,0,1,225,0)" style="display: block; fill: rgb(255, 255, 255);"><tspan dy="0" >Relational database destinations</tspan></text><g  id="v-247" font-weight="normal" text-anchor="middle" color="#ffffff" transform="matrix(1,0,0,1,222.5,268)" display="none" style="fill: rgb(255, 255, 255);"><g ></g><g ></g><g ></g><g ></g></g><image  id="v-248"></image></g></g><!--z-index:25--><g   id="j_26"  transform="translate(1779,1559)" style=""><g  id="v-255" style="opacity: 1;"><rect  id="v-256" rx="20" ry="20" stroke-width="2" pointer-events="visiblePainted" fill="#999999" stroke="#8a8a8a" stroke-dasharray="" width="450" height="300" style="fill: rgb(153, 153, 153); stroke: rgb(138, 138, 138);"></rect><text  id="v-257" font-size="33.599999999999994px" xml:space="preserve" y="81.14000000000001" font-weight="bold" text-anchor="middle" pointer-events="visible" font-family="Tahoma, Verdana, Helvetica, Arial" fill="#ffffff" dominant-baseline="hanging" transform="matrix(1,0,0,1,225,0)" style="fill: rgb(255, 255, 255);"><tspan dy="0" >Log Aggregation /</tspan><tspan dy="1.2em" x="0" >Monitoring</tspan></text><text  id="v-258" font-size="16.799999999999997px" xml:space="preserve" y="163.06" text-anchor="middle" font-family="Tahoma, Verdana, Helvetica, Arial" fill="#ffffff" dominant-baseline="hanging" transform="matrix(1,0,0,1,225,0)" style="display: block; fill: rgb(255, 255, 255);"><tspan dy="0" >[Software System]</tspan></text><text  id="v-259" font-size="24px" xml:space="preserve" y="194.86" text-anchor="middle" font-family="Tahoma, Verdana, Helvetica, Arial" fill="#ffffff" dominant-baseline="hanging" transform="matrix(1,0,0,1,225,0)" style="display: block; fill: rgb(255, 255, 255);"><tspan dy="0" >Downstream observability stacks</tspan></text><g  id="v-260" color="#ffffff" transform="matrix(1,0,0,1,222.5,268)" display="none" style="fill: rgb(255, 255, 255);"><g ></g><g ></g><g ></g><g ></g></g><image  id="v-261"></image></g></g><!--z-index:26--><g   id="j_27"  transform="translate(989,859)" style=""><g  id="v-265" style="opacity: 1;"><rect  id="v-266" rx="20" ry="20" stroke-width="2" pointer-events="visiblePainted" fill="#1168bd" stroke="#0f5eaa" stroke-dasharray="" width="450" height="300" style="fill: rgb(17, 104, 189); stroke: rgb(15, 94, 170);"></rect><text  id="v-267" font-size="33.599999999999994px" xml:space="preserve" y="86.9" font-weight="bold" text-anchor="middle" pointer-events="visible" font-family="Tahoma, Verdana, Helvetica, Arial" fill="#ffffff" dominant-baseline="hanging" transform="matrix(1,0,0,1,225,0)" style="fill: rgb(255, 255, 255);"><tspan dy="0" >Apache Log4j2</tspan></text><text  id="v-268" font-size="16.799999999999997px" xml:space="preserve" y="128.5" text-anchor="middle" font-family="Tahoma, Verdana, Helvetica, Arial" fill="#ffffff" dominant-baseline="hanging" transform="matrix(1,0,0,1,225,0)" style="display: block; fill: rgb(255, 255, 255);"><tspan dy="0" >[Software System]</tspan></text><text  id="v-269" font-size="24px" xml:space="preserve" y="160.3" text-anchor="middle" font-family="Tahoma, Verdana, Helvetica, Arial" fill="#ffffff" dominant-baseline="hanging" transform="matrix(1,0,0,1,225,0)" style="display: block; fill: rgb(255, 255, 255);"><tspan dy="0" >Java logging framework in scope of</tspan><tspan dy="1.2em" x="0" >this analysis</tspan></text><g  id="v-270" color="#ffffff" transform="matrix(1,0,0,1,210,268)" display="none" style="fill: rgb(255, 255, 255);"><g  transform="translate(5 0)"><svg xmlns="http://www.w3.org/2000/svg" width="20" height="20" fill="currentColor" viewBox="0 0 16 16"><path fill-rule="evenodd" d="M6.5 12a5.5 5.5 0 1 0 0-11 5.5 5.5 0 0 0 0 11zM13 6.5a6.5 6.5 0 1 1-13 0 6.5 6.5 0 0 1 13 0z"></path><path d="M10.344 11.742c.03.04.062.078.098.115l3.85 3.85a1 1 0 0 0 1.415-1.414l-3.85-3.85a1.007 1.007 0 0 0-.115-.1 6.538 6.538 0 0 1-1.398 1.4z"></path><path fill-rule="evenodd" d="M6.5 3a.5.5 0 0 1 .5.5V6h2.5a.5.5 0 0 1 0 1H7v2.5a.5.5 0 0 1-1 0V7H3.5a.5.5 0 0 1 0-1H6V3.5a.5.5 0 0 1 .5-.5z"></path></svg></g><g ></g><g ></g><g ></g></g><image  id="v-271"></image></g></g><!--z-index:27--><g   id="j_28"  style="opacity: 1;"><path fill="none" cursor="pointer" stroke="transparent" stroke-linecap="round" joint-selector="wrapper" id="v-283" stroke-width="10" stroke-linejoin="round" d="M 649 834 L 809 834 C 815.6666666666666 834 822 835.3333333333333 828 838 L 989 909.32"></path><path fill="none" pointer-events="none" joint-selector="line" id="v-282" stroke="#444444" stroke-width="2" stroke-linejoin="round" stroke-dasharray="8 8" d="M 649 834 L 809 834 C 815.6666666666666 834 822 835.3333333333333 828 838 L 989 909.32" marker-end="url(#v-21252848929)"></path><g id="v-275" ><g id="v-276"  label-idx="0" cursor="move" transform="matrix(1,0,0,1,818.787109375,835.0078125)" style="cursor: default;"><rect joint-selector="rect" id="v-279" fill="#ffffff" rx="3" ry="3" x="-80.09439849853516" y="-30.53333282470703" width="160.1887969970703" height="57.9666633605957" pointer-events="none"  style="display: block;"></rect><text joint-selector="text" id="v-278" font-size="24px" xml:space="preserve" fill="#444444" text-anchor="middle" pointer-events="none" font-family="Tahoma, Verdana, Helvetica, Arial" font-weight="normal"  style="display: block;"><tspan dy="-0.3em" >logs via Logger</tspan><tspan dy="1.2em" x="0" >API</tspan></text></g><g id="v-277"  label-idx="1" cursor="move" transform="matrix(1,0,0,1,808.787109375,861.4078369140625)" style="cursor: default;"><rect joint-selector="rect" id="v-281" fill="#ffffff" rx="3" ry="3" x="0" y="0" width="0" height="0"  display="none"></rect><text joint-selector="text" id="v-280" fill="#000000" font-size="14" text-anchor="middle" text-vertical-anchor="middle" pointer-events="none"></text></g></g></g><!--z-index:28--><g   id="j_29"  style="opacity: 1;"><path fill="none" cursor="pointer" stroke="transparent" stroke-linecap="round" joint-selector="wrapper" id="v-295" stroke-width="10" stroke-linejoin="round" d="M 649 1184 L 809 1184 C 815.6666666666666 1184 822 1182.6666666666665 828 1180 L 989 1108.68"></path><path fill="none" pointer-events="none" joint-selector="line" id="v-294" stroke="#444444" stroke-width="2" stroke-linejoin="round" stroke-dasharray="8 8" d="M 649 1184 L 809 1184 C 815.6666666666666 1184 822 1182.6666666666665 828 1180 L 989 1108.68" marker-end="url(#v-21252848929)"></path><g id="v-287" ><g id="v-288"  label-idx="0" cursor="move" transform="matrix(1,0,0,1,818.787109375,1182.9921875)" style="cursor: default;"><rect joint-selector="rect" id="v-291" fill="#ffffff" rx="3" ry="3" x="-85.06184387207031" y="-30.53333282470703" width="170.12368774414062" height="57.9666633605957" pointer-events="none"  style="display: block;"></rect><text joint-selector="text" id="v-290" font-size="24px" xml:space="preserve" fill="#444444" text-anchor="middle" pointer-events="none" font-family="Tahoma, Verdana, Helvetica, Arial" font-weight="normal"  style="display: block;"><tspan dy="-0.3em" >bridged by</tspan><tspan dy="1.2em" x="0" >log4j-slf4j2-impl</tspan></text></g><g id="v-289"  label-idx="1" cursor="move" transform="matrix(1,0,0,1,808.787109375,1209.3922119140625)" style="cursor: default;"><rect joint-selector="rect" id="v-293" fill="#ffffff" rx="3" ry="3" x="0" y="0" width="0" height="0"  display="none"></rect><text joint-selector="text" id="v-292" fill="#000000" font-size="14" text-anchor="middle" text-vertical-anchor="middle" pointer-events="none"></text></g></g></g><!--z-index:29--><g   id="j_30"  style="opacity: 1;"><path fill="none" cursor="pointer" stroke="transparent" stroke-linecap="round" joint-selector="wrapper" id="v-307" stroke-width="10" stroke-linejoin="round" d="M 1298.64 859 L 1604 318 C 1607.333333333333 312 1612.333333333333 309 1619 309 L 1779 309"></path><path fill="none" pointer-events="none" joint-selector="line" id="v-306" stroke="#444444" stroke-width="2" stroke-linejoin="round" stroke-dasharray="8 8" d="M 1298.64 859 L 1604 318 C 1607.333333333333 312 1612.333333333333 309 1619 309 L 1779 309" marker-end="url(#v-21252848929)"></path><g id="v-299" ><g id="v-300"  label-idx="0" cursor="move" transform="matrix(1,0,0,1,1609.8436279296875,311.5028076171875)" style="cursor: default;"><rect joint-selector="rect" id="v-303" fill="#ffffff" rx="3" ry="3" x="-89.57356262207031" y="-16.133331298828125" width="179.14712524414062" height="29.166664123535156" pointer-events="none"  style="display: block;"></rect><text joint-selector="text" id="v-302" font-size="24px" xml:space="preserve" fill="#444444" text-anchor="middle" pointer-events="none" font-family="Tahoma, Verdana, Helvetica, Arial" font-weight="normal"  style="display: block;"><tspan dy="0.3em" >writes log events</tspan></text></g><g id="v-301"  label-idx="1" cursor="move" transform="matrix(1,0,0,1,1599.8436279296875,323.5028076171875)" style="cursor: default;"><rect joint-selector="rect" id="v-305" fill="#ffffff" rx="3" ry="3" x="0" y="0" width="0" height="0"  display="none"></rect><text joint-selector="text" id="v-304" fill="#000000" font-size="14" text-anchor="middle" text-vertical-anchor="middle" pointer-events="none"></text></g></g></g><!--z-index:30--><g   id="j_31"  style="opacity: 1;"><path fill="none" cursor="pointer" stroke="transparent" stroke-linecap="round" joint-selector="wrapper" id="v-319" stroke-width="10" stroke-linejoin="round" d="M 1383.29 859 L 1602 666 C 1606.6666666666665 661.3333333333333 1612.333333333333 659 1619 659 L 1779 659"></path><path fill="none" pointer-events="none" joint-selector="line" id="v-318" stroke="#444444" stroke-width="2" stroke-linejoin="round" stroke-dasharray="8 8" d="M 1383.29 859 L 1602 666 C 1606.6666666666665 661.3333333333333 1612.333333333333 659 1619 659 L 1779 659" marker-end="url(#v-21252848929)"></path><g id="v-311" ><g id="v-312"  label-idx="0" cursor="move" transform="matrix(1,0,0,1,1609.584228515625,660.8190307617188)" style="cursor: default;"><rect joint-selector="rect" id="v-315" fill="#ffffff" rx="3" ry="3" x="-89.57356262207031" y="-16.133331298828125" width="179.14712524414062" height="29.166664123535156" pointer-events="none"  style="display: block;"></rect><text joint-selector="text" id="v-314" font-size="24px" xml:space="preserve" fill="#444444" text-anchor="middle" pointer-events="none" font-family="Tahoma, Verdana, Helvetica, Arial" font-weight="normal"  style="display: block;"><tspan dy="0.3em" >writes log events</tspan></text></g><g id="v-313"  label-idx="1" cursor="move" transform="matrix(1,0,0,1,1599.584228515625,672.8190307617188)" style="cursor: default;"><rect joint-selector="rect" id="v-317" fill="#ffffff" rx="3" ry="3" x="0" y="0" width="0" height="0"  display="none"></rect><text joint-selector="text" id="v-316" fill="#000000" font-size="14" text-anchor="middle" text-vertical-anchor="middle" pointer-events="none"></text></g></g></g><!--z-index:31--><g   id="j_32"  style="opacity: 1;"><path fill="none" cursor="pointer" stroke="transparent" stroke-linecap="round" joint-selector="wrapper" id="v-331" stroke-width="10" stroke-linejoin="round" d="M 1439 1009 L 1779 1009"></path><path fill="none" pointer-events="none" joint-selector="line" id="v-330" stroke="#444444" stroke-width="2" stroke-linejoin="round" stroke-dasharray="8 8" d="M 1439 1009 L 1779 1009" marker-end="url(#v-21252848929)"></path><g id="v-323" ><g id="v-324"  label-idx="0" cursor="move" transform="matrix(1,0,0,1,1609,1009)" style="cursor: default;"><rect joint-selector="rect" id="v-327" fill="#ffffff" rx="3" ry="3" x="-89.57356262207031" y="-16.133331298828125" width="179.14712524414062" height="29.166664123535156" pointer-events="none"  style="display: block;"></rect><text joint-selector="text" id="v-326" font-size="24px" xml:space="preserve" fill="#444444" text-anchor="middle" pointer-events="none" font-family="Tahoma, Verdana, Helvetica, Arial" font-weight="normal"  style="display: block;"><tspan dy="0.3em" >writes log events</tspan></text></g><g id="v-325"  label-idx="1" cursor="move" transform="matrix(1,0,0,1,1599,1021)" style="cursor: default;"><rect joint-selector="rect" id="v-329" fill="#ffffff" rx="3" ry="3" x="0" y="0" width="0" height="0"  display="none"></rect><text joint-selector="text" id="v-328" fill="#000000" font-size="14" text-anchor="middle" text-vertical-anchor="middle" pointer-events="none"></text></g></g></g><!--z-index:32--><g   id="j_33"  style="opacity: 1;"><path fill="none" cursor="pointer" stroke="transparent" stroke-linecap="round" joint-selector="wrapper" id="v-343" stroke-width="10" stroke-linejoin="round" d="M 1383.29 1159 L 1602 1352 C 1606.6666666666665 1356.6666666666665 1612.333333333333 1359 1619 1359 L 1779 1359"></path><path fill="none" pointer-events="none" joint-selector="line" id="v-342" stroke="#444444" stroke-width="2" stroke-linejoin="round" stroke-dasharray="8 8" d="M 1383.29 1159 L 1602 1352 C 1606.6666666666665 1356.6666666666665 1612.333333333333 1359 1619 1359 L 1779 1359" marker-end="url(#v-21252848929)"></path><g id="v-335" ><g id="v-336"  label-idx="0" cursor="move" transform="matrix(1,0,0,1,1609.584228515625,1357.1810302734375)" style="cursor: default;"><rect joint-selector="rect" id="v-339" fill="#ffffff" rx="3" ry="3" x="-89.57356262207031" y="-16.133331298828125" width="179.14712524414062" height="29.166664123535156" pointer-events="none"  style="display: block;"></rect><text joint-selector="text" id="v-338" font-size="24px" xml:space="preserve" fill="#444444" text-anchor="middle" pointer-events="none" font-family="Tahoma, Verdana, Helvetica, Arial" font-weight="normal"  style="display: block;"><tspan dy="0.3em" >writes log events</tspan></text></g><g id="v-337"  label-idx="1" cursor="move" transform="matrix(1,0,0,1,1599.584228515625,1369.1810302734375)" style="cursor: default;"><rect joint-selector="rect" id="v-341" fill="#ffffff" rx="3" ry="3" x="0" y="0" width="0" height="0"  display="none"></rect><text joint-selector="text" id="v-340" fill="#000000" font-size="14" text-anchor="middle" text-vertical-anchor="middle" pointer-events="none"></text></g></g></g><!--z-index:33--><g   id="j_34"  style="opacity: 1;"><path fill="none" cursor="pointer" stroke="transparent" stroke-linecap="round" joint-selector="wrapper" id="v-355" stroke-width="10" stroke-linejoin="round" d="M 1298.64 1159 L 1604 1700 C 1607.333333333333 1706 1612.333333333333 1709 1619 1709 L 1779 1709"></path><path fill="none" pointer-events="none" joint-selector="line" id="v-354" stroke="#444444" stroke-width="2" stroke-linejoin="round" stroke-dasharray="8 8" d="M 1298.64 1159 L 1604 1700 C 1607.333333333333 1706 1612.333333333333 1709 1619 1709 L 1779 1709" marker-end="url(#v-21252848929)"></path><g id="v-347" ><g id="v-348"  label-idx="0" cursor="move" transform="matrix(1,0,0,1,1609.8436279296875,1706.4971923828125)" style="cursor: default;"><rect joint-selector="rect" id="v-351" fill="#ffffff" rx="3" ry="3" x="-70.82030487060547" y="-16.133331298828125" width="141.64060974121094" height="29.166664123535156" pointer-events="none"  style="display: block;"></rect><text joint-selector="text" id="v-350" font-size="24px" xml:space="preserve" fill="#444444" text-anchor="middle" pointer-events="none" font-family="Tahoma, Verdana, Helvetica, Arial" font-weight="normal"  style="display: block;"><tspan dy="0.3em" >forwards logs</tspan></text></g><g id="v-349"  label-idx="1" cursor="move" transform="matrix(1,0,0,1,1599.8436279296875,1718.4971923828125)" style="cursor: default;"><rect joint-selector="rect" id="v-353" fill="#ffffff" rx="3" ry="3" x="0" y="0" width="0" height="0"  display="none"></rect><text joint-selector="text" id="v-352" fill="#000000" font-size="14" text-anchor="middle" text-vertical-anchor="middle" pointer-events="none"></text></g></g></g><!--z-index:34--></g><g  style="user-select: none;"></g><g ></g><g  display="none"></g></g></svg>