<svg xmlns="http://www.w3.org/2000/svg" xmlns:xlink="http://www.w3.org/1999/xlink" version="1.1" width="3320" height="3642" style="width: 3320px; height: 3642px; background: #ffffff" viewBox="0 0 3320 3642"><style id="v-3" type="text/css">        .joint-element .scalable * {            vector-effect: non-scaling-stroke;        }    </style><defs joint-selector="defs"><marker id="v-21252848929" orient="auto" overflow="visible" markerUnits="userSpaceOnUse"><path id="v-105" stroke="#444444" fill="#444444" transform="rotate(180)" d="M 20 -10 0 0 20 10 Z"></path></marker></defs><g joint-selector="layers"  transform="matrix(1,0,0,1,0,0)"><g  style="pointer-events: none;"></g><g ></g><g  style="user-select: none;"><!--z-index:1--><!--z-index:2--><!--z-index:3--><!--z-index:4--><!--z-index:5--><!--z-index:6--><!--z-index:7--><!--z-index:8--><!--z-index:9--><!--z-index:10--><!--z-index:11--><!--z-index:12--><!--z-index:13--><!--z-index:14--><!--z-index:15--><!--z-index:16--><!--z-index:17--><!--z-index:18--><!--z-index:19--><!--z-index:20--><!--z-index:21--><!--z-index:22--><!--z-index:23--><!--z-index:24--><!--z-index:25--><!--z-index:26--><g   id="j_36"  transform="translate(20,3598)"><g id="v-364"><text  id="v-365" font-size="24px" xml:space="preserve" y="0.8em" font-weight="normal" text-anchor="start" fill="#444444" pointer-events="none" display="block" font-family="Tahoma, Verdana, Helvetica, Arial"><tspan dy="0" >Friday, June 5, 2026 at 3:49 PM Central European Summer Time</tspan></text></g></g><!--z-index:27--><g   id="j_35"  transform="translate(20,3552)"><g id="v-362"><text  id="v-363" font-size="36px" xml:space="preserve" y="0.8em" font-weight="normal" text-anchor="start" fill="#444444" pointer-events="none" display="block" font-family="Tahoma, Verdana, Helvetica, Arial"><tspan dy="0" >C2 Container Diagram - Apache Log4j2</tspan></text></g></g><!--z-index:28--><g   id="j_37"  transform="translate(1039,3101)" style=""><g  id="v-372" style="opacity: 1;"><rect  id="v-373" rx="20" ry="20" stroke-width="2" pointer-events="visiblePainted" fill="#999999" stroke="#8a8a8a" stroke-dasharray="" width="450" height="300" style="fill: rgb(153, 153, 153); stroke: rgb(138, 138, 138);"></rect><text  id="v-374" font-size="33.599999999999994px" xml:space="preserve" y="101.30000000000001" font-weight="bold" text-anchor="middle" pointer-events="visible" font-family="Tahoma, Verdana, Helvetica, Arial" fill="#ffffff" dominant-baseline="hanging" transform="matrix(1,0,0,1,225,0)" style="fill: rgb(255, 255, 255);"><tspan dy="0" >Applications / Libraries</tspan></text><text  id="v-375" font-size="16.799999999999997px" xml:space="preserve" y="142.9" text-anchor="middle" font-family="Tahoma, Verdana, Helvetica, Arial" fill="#ffffff" dominant-baseline="hanging" transform="matrix(1,0,0,1,225,0)" style="display: block; fill: rgb(255, 255, 255);"><tspan dy="0" >[Software System]</tspan></text><text  id="v-376" font-size="24px" xml:space="preserve" y="174.7" text-anchor="middle" font-family="Tahoma, Verdana, Helvetica, Arial" fill="#ffffff" dominant-baseline="hanging" transform="matrix(1,0,0,1,225,0)" style="display: block; fill: rgb(255, 255, 255);"><tspan dy="0" >Java applications that emit log calls</tspan></text><g  id="v-377" color="#ffffff" transform="matrix(1,0,0,1,222.5,268)" display="none" style="fill: rgb(255, 255, 255);"><g ></g><g ></g><g ></g><g ></g></g><image  id="v-378"></image></g></g><!--z-index:29--><g   id="j_38"  transform="translate(199,2178)" style=""><g  id="v-382" style="opacity: 1;"><rect  id="v-383" rx="20" ry="20" stroke-width="2" pointer-events="visiblePainted" fill="#999999" stroke="#8a8a8a" stroke-dasharray="" width="450" height="300" style="fill: rgb(153, 153, 153); stroke: rgb(138, 138, 138);"></rect><text  id="v-384" font-size="33.599999999999994px" xml:space="preserve" y="101.30000000000001" font-weight="bold" text-anchor="middle" pointer-events="visible" font-family="Tahoma, Verdana, Helvetica, Arial" fill="#ffffff" dominant-baseline="hanging" transform="matrix(1,0,0,1,225,0)" style="fill: rgb(255, 255, 255);"><tspan dy="0" >SLF4J 2 API</tspan></text><text  id="v-385" font-size="16.799999999999997px" xml:space="preserve" y="142.9" text-anchor="middle" font-family="Tahoma, Verdana, Helvetica, Arial" fill="#ffffff" dominant-baseline="hanging" transform="matrix(1,0,0,1,225,0)" style="display: block; fill: rgb(255, 255, 255);"><tspan dy="0" >[Software System]</tspan></text><text  id="v-386" font-size="24px" xml:space="preserve" y="174.7" text-anchor="middle" font-family="Tahoma, Verdana, Helvetica, Arial" fill="#ffffff" dominant-baseline="hanging" transform="matrix(1,0,0,1,225,0)" style="display: block; fill: rgb(255, 255, 255);"><tspan dy="0" >Logging facade bridged to Log4j2</tspan></text><g  id="v-387" color="#ffffff" transform="matrix(1,0,0,1,222.5,268)" display="none" style="fill: rgb(255, 255, 255);"><g ></g><g ></g><g ></g><g ></g></g><image  id="v-388"></image></g></g><!--z-index:30--><g   id="j_39"  transform="translate(1829,160)" style=""><g  id="v-389" style="opacity: 1;"><rect  id="v-390" rx="20" ry="20" stroke-width="2" pointer-events="visiblePainted" fill="#999999" stroke="#8a8a8a" stroke-dasharray="" width="450" height="300" style="fill: rgb(153, 153, 153); stroke: rgb(138, 138, 138);"></rect><text  id="v-391" font-size="33.599999999999994px" xml:space="preserve" y="101.30000000000001" font-weight="bold" text-anchor="middle" pointer-events="visible" font-family="Tahoma, Verdana, Helvetica, Arial" fill="#ffffff" dominant-baseline="hanging" transform="matrix(1,0,0,1,225,0)" style="fill: rgb(255, 255, 255);"><tspan dy="0" >File System</tspan></text><text  id="v-392" font-size="16.799999999999997px" xml:space="preserve" y="142.9" text-anchor="middle" font-family="Tahoma, Verdana, Helvetica, Arial" fill="#ffffff" dominant-baseline="hanging" transform="matrix(1,0,0,1,225,0)" style="display: block; fill: rgb(255, 255, 255);"><tspan dy="0" >[Software System]</tspan></text><text  id="v-393" font-size="24px" xml:space="preserve" y="174.7" text-anchor="middle" font-family="Tahoma, Verdana, Helvetica, Arial" fill="#ffffff" dominant-baseline="hanging" transform="matrix(1,0,0,1,225,0)" style="display: block; fill: rgb(255, 255, 255);"><tspan dy="0" >Log file destination</tspan></text><g  id="v-394" color="#ffffff" transform="matrix(1,0,0,1,222.5,268)" display="none" style="fill: rgb(255, 255, 255);"><g ></g><g ></g><g ></g><g ></g></g><image  id="v-395"></image></g></g><!--z-index:31--><g   id="j_40"  transform="translate(1829,510)" style=""><g  id="v-399" style="opacity: 1;"><rect  id="v-400" rx="20" ry="20" stroke-width="2" pointer-events="visiblePainted" fill="#999999" stroke="#8a8a8a" stroke-dasharray="" width="450" height="300" style="fill: rgb(153, 153, 153); stroke: rgb(138, 138, 138);"></rect><text  id="v-401" font-size="33.599999999999994px" xml:space="preserve" y="101.30000000000001" font-weight="bold" text-anchor="middle" pointer-events="visible" font-family="Tahoma, Verdana, Helvetica, Arial" fill="#ffffff" dominant-baseline="hanging" transform="matrix(1,0,0,1,225,0)" style="fill: rgb(255, 255, 255);"><tspan dy="0" >Console</tspan></text><text  id="v-402" font-size="16.799999999999997px" xml:space="preserve" y="142.9" text-anchor="middle" font-family="Tahoma, Verdana, Helvetica, Arial" fill="#ffffff" dominant-baseline="hanging" transform="matrix(1,0,0,1,225,0)" style="display: block; fill: rgb(255, 255, 255);"><tspan dy="0" >[Software System]</tspan></text><text  id="v-403" font-size="24px" xml:space="preserve" y="174.7" text-anchor="middle" font-family="Tahoma, Verdana, Helvetica, Arial" fill="#ffffff" dominant-baseline="hanging" transform="matrix(1,0,0,1,225,0)" style="display: block; fill: rgb(255, 255, 255);"><tspan dy="0" >Standard output / error</tspan></text><g  id="v-404" color="#ffffff" transform="matrix(1,0,0,1,222.5,268)" display="none" style="fill: rgb(255, 255, 255);"><g ></g><g ></g><g ></g><g ></g></g><image  id="v-405"></image></g></g><!--z-index:32--><g   id="j_41"  transform="translate(1829,860)" style=""><g  id="v-409" style="opacity: 1;"><rect  id="v-410" rx="20" ry="20" stroke-width="2" pointer-events="visiblePainted" fill="#999999" stroke="#8a8a8a" stroke-dasharray="" width="450" height="300" style="fill: rgb(153, 153, 153); stroke: rgb(138, 138, 138);"></rect><text  id="v-411" font-size="33.599999999999994px" xml:space="preserve" y="101.30000000000001" font-weight="bold" text-anchor="middle" pointer-events="visible" font-family="Tahoma, Verdana, Helvetica, Arial" fill="#ffffff" dominant-baseline="hanging" transform="matrix(1,0,0,1,225,0)" style="fill: rgb(255, 255, 255);"><tspan dy="0" >Network Endpoints</tspan></text><text  id="v-412" font-size="16.799999999999997px" xml:space="preserve" y="142.9" text-anchor="middle" font-family="Tahoma, Verdana, Helvetica, Arial" fill="#ffffff" dominant-baseline="hanging" transform="matrix(1,0,0,1,225,0)" style="display: block; fill: rgb(255, 255, 255);"><tspan dy="0" >[Software System]</tspan></text><text  id="v-413" font-size="24px" xml:space="preserve" y="174.7" text-anchor="middle" font-family="Tahoma, Verdana, Helvetica, Arial" fill="#ffffff" dominant-baseline="hanging" transform="matrix(1,0,0,1,225,0)" style="display: block; fill: rgb(255, 255, 255);"><tspan dy="0" >Syslog / HTTP / SMTP</tspan></text><g  id="v-414" color="#ffffff" transform="matrix(1,0,0,1,222.5,268)" display="none" style="fill: rgb(255, 255, 255);"><g ></g><g ></g><g ></g><g ></g></g><image  id="v-415"></image></g></g><!--z-index:33--><g   id="j_42"  transform="translate(2669,2701)" style=""><g  id="v-419" style="opacity: 1;"><path  d="M 0,30 a 225,30 0,0,0 450 0 a 225,30 0,0,0 -450 0 l 0,240 a 225,30 0,0,0 450 0 l 0,-240" id="v-420" stroke-width="2" pointer-events="visiblePainted" fill="#999999" stroke="#8a8a8a" stroke-dasharray="" style="fill: rgb(153, 153, 153); stroke: rgb(138, 138, 138);"></path><rect  id="v-421" stroke-width="0" pointer-events="visiblePainted" fill="none" stroke="none" width="450" height="270" x="0" y="30"></rect><text  id="v-422" font-size="33.599999999999994px" xml:space="preserve" y="116.30000000000001" font-weight="bold" text-anchor="middle" pointer-events="visible" font-family="Tahoma, Verdana, Helvetica, Arial" fill="#ffffff" dominant-baseline="hanging" transform="matrix(1,0,0,1,225,0)" style="fill: rgb(255, 255, 255);"><tspan dy="0" >JDBC Databases</tspan></text><text  id="v-423" font-size="16.799999999999997px" xml:space="preserve" y="157.9" text-anchor="middle" font-family="Tahoma, Verdana, Helvetica, Arial" fill="#ffffff" dominant-baseline="hanging" transform="matrix(1,0,0,1,225,0)" style="display: block; fill: rgb(255, 255, 255);"><tspan dy="0" >[Software System]</tspan></text><text  id="v-424" font-size="24px" xml:space="preserve" y="189.7" text-anchor="middle" font-family="Tahoma, Verdana, Helvetica, Arial" fill="#ffffff" dominant-baseline="hanging" transform="matrix(1,0,0,1,225,0)" style="display: block; fill: rgb(255, 255, 255);"><tspan dy="0" >Relational database destinations</tspan></text><g  id="v-425" font-weight="normal" text-anchor="middle" color="#ffffff" transform="matrix(1,0,0,1,222.5,268)" display="none" style="fill: rgb(255, 255, 255);"><g ></g><g ></g><g ></g><g ></g></g><image  id="v-426"></image></g></g><!--z-index:34--><g   id="j_43"  transform="translate(1829,1210)" style=""><g  id="v-433" style="opacity: 1;"><rect  id="v-434" rx="20" ry="20" stroke-width="2" pointer-events="visiblePainted" fill="#999999" stroke="#8a8a8a" stroke-dasharray="" width="450" height="300" style="fill: rgb(153, 153, 153); stroke: rgb(138, 138, 138);"></rect><text  id="v-435" font-size="33.599999999999994px" xml:space="preserve" y="81.14000000000001" font-weight="bold" text-anchor="middle" pointer-events="visible" font-family="Tahoma, Verdana, Helvetica, Arial" fill="#ffffff" dominant-baseline="hanging" transform="matrix(1,0,0,1,225,0)" style="fill: rgb(255, 255, 255);"><tspan dy="0" >Log Aggregation /</tspan><tspan dy="1.2em" x="0" >Monitoring</tspan></text><text  id="v-436" font-size="16.799999999999997px" xml:space="preserve" y="163.06" text-anchor="middle" font-family="Tahoma, Verdana, Helvetica, Arial" fill="#ffffff" dominant-baseline="hanging" transform="matrix(1,0,0,1,225,0)" style="display: block; fill: rgb(255, 255, 255);"><tspan dy="0" >[Software System]</tspan></text><text  id="v-437" font-size="24px" xml:space="preserve" y="194.86" text-anchor="middle" font-family="Tahoma, Verdana, Helvetica, Arial" fill="#ffffff" dominant-baseline="hanging" transform="matrix(1,0,0,1,225,0)" style="display: block; fill: rgb(255, 255, 255);"><tspan dy="0" >Downstream observability stacks</tspan></text><g  id="v-438" color="#ffffff" transform="matrix(1,0,0,1,222.5,268)" display="none" style="fill: rgb(255, 255, 255);"><g ></g><g ></g><g ></g><g ></g></g><image  id="v-439"></image></g></g><!--z-index:35--><g   id="j_45"  transform="translate(989,1732)" style="; opacity: 1;"><g id="v-450"><rect  id="v-451" width="1340" height="1398" rx="20" ry="20" stroke-width="2" pointer-events="none" stroke="#0f5eaa" fill="#ffffff" opacity="1" stroke-dasharray=""></rect><text  id="v-452" font-size="33.599999999999994px" xml:space="preserve" y="1359" font-weight="bold" text-anchor="start" pointer-events="visible" font-family="Tahoma, Verdana, Helvetica, Arial" fill="#0f5eaa" transform="matrix(1,0,0,1,15,0)"><tspan dy="0" >Apache Log4j2</tspan></text><text  id="v-453" font-size="16.799999999999997px" xml:space="preserve" y="1383" font-weight="normal" text-anchor="start" pointer-events="visible" font-family="Tahoma, Verdana, Helvetica, Arial" fill="#0f5eaa" transform="matrix(1,0,0,1,15,0)"><tspan dy="0" >[Software System]</tspan></text><image  id="v-454" pointer-events="visible"></image></g></g><!--z-index:36--><g   id="j_44"  transform="translate(1829,2001)" style=""><g  id="v-443" style="opacity: 1;"><rect  id="v-444" rx="20" ry="20" stroke-width="2" pointer-events="visiblePainted" fill="#438dd5" stroke="#3c7fc0" stroke-dasharray="" width="450" height="300" style="fill: rgb(67, 141, 213); stroke: rgb(60, 127, 192);"></rect><text  id="v-445" font-size="33.599999999999994px" xml:space="preserve" y="86.9" font-weight="bold" text-anchor="middle" pointer-events="visible" font-family="Tahoma, Verdana, Helvetica, Arial" fill="#ffffff" dominant-baseline="hanging" transform="matrix(1,0,0,1,225,0)" style="fill: rgb(255, 255, 255);"><tspan dy="0" >log4j-api</tspan></text><text  id="v-446" font-size="16.799999999999997px" xml:space="preserve" y="128.5" text-anchor="middle" font-family="Tahoma, Verdana, Helvetica, Arial" fill="#ffffff" dominant-baseline="hanging" transform="matrix(1,0,0,1,225,0)" style="display: block; fill: rgb(255, 255, 255);"><tspan dy="0" >[Container: Java]</tspan></text><text  id="v-447" font-size="24px" xml:space="preserve" y="160.3" text-anchor="middle" font-family="Tahoma, Verdana, Helvetica, Arial" fill="#ffffff" dominant-baseline="hanging" transform="matrix(1,0,0,1,225,0)" style="display: block; fill: rgb(255, 255, 255);"><tspan dy="0" >Public logging API used by</tspan><tspan dy="1.2em" x="0" >applications and adapters</tspan></text><g  id="v-448" color="#ffffff" transform="matrix(1,0,0,1,210,268)" display="none" style="fill: rgb(255, 255, 255);"><g  transform="translate(5 0)"><svg xmlns="http://www.w3.org/2000/svg" width="20" height="20" fill="currentColor" viewBox="0 0 16 16"><path fill-rule="evenodd" d="M6.5 12a5.5 5.5 0 1 0 0-11 5.5 5.5 0 0 0 0 11zM13 6.5a6.5 6.5 0 1 1-13 0 6.5 6.5 0 0 1 13 0z"></path><path d="M10.344 11.742c.03.04.062.078.098.115l3.85 3.85a1 1 0 0 0 1.415-1.414l-3.85-3.85a1.007 1.007 0 0 0-.115-.1 6.538 6.538 0 0 1-1.398 1.4z"></path><path fill-rule="evenodd" d="M6.5 3a.5.5 0 0 1 .5.5V6h2.5a.5.5 0 0 1 0 1H7v2.5a.5.5 0 0 1-1 0V7H3.5a.5.5 0 0 1 0-1H6V3.5a.5.5 0 0 1 .5-.5z"></path></svg></g><g ></g><g ></g><g ></g></g><image  id="v-449"></image></g></g><!--z-index:37--><g   id="j_46"  transform="translate(1039,1782)" style=""><g  id="v-458" style="opacity: 1;"><rect  id="v-459" rx="20" ry="20" stroke-width="2" pointer-events="visiblePainted" fill="#438dd5" stroke="#3c7fc0" stroke-dasharray="" width="450" height="300" style="fill: rgb(67, 141, 213); stroke: rgb(60, 127, 192);"></rect><text  id="v-460" font-size="33.599999999999994px" xml:space="preserve" y="72.5" font-weight="bold" text-anchor="middle" pointer-events="visible" font-family="Tahoma, Verdana, Helvetica, Arial" fill="#ffffff" dominant-baseline="hanging" transform="matrix(1,0,0,1,225,0)" style="fill: rgb(255, 255, 255);"><tspan dy="0" >log4j-core</tspan></text><text  id="v-461" font-size="16.799999999999997px" xml:space="preserve" y="114.1" text-anchor="middle" font-family="Tahoma, Verdana, Helvetica, Arial" fill="#ffffff" dominant-baseline="hanging" transform="matrix(1,0,0,1,225,0)" style="display: block; fill: rgb(255, 255, 255);"><tspan dy="0" >[Container: Java]</tspan></text><text  id="v-462" font-size="24px" xml:space="preserve" y="145.89999999999998" text-anchor="middle" font-family="Tahoma, Verdana, Helvetica, Arial" fill="#ffffff" dominant-baseline="hanging" transform="matrix(1,0,0,1,225,0)" style="display: block; fill: rgb(255, 255, 255);"><tspan dy="0" >Logging implementation,</tspan><tspan dy="1.2em" x="0" >configuration, filters, appenders,</tspan><tspan dy="1.2em" x="0" >runtime pipeline</tspan></text><g  id="v-463" color="#ffffff" transform="matrix(1,0,0,1,210,268)" display="none" style="fill: rgb(255, 255, 255);"><g  transform="translate(5 0)"><svg xmlns="http://www.w3.org/2000/svg" width="20" height="20" fill="currentColor" viewBox="0 0 16 16"><path fill-rule="evenodd" d="M6.5 12a5.5 5.5 0 1 0 0-11 5.5 5.5 0 0 0 0 11zM13 6.5a6.5 6.5 0 1 1-13 0 6.5 6.5 0 0 1 13 0z"></path><path d="M10.344 11.742c.03.04.062.078.098.115l3.85 3.85a1 1 0 0 0 1.415-1.414l-3.85-3.85a1.007 1.007 0 0 0-.115-.1 6.538 6.538 0 0 1-1.398 1.4z"></path><path fill-rule="evenodd" d="M6.5 3a.5.5 0 0 1 .5.5V6h2.5a.5.5 0 0 1 0 1H7v2.5a.5.5 0 0 1-1 0V7H3.5a.5.5 0 0 1 0-1H6V3.5a.5.5 0 0 1 .5-.5z"></path></svg></g><g ></g><g ></g><g ></g></g><image  id="v-464"></image></g></g><!--z-index:38--><g   id="j_47"  transform="translate(1829,2351)" style=""><g  id="v-471" style="opacity: 1;"><rect  id="v-472" rx="20" ry="20" stroke-width="2" pointer-events="visiblePainted" fill="#438dd5" stroke="#3c7fc0" stroke-dasharray="" width="450" height="300" style="fill: rgb(67, 141, 213); stroke: rgb(60, 127, 192);"></rect><text  id="v-473" font-size="33.599999999999994px" xml:space="preserve" y="86.9" font-weight="bold" text-anchor="middle" pointer-events="visible" font-family="Tahoma, Verdana, Helvetica, Arial" fill="#ffffff" dominant-baseline="hanging" transform="matrix(1,0,0,1,225,0)" style="fill: rgb(255, 255, 255);"><tspan dy="0" >log4j-layout-template-json</tspan></text><text  id="v-474" font-size="16.799999999999997px" xml:space="preserve" y="128.5" text-anchor="middle" font-family="Tahoma, Verdana, Helvetica, Arial" fill="#ffffff" dominant-baseline="hanging" transform="matrix(1,0,0,1,225,0)" style="display: block; fill: rgb(255, 255, 255);"><tspan dy="0" >[Container: Java]</tspan></text><text  id="v-475" font-size="24px" xml:space="preserve" y="160.3" text-anchor="middle" font-family="Tahoma, Verdana, Helvetica, Arial" fill="#ffffff" dominant-baseline="hanging" transform="matrix(1,0,0,1,225,0)" style="display: block; fill: rgb(255, 255, 255);"><tspan dy="0" >JSON layout templates for</tspan><tspan dy="1.2em" x="0" >structured output</tspan></text><g  id="v-476" color="#ffffff" transform="matrix(1,0,0,1,210,268)" display="none" style="fill: rgb(255, 255, 255);"><g  transform="translate(5 0)"><svg xmlns="http://www.w3.org/2000/svg" width="20" height="20" fill="currentColor" viewBox="0 0 16 16"><path fill-rule="evenodd" d="M6.5 12a5.5 5.5 0 1 0 0-11 5.5 5.5 0 0 0 0 11zM13 6.5a6.5 6.5 0 1 1-13 0 6.5 6.5 0 0 1 13 0z"></path><path d="M10.344 11.742c.03.04.062.078.098.115l3.85 3.85a1 1 0 0 0 1.415-1.414l-3.85-3.85a1.007 1.007 0 0 0-.115-.1 6.538 6.538 0 0 1-1.398 1.4z"></path><path fill-rule="evenodd" d="M6.5 3a.5.5 0 0 1 .5.5V6h2.5a.5.5 0 0 1 0 1H7v2.5a.5.5 0 0 1-1 0V7H3.5a.5.5 0 0 1 0-1H6V3.5a.5.5 0 0 1 .5-.5z"></path></svg></g><g ></g><g ></g><g ></g></g><image  id="v-477"></image></g></g><!--z-index:39--><g   id="j_48"  transform="translate(1039,2178)" style=""><g  id="v-484" style="opacity: 1;"><rect  id="v-485" rx="20" ry="20" stroke-width="2" pointer-events="visiblePainted" fill="#438dd5" stroke="#3c7fc0" stroke-dasharray="" width="450" height="300" style="fill: rgb(67, 141, 213); stroke: rgb(60, 127, 192);"></rect><text  id="v-486" font-size="33.599999999999994px" xml:space="preserve" y="86.9" font-weight="bold" text-anchor="middle" pointer-events="visible" font-family="Tahoma, Verdana, Helvetica, Arial" fill="#ffffff" dominant-baseline="hanging" transform="matrix(1,0,0,1,225,0)" style="fill: rgb(255, 255, 255);"><tspan dy="0" >log4j-slf4j2-impl</tspan></text><text  id="v-487" font-size="16.799999999999997px" xml:space="preserve" y="128.5" text-anchor="middle" font-family="Tahoma, Verdana, Helvetica, Arial" fill="#ffffff" dominant-baseline="hanging" transform="matrix(1,0,0,1,225,0)" style="display: block; fill: rgb(255, 255, 255);"><tspan dy="0" >[Container: Java]</tspan></text><text  id="v-488" font-size="24px" xml:space="preserve" y="160.3" text-anchor="middle" font-family="Tahoma, Verdana, Helvetica, Arial" fill="#ffffff" dominant-baseline="hanging" transform="matrix(1,0,0,1,225,0)" style="display: block; fill: rgb(255, 255, 255);"><tspan dy="0" >Adapter bridging SLF4J 2 calls to</tspan><tspan dy="1.2em" x="0" >Log4j2 API</tspan></text><g  id="v-489" color="#ffffff" transform="matrix(1,0,0,1,210,268)" display="none" style="fill: rgb(255, 255, 255);"><g  transform="translate(5 0)"><svg xmlns="http://www.w3.org/2000/svg" width="20" height="20" fill="currentColor" viewBox="0 0 16 16"><path fill-rule="evenodd" d="M6.5 12a5.5 5.5 0 1 0 0-11 5.5 5.5 0 0 0 0 11zM13 6.5a6.5 6.5 0 1 1-13 0 6.5 6.5 0 0 1 13 0z"></path><path d="M10.344 11.742c.03.04.062.078.098.115l3.85 3.85a1 1 0 0 0 1.415-1.414l-3.85-3.85a1.007 1.007 0 0 0-.115-.1 6.538 6.538 0 0 1-1.398 1.4z"></path><path fill-rule="evenodd" d="M6.5 3a.5.5 0 0 1 .5.5V6h2.5a.5.5 0 0 1 0 1H7v2.5a.5.5 0 0 1-1 0V7H3.5a.5.5 0 0 1 0-1H6V3.5a.5.5 0 0 1 .5-.5z"></path></svg></g><g ></g><g ></g><g ></g></g><image  id="v-490"></image></g></g><!--z-index:40--><g   id="j_49"  transform="translate(1829,2701)" style=""><g  id="v-500" style="opacity: 1;"><rect  id="v-501" rx="20" ry="20" stroke-width="2" pointer-events="visiblePainted" fill="#438dd5" stroke="#3c7fc0" stroke-dasharray="" width="450" height="300" style="fill: rgb(67, 141, 213); stroke: rgb(60, 127, 192);"></rect><text  id="v-502" font-size="33.599999999999994px" xml:space="preserve" y="86.9" font-weight="bold" text-anchor="middle" pointer-events="visible" font-family="Tahoma, Verdana, Helvetica, Arial" fill="#ffffff" dominant-baseline="hanging" transform="matrix(1,0,0,1,225,0)" style="fill: rgb(255, 255, 255);"><tspan dy="0" >log4j-jdbc-dbcp2</tspan></text><text  id="v-503" font-size="16.799999999999997px" xml:space="preserve" y="128.5" text-anchor="middle" font-family="Tahoma, Verdana, Helvetica, Arial" fill="#ffffff" dominant-baseline="hanging" transform="matrix(1,0,0,1,225,0)" style="display: block; fill: rgb(255, 255, 255);"><tspan dy="0" >[Container: Java, Apache DBCP2]</tspan></text><text  id="v-504" font-size="24px" xml:space="preserve" y="160.3" text-anchor="middle" font-family="Tahoma, Verdana, Helvetica, Arial" fill="#ffffff" dominant-baseline="hanging" transform="matrix(1,0,0,1,225,0)" style="display: block; fill: rgb(255, 255, 255);"><tspan dy="0" >JDBC appender integration writing</tspan><tspan dy="1.2em" x="0" >log events to databases</tspan></text><g  id="v-505" color="#ffffff" transform="matrix(1,0,0,1,210,268)" display="none" style="fill: rgb(255, 255, 255);"><g  transform="translate(5 0)"><svg xmlns="http://www.w3.org/2000/svg" width="20" height="20" fill="currentColor" viewBox="0 0 16 16"><path fill-rule="evenodd" d="M6.5 12a5.5 5.5 0 1 0 0-11 5.5 5.5 0 0 0 0 11zM13 6.5a6.5 6.5 0 1 1-13 0 6.5 6.5 0 0 1 13 0z"></path><path d="M10.344 11.742c.03.04.062.078.098.115l3.85 3.85a1 1 0 0 0 1.415-1.414l-3.85-3.85a1.007 1.007 0 0 0-.115-.1 6.538 6.538 0 0 1-1.398 1.4z"></path><path fill-rule="evenodd" d="M6.5 3a.5.5 0 0 1 .5.5V6h2.5a.5.5 0 0 1 0 1H7v2.5a.5.5 0 0 1-1 0V7H3.5a.5.5 0 0 1 0-1H6V3.5a.5.5 0 0 1 .5-.5z"></path></svg></g><g ></g><g ></g><g ></g></g><image  id="v-506"></image></g></g><!--z-index:41--><g   id="j_50"  style="opacity: 1;"><path fill="none" cursor="pointer" stroke="transparent" stroke-linecap="round" joint-selector="wrapper" id="v-518" stroke-width="10" stroke-linejoin="round" d="M 1325.17 3101 L 1655 2292 C 1657.6666666666665 2285.6 1662 2281.2666666666664 1668 2279 L 1829 2225.85"></path><path fill="none" pointer-events="none" joint-selector="line" id="v-517" stroke="#444444" stroke-width="2" stroke-linejoin="round" stroke-dasharray="8 8" d="M 1325.17 3101 L 1655 2292 C 1657.6666666666665 2285.6 1662 2281.2666666666664 1668 2279 L 1829 2225.85" marker-end="url(#v-21252848929)"></path><g id="v-510" ><g id="v-511"  label-idx="0" cursor="move" transform="matrix(1,0,0,1,1660.25,2283.949951171875)" style="cursor: default;"><rect joint-selector="rect" id="v-514" fill="#ffffff" rx="3" ry="3" x="-84.89582824707031" y="-17.799999237060547" width="169.79165649414062" height="30.555553436279297" pointer-events="none"  style="display: block;"></rect><text joint-selector="text" id="v-513" font-size="24px" xml:space="preserve" fill="#444444" text-anchor="middle" pointer-events="none" font-family="Tahoma, Verdana, Helvetica, Arial" font-weight="normal"  style="display: block;"><tspan dy="0.3em" >calls Logger API</tspan></text></g><g id="v-512"  label-idx="1" cursor="move" transform="matrix(1,0,0,1,1650.25,2295.949951171875)" style="cursor: default;"><rect joint-selector="rect" id="v-516" fill="#ffffff" rx="3" ry="3" x="-4.547473508864641e-13" y="0" width="0" height="0"  display="none"></rect><text joint-selector="text" id="v-515" fill="#000000" font-size="14" text-anchor="middle" text-vertical-anchor="middle" pointer-events="none"></text></g></g></g><!--z-index:42--><g   id="j_51"  style="opacity: 1;"><path fill="none" cursor="pointer" stroke="transparent" stroke-linecap="round" joint-selector="wrapper" id="v-530" stroke-width="10" stroke-linejoin="round" d="M 649 2328 L 1039 2328"></path><path fill="none" pointer-events="none" joint-selector="line" id="v-529" stroke="#444444" stroke-width="2" stroke-linejoin="round" stroke-dasharray="8 8" d="M 649 2328 L 1039 2328" marker-end="url(#v-21252848929)"></path><g id="v-522" ><g id="v-523"  label-idx="0" cursor="move" transform="matrix(1,0,0,1,819,2328)" style="cursor: default;"><rect joint-selector="rect" id="v-526" fill="#ffffff" rx="3" ry="3" x="-74.91319274902344" y="-32.19999694824219" width="149.82638549804688" height="59.355552673339844" pointer-events="none"  style="display: block;"></rect><text joint-selector="text" id="v-525" font-size="24px" xml:space="preserve" fill="#444444" text-anchor="middle" pointer-events="none" font-family="Tahoma, Verdana, Helvetica, Arial" font-weight="normal"  style="display: block;"><tspan dy="-0.3em" >discovered via</tspan><tspan dy="1.2em" x="0" >ServiceLoader</tspan></text></g><g id="v-524"  label-idx="1" cursor="move" transform="matrix(1,0,0,1,809,2354.39990234375)" style="cursor: default;"><rect joint-selector="rect" id="v-528" fill="#ffffff" rx="3" ry="3" x="0" y="0" width="0" height="0"  display="none"></rect><text joint-selector="text" id="v-527" fill="#000000" font-size="14" text-anchor="middle" text-vertical-anchor="middle" pointer-events="none"></text></g></g></g><!--z-index:43--><g   id="j_52"  style="opacity: 1;"><path fill="none" cursor="pointer" stroke="transparent" stroke-linecap="round" joint-selector="wrapper" id="v-542" stroke-width="10" stroke-linejoin="round" d="M 1489 2251.67 L 1650 2197 C 1656 2195 1662.3333333333333 2193.6666666666665 1669 2193 L 1829 2175.49"></path><path fill="none" pointer-events="none" joint-selector="line" id="v-541" stroke="#444444" stroke-width="2" stroke-linejoin="round" stroke-dasharray="8 8" d="M 1489 2251.67 L 1650 2197 C 1656 2195 1662.3333333333333 2193.6666666666665 1669 2193 L 1829 2175.49" marker-end="url(#v-21252848929)"></path><g id="v-534" ><g id="v-535"  label-idx="0" cursor="move" transform="matrix(1,0,0,1,1659.17578125,2194.515625)" style="cursor: default;"><rect joint-selector="rect" id="v-538" fill="#ffffff" rx="3" ry="3" x="-99.17534637451172" y="-32.19999694824219" width="198.35069274902344" height="59.355552673339844" pointer-events="none"  style="display: block;"></rect><text joint-selector="text" id="v-537" font-size="24px" xml:space="preserve" fill="#444444" text-anchor="middle" pointer-events="none" font-family="Tahoma, Verdana, Helvetica, Arial" font-weight="normal"  style="display: block;"><tspan dy="-0.3em" >delegates SLF4J</tspan><tspan dy="1.2em" x="0" >calls to Logger API</tspan></text></g><g id="v-536"  label-idx="1" cursor="move" transform="matrix(1,0,0,1,1649.17578125,2220.915771484375)" style="cursor: default;"><rect joint-selector="rect" id="v-540" fill="#ffffff" rx="3" ry="3" x="0" y="0" width="0" height="0"  display="none"></rect><text joint-selector="text" id="v-539" fill="#000000" font-size="14" text-anchor="middle" text-vertical-anchor="middle" pointer-events="none"></text></g></g></g><!--z-index:44--><g   id="j_53"  style="opacity: 1;"><path fill="none" cursor="pointer" stroke="transparent" stroke-linecap="round" joint-selector="wrapper" id="v-554" stroke-width="10" stroke-linejoin="round" d="M 1489 1961.51 L 1649 1982 C 1655.6666666666665 1983.1999999999998 1662 1985.1999999999998 1668 1988 L 1829 2055.76"></path><path fill="none" pointer-events="none" joint-selector="line" id="v-553" stroke="#444444" stroke-width="2" stroke-linejoin="round" stroke-dasharray="8 8" d="M 1489 1961.51 L 1649 1982 C 1655.6666666666665 1983.1999999999998 1662 1985.1999999999998 1668 1988 L 1829 2055.76" marker-end="url(#v-21252848929)"></path><g id="v-546" ><g id="v-547"  label-idx="0" cursor="move" transform="matrix(1,0,0,1,1658.75,1984.4000244140625)" style="cursor: default;"><rect joint-selector="rect" id="v-550" fill="#ffffff" rx="3" ry="3" x="-77.66926574707031" y="-46.59999465942383" width="156.1637725830078" height="88.15555572509766" pointer-events="none"  style="display: block;"></rect><text joint-selector="text" id="v-549" font-size="24px" xml:space="preserve" fill="#444444" text-anchor="middle" pointer-events="none" font-family="Tahoma, Verdana, Helvetica, Arial" font-weight="normal"  style="display: block;"><tspan dy="-0.8999999999999999em" >implements</tspan><tspan dy="1.2em" x="0" >logging</tspan><tspan dy="1.2em" x="0" >abstractions of</tspan></text></g><g id="v-548"  label-idx="1" cursor="move" transform="matrix(1,0,0,1,1648.75,2025.199951171875)" style="cursor: default;"><rect joint-selector="rect" id="v-552" fill="#ffffff" rx="3" ry="3" x="0" y="0" width="0" height="0"  display="none"></rect><text joint-selector="text" id="v-551" fill="#000000" font-size="14" text-anchor="middle" text-vertical-anchor="middle" pointer-events="none"></text></g></g></g><!--z-index:45--><g   id="j_54"  style="opacity: 1;"><path fill="none" cursor="pointer" stroke="transparent" stroke-linecap="round" joint-selector="wrapper" id="v-566" stroke-width="10" stroke-linejoin="round" d="M 1368.02 2082 L 1653 2493 C 1657 2498.7333333333336 1662.3333333333333 2501.7333333333336 1669 2502 L 1825.18 2501.35"></path><path fill="none" pointer-events="none" joint-selector="line" id="v-565" stroke="#444444" stroke-width="2" stroke-linejoin="round" stroke-dasharray="8 8" d="M 1368.02 2082 L 1653 2493 C 1657 2498.7333333333336 1662.3333333333333 2501.7333333333336 1669 2502 L 1825.18 2501.35" marker-end="url(#v-21252848929)"></path><g id="v-558" ><g id="v-559"  label-idx="0" cursor="move" transform="matrix(1,0,0,1,1657.2825927734375,2497.69140625)" style="cursor: default;"><rect joint-selector="rect" id="v-562" fill="#ffffff" rx="3" ry="3" x="-97.39582824707031" y="-32.19999694824219" width="194.79165649414062" height="59.355552673339844" pointer-events="none"  style="display: block;"></rect><text joint-selector="text" id="v-561" font-size="24px" xml:space="preserve" fill="#444444" text-anchor="middle" pointer-events="none" font-family="Tahoma, Verdana, Helvetica, Arial" font-weight="normal"  style="display: block;"><tspan dy="-0.3em" >formats events via</tspan><tspan dy="1.2em" x="0" >JSON Layout SPI</tspan></text></g><g id="v-560"  label-idx="1" cursor="move" transform="matrix(1,0,0,1,1647.2825927734375,2524.09130859375)" style="cursor: default;"><rect joint-selector="rect" id="v-564" fill="#ffffff" rx="3" ry="3" x="0" y="0" width="0" height="0"  display="none"></rect><text joint-selector="text" id="v-563" fill="#000000" font-size="14" text-anchor="middle" text-vertical-anchor="middle" pointer-events="none"></text></g></g></g><!--z-index:46--><g   id="j_55"  style="opacity: 1;"><path fill="none" cursor="pointer" stroke="transparent" stroke-linecap="round" joint-selector="wrapper" id="v-578" stroke-width="10" stroke-linejoin="round" d="M 1328.43 2082 L 1655 2842 C 1657.6666666666665 2848.4 1662.3333333333333 2851.7333333333336 1669 2852 L 1829 2851.34"></path><path fill="none" pointer-events="none" joint-selector="line" id="v-577" stroke="#444444" stroke-width="2" stroke-linejoin="round" stroke-dasharray="8 8" d="M 1328.43 2082 L 1655 2842 C 1657.6666666666665 2848.4 1662.3333333333333 2851.7333333333336 1669 2852 L 1829 2851.34" marker-end="url(#v-21252848929)"></path><g id="v-570" ><g id="v-571"  label-idx="0" cursor="move" transform="matrix(1,0,0,1,1659.9095458984375,2848.853271484375)" style="cursor: default;"><rect joint-selector="rect" id="v-574" fill="#ffffff" rx="3" ry="3" x="-93.83679962158203" y="-46.59999465942383" width="187.67359924316406" height="88.15555572509766" pointer-events="none"  style="display: block;"></rect><text joint-selector="text" id="v-573" font-size="24px" xml:space="preserve" fill="#444444" text-anchor="middle" pointer-events="none" font-family="Tahoma, Verdana, Helvetica, Arial" font-weight="normal"  style="display: block;"><tspan dy="-0.8999999999999999em" >obtains pooled</tspan><tspan dy="1.2em" x="0" >JDBC connections</tspan><tspan dy="1.2em" x="0" >via</tspan></text></g><g id="v-572"  label-idx="1" cursor="move" transform="matrix(1,0,0,1,1649.9095458984375,2889.6533203125)" style="cursor: default;"><rect joint-selector="rect" id="v-576" fill="#ffffff" rx="3" ry="3" x="0" y="0" width="0" height="0"  display="none"></rect><text joint-selector="text" id="v-575" fill="#000000" font-size="14" text-anchor="middle" text-vertical-anchor="middle" pointer-events="none"></text></g></g></g><!--z-index:47--><g   id="j_56"  style="opacity: 1;"><path fill="none" cursor="pointer" stroke="transparent" stroke-linecap="round" joint-selector="wrapper" id="v-590" stroke-width="10" stroke-linejoin="round" d="M 1455.13 1782 L 1651 1628 C 1656.3333333333333 1624 1660 1618.6666666666665 1662 1612 L 2008.84 460"></path><path fill="none" pointer-events="none" joint-selector="line" id="v-589" stroke="#444444" stroke-width="2" stroke-linejoin="round" stroke-dasharray="8 8" d="M 1455.13 1782 L 1651 1628 C 1656.3333333333333 1624 1660 1618.6666666666665 1662 1612 L 2008.84 460" marker-end="url(#v-21252848929)"></path><g id="v-582" ><g id="v-583"  label-idx="0" cursor="move" transform="matrix(1,0,0,1,1658.21337890625,1620.30517578125)" style="cursor: default;"><rect joint-selector="rect" id="v-586" fill="#ffffff" rx="3" ry="3" x="-89.6484375" y="-17.799999237060547" width="179.296875" height="30.555553436279297" pointer-events="none"  style="display: block;"></rect><text joint-selector="text" id="v-585" font-size="24px" xml:space="preserve" fill="#444444" text-anchor="middle" pointer-events="none" font-family="Tahoma, Verdana, Helvetica, Arial" font-weight="normal"  style="display: block;"><tspan dy="0.3em" >writes log events</tspan></text></g><g id="v-584"  label-idx="1" cursor="move" transform="matrix(1,0,0,1,1648.21337890625,1632.30517578125)" style="cursor: default;"><rect joint-selector="rect" id="v-588" fill="#ffffff" rx="3" ry="3" x="0" y="1.1368683772161603e-13" width="0" height="0"  display="none"></rect><text joint-selector="text" id="v-587" fill="#000000" font-size="14" text-anchor="middle" text-vertical-anchor="middle" pointer-events="none"></text></g></g></g><!--z-index:48--><g   id="j_57"  style="opacity: 1;"><path fill="none" cursor="pointer" stroke="transparent" stroke-linecap="round" joint-selector="wrapper" id="v-602" stroke-width="10" stroke-linejoin="round" d="M 1489 1797.57 L 1650 1701 C 1656 1697.6666666666665 1660.3333333333333 1692.9999999999998 1663 1687 L 1996.81 810"></path><path fill="none" pointer-events="none" joint-selector="line" id="v-601" stroke="#444444" stroke-width="2" stroke-linejoin="round" stroke-dasharray="8 8" d="M 1489 1797.57 L 1650 1701 C 1656 1697.6666666666665 1660.3333333333333 1692.9999999999998 1663 1687 L 1996.81 810" marker-end="url(#v-21252848929)"></path><g id="v-594" ><g id="v-595"  label-idx="0" cursor="move" transform="matrix(1,0,0,1,1658.076904296875,1694.6419677734375)" style="cursor: default;"><rect joint-selector="rect" id="v-598" fill="#ffffff" rx="3" ry="3" x="-89.6484375" y="-17.799999237060547" width="179.296875" height="30.555553436279297" pointer-events="none"  style="display: block;"></rect><text joint-selector="text" id="v-597" font-size="24px" xml:space="preserve" fill="#444444" text-anchor="middle" pointer-events="none" font-family="Tahoma, Verdana, Helvetica, Arial" font-weight="normal"  style="display: block;"><tspan dy="0.3em" >writes log events</tspan></text></g><g id="v-596"  label-idx="1" cursor="move" transform="matrix(1,0,0,1,1648.076904296875,1706.6419677734375)" style="cursor: default;"><rect joint-selector="rect" id="v-600" fill="#ffffff" rx="3" ry="3" x="0" y="0" width="0" height="0"  display="none"></rect><text joint-selector="text" id="v-599" fill="#000000" font-size="14" text-anchor="middle" text-vertical-anchor="middle" pointer-events="none"></text></g></g></g><!--z-index:49--><g   id="j_58"  style="opacity: 1;"><path fill="none" cursor="pointer" stroke="transparent" stroke-linecap="round" joint-selector="wrapper" id="v-614" stroke-width="10" stroke-linejoin="round" d="M 1489 1839.72 L 1650 1774 C 1656 1771.3333333333333 1660.6666666666665 1767 1664 1761 L 1976.04 1160"></path><path fill="none" pointer-events="none" joint-selector="line" id="v-613" stroke="#444444" stroke-width="2" stroke-linejoin="round" stroke-dasharray="8 8" d="M 1489 1839.72 L 1650 1774 C 1656 1771.3333333333333 1660.6666666666665 1767 1664 1761 L 1976.04 1160" marker-end="url(#v-21252848929)"></path><g id="v-606" ><g id="v-607"  label-idx="0" cursor="move" transform="matrix(1,0,0,1,1658.1363525390625,1768.62255859375)" style="cursor: default;"><rect joint-selector="rect" id="v-610" fill="#ffffff" rx="3" ry="3" x="-89.6484375" y="-17.799999237060547" width="179.296875" height="30.555553436279297" pointer-events="none"  style="display: block;"></rect><text joint-selector="text" id="v-609" font-size="24px" xml:space="preserve" fill="#444444" text-anchor="middle" pointer-events="none" font-family="Tahoma, Verdana, Helvetica, Arial" font-weight="normal"  style="display: block;"><tspan dy="0.3em" >writes log events</tspan></text></g><g id="v-608"  label-idx="1" cursor="move" transform="matrix(1,0,0,1,1648.1363525390625,1780.62255859375)" style="cursor: default;"><rect joint-selector="rect" id="v-612" fill="#ffffff" rx="3" ry="3" x="-4.547473508864641e-13" y="0" width="0" height="0"  display="none"></rect><text joint-selector="text" id="v-611" fill="#000000" font-size="14" text-anchor="middle" text-vertical-anchor="middle" pointer-events="none"></text></g></g></g><!--z-index:50--><g   id="j_59"  style="opacity: 1;"><path fill="none" cursor="pointer" stroke="transparent" stroke-linecap="round" joint-selector="wrapper" id="v-626" stroke-width="10" stroke-linejoin="round" d="M 2279 2851 L 2669 2851"></path><path fill="none" pointer-events="none" joint-selector="line" id="v-625" stroke="#444444" stroke-width="2" stroke-linejoin="round" stroke-dasharray="8 8" d="M 2279 2851 L 2669 2851" marker-end="url(#v-21252848929)"></path><g id="v-618" ><g id="v-619"  label-idx="0" cursor="move" transform="matrix(1,0,0,1,2499,2851)" style="cursor: default;"><rect joint-selector="rect" id="v-622" fill="#ffffff" rx="3" ry="3" x="-93.31597137451172" y="-46.59999465942383" width="186.63194274902344" height="88.15555572509766" pointer-events="none"  style="display: block;"></rect><text joint-selector="text" id="v-621" font-size="24px" xml:space="preserve" fill="#444444" text-anchor="middle" pointer-events="none" font-family="Tahoma, Verdana, Helvetica, Arial" font-weight="normal"  style="display: block;"><tspan dy="-0.8999999999999999em" >writes log events</tspan><tspan dy="1.2em" x="0" >over pooled JDBC</tspan><tspan dy="1.2em" x="0" >connections</tspan></text></g><g id="v-620"  label-idx="1" cursor="move" transform="matrix(1,0,0,1,2489,2891.800048828125)" style="cursor: default;"><rect joint-selector="rect" id="v-624" fill="#ffffff" rx="3" ry="3" x="0" y="0" width="0" height="0"  display="none"></rect><text joint-selector="text" id="v-623" fill="#000000" font-size="14" text-anchor="middle" text-vertical-anchor="middle" pointer-events="none"></text></g></g></g><!--z-index:51--><g   id="j_60"  style="opacity: 1;"><path fill="none" cursor="pointer" stroke="transparent" stroke-linecap="round" joint-selector="wrapper" id="v-638" stroke-width="10" stroke-linejoin="round" d="M 1489 1881.87 L 1649 1846 C 1655.6666666666665 1844.6666666666665 1661 1841.3333333333333 1665 1836 L 1931.58 1510"></path><path fill="none" pointer-events="none" joint-selector="line" id="v-637" stroke="#444444" stroke-width="2" stroke-linejoin="round" stroke-dasharray="8 8" d="M 1489 1881.87 L 1649 1846 C 1655.6666666666665 1844.6666666666665 1661 1841.3333333333333 1665 1836 L 1931.58 1510" marker-end="url(#v-21252848929)"></path><g id="v-630" ><g id="v-631"  label-idx="0" cursor="move" transform="matrix(1,0,0,1,1658.2490234375,1842.34228515625)" style="cursor: default;"><rect joint-selector="rect" id="v-634" fill="#ffffff" rx="3" ry="3" x="-70.8984375" y="-17.799999237060547" width="141.796875" height="30.555553436279297" pointer-events="none"  style="display: block;"></rect><text joint-selector="text" id="v-633" font-size="24px" xml:space="preserve" fill="#444444" text-anchor="middle" pointer-events="none" font-family="Tahoma, Verdana, Helvetica, Arial" font-weight="normal"  style="display: block;"><tspan dy="0.3em" >forwards logs</tspan></text></g><g id="v-632"  label-idx="1" cursor="move" transform="matrix(1,0,0,1,1648.2490234375,1854.34228515625)" style="cursor: default;"><rect joint-selector="rect" id="v-636" fill="#ffffff" rx="3" ry="3" x="0" y="0" width="0" height="0"  display="none"></rect><text joint-selector="text" id="v-635" fill="#000000" font-size="14" text-anchor="middle" text-vertical-anchor="middle" pointer-events="none"></text></g></g></g><!--z-index:52--></g><g  style="user-select: none;"></g><g ></g><g  display="none"></g></g></svg>