<svg xmlns="http://www.w3.org/2000/svg" xmlns:xlink="http://www.w3.org/1999/xlink" version="1.1" width="3420" height="1067" style="width: 3420px; height: 1067px; background: #ffffff" viewBox="0 0 3420 1067"><style id="v-3" type="text/css">        .joint-element .scalable * {            vector-effect: non-scaling-stroke;        }    </style><defs joint-selector="defs"><marker id="v-21252848929" orient="auto" overflow="visible" markerUnits="userSpaceOnUse"><path id="v-105" stroke="#444444" fill="#444444" transform="rotate(180)" d="M 20 -10 0 0 20 10 Z"></path></marker></defs><g joint-selector="layers"  transform="matrix(1,0,0,1,0,0)"><g  style="pointer-events: none;"></g><g ></g><g  style="user-select: none;"><!--z-index:1--><!--z-index:2--><!--z-index:3--><!--z-index:4--><!--z-index:5--><!--z-index:6--><!--z-index:7--><!--z-index:8--><!--z-index:9--><!--z-index:10--><!--z-index:11--><!--z-index:12--><g   id="j_139"  transform="translate(20,1023)"><g id="v-1468"><text  id="v-1469" font-size="24px" xml:space="preserve" y="0.8em" font-weight="normal" text-anchor="start" fill="#444444" pointer-events="none" display="block" font-family="Tahoma, Verdana, Helvetica, Arial"><tspan dy="0" >Friday, June 5, 2026 at 3:49 PM Central European Summer Time</tspan></text></g></g><!--z-index:13--><g   id="j_138"  transform="translate(20,977)"><g id="v-1466"><text  id="v-1467" font-size="36px" xml:space="preserve" y="0.8em" font-weight="normal" text-anchor="start" fill="#444444" pointer-events="none" display="block" font-family="Tahoma, Verdana, Helvetica, Arial"><tspan dy="0" >C3 Component Diagram - log4j-jdbc-dbcp2</tspan></text></g></g><!--z-index:14--><g   id="j_140"  transform="translate(2769,397)" style=""><g  id="v-1473" style="opacity: 1;"><path  d="M 0,30 a 225,30 0,0,0 450 0 a 225,30 0,0,0 -450 0 l 0,240 a 225,30 0,0,0 450 0 l 0,-240" id="v-1474" stroke-width="2" pointer-events="visiblePainted" fill="#999999" stroke="#8a8a8a" stroke-dasharray="" style="fill: rgb(153, 153, 153); stroke: rgb(138, 138, 138);"></path><rect  id="v-1475" stroke-width="0" pointer-events="visiblePainted" fill="none" stroke="none" width="450" height="270" x="0" y="30"></rect><text  id="v-1476" font-size="33.599999999999994px" xml:space="preserve" y="116.30000000000001" font-weight="bold" text-anchor="middle" pointer-events="visible" font-family="Tahoma, Verdana, Helvetica, Arial" fill="#ffffff" dominant-baseline="hanging" transform="matrix(1,0,0,1,225,0)" style="fill: rgb(255, 255, 255);"><tspan dy="0" >JDBC Databases</tspan></text><text  id="v-1477" font-size="16.799999999999997px" xml:space="preserve" y="157.9" text-anchor="middle" font-family="Tahoma, Verdana, Helvetica, Arial" fill="#ffffff" dominant-baseline="hanging" transform="matrix(1,0,0,1,225,0)" style="display: block; fill: rgb(255, 255, 255);"><tspan dy="0" >[Software System]</tspan></text><text  id="v-1478" font-size="24px" xml:space="preserve" y="189.7" text-anchor="middle" font-family="Tahoma, Verdana, Helvetica, Arial" fill="#ffffff" dominant-baseline="hanging" transform="matrix(1,0,0,1,225,0)" style="display: block; fill: rgb(255, 255, 255);"><tspan dy="0" >Relational database destinations</tspan></text><g  id="v-1479" font-weight="normal" text-anchor="middle" color="#ffffff" transform="matrix(1,0,0,1,222.5,268)" display="none" style="fill: rgb(255, 255, 255);"><g ></g><g ></g><g ></g><g ></g></g><image  id="v-1480"></image></g></g><!--z-index:15--><g   id="j_142"  transform="translate(199,159)" style="; opacity: 1;"><g id="v-1491"><rect  id="v-1492" width="2230" height="667" rx="20" ry="20" stroke-width="2" pointer-events="none" stroke="#0f5eaa" fill="#ffffff" opacity="1" stroke-dasharray=""></rect><text  id="v-1493" font-size="33.599999999999994px" xml:space="preserve" y="628" font-weight="bold" text-anchor="start" pointer-events="visible" font-family="Tahoma, Verdana, Helvetica, Arial" fill="#0f5eaa" transform="matrix(1,0,0,1,15,0)"><tspan dy="0" >Apache Log4j2</tspan></text><text  id="v-1494" font-size="16.799999999999997px" xml:space="preserve" y="652" font-weight="normal" text-anchor="start" pointer-events="visible" font-family="Tahoma, Verdana, Helvetica, Arial" fill="#0f5eaa" transform="matrix(1,0,0,1,15,0)"><tspan dy="0" >[Software System]</tspan></text><image  id="v-1495" pointer-events="visible"></image></g></g><!--z-index:16--><g   id="j_141"  transform="translate(249,397)" style=""><g  id="v-1484" style="opacity: 1;"><rect  id="v-1485" rx="20" ry="20" stroke-width="2" pointer-events="visiblePainted" fill="#438dd5" stroke="#3c7fc0" stroke-dasharray="" width="450" height="300" style="fill: rgb(67, 141, 213); stroke: rgb(60, 127, 192);"></rect><text  id="v-1486" font-size="33.599999999999994px" xml:space="preserve" y="72.5" font-weight="bold" text-anchor="middle" pointer-events="visible" font-family="Tahoma, Verdana, Helvetica, Arial" fill="#ffffff" dominant-baseline="hanging" transform="matrix(1,0,0,1,225,0)" style="fill: rgb(255, 255, 255);"><tspan dy="0" >log4j-core</tspan></text><text  id="v-1487" font-size="16.799999999999997px" xml:space="preserve" y="114.1" text-anchor="middle" font-family="Tahoma, Verdana, Helvetica, Arial" fill="#ffffff" dominant-baseline="hanging" transform="matrix(1,0,0,1,225,0)" style="display: block; fill: rgb(255, 255, 255);"><tspan dy="0" >[Container: Java]</tspan></text><text  id="v-1488" font-size="24px" xml:space="preserve" y="145.89999999999998" text-anchor="middle" font-family="Tahoma, Verdana, Helvetica, Arial" fill="#ffffff" dominant-baseline="hanging" transform="matrix(1,0,0,1,225,0)" style="display: block; fill: rgb(255, 255, 255);"><tspan dy="0" >Logging implementation,</tspan><tspan dy="1.2em" x="0" >configuration, filters, appenders,</tspan><tspan dy="1.2em" x="0" >runtime pipeline</tspan></text><g  id="v-1489" color="#ffffff" transform="matrix(1,0,0,1,210,268)" display="none" style="fill: rgb(255, 255, 255);"><g  transform="translate(5 0)"><svg xmlns="http://www.w3.org/2000/svg" width="20" height="20" fill="currentColor" viewBox="0 0 16 16"><path fill-rule="evenodd" d="M6.5 12a5.5 5.5 0 1 0 0-11 5.5 5.5 0 0 0 0 11zM13 6.5a6.5 6.5 0 1 1-13 0 6.5 6.5 0 0 1 13 0z"></path><path d="M10.344 11.742c.03.04.062.078.098.115l3.85 3.85a1 1 0 0 0 1.415-1.414l-3.85-3.85a1.007 1.007 0 0 0-.115-.1 6.538 6.538 0 0 1-1.398 1.4z"></path><path fill-rule="evenodd" d="M6.5 3a.5.5 0 0 1 .5.5V6h2.5a.5.5 0 0 1 0 1H7v2.5a.5.5 0 0 1-1 0V7H3.5a.5.5 0 0 1 0-1H6V3.5a.5.5 0 0 1 .5-.5z"></path></svg></g><g ></g><g ></g><g ></g></g><image  id="v-1490"></image></g></g><!--z-index:17--><g   id="j_144"  transform="translate(1039,209)" style="; opacity: 1;"><g id="v-1512"><rect  id="v-1513" width="1340" height="479" rx="20" ry="20" stroke-width="2" pointer-events="none" stroke="#3c7fc0" fill="#ffffff" opacity="1" stroke-dasharray=""></rect><text  id="v-1514" font-size="33.599999999999994px" xml:space="preserve" y="440" font-weight="bold" text-anchor="start" pointer-events="visible" font-family="Tahoma, Verdana, Helvetica, Arial" fill="#3c7fc0" transform="matrix(1,0,0,1,15,0)"><tspan dy="0" >log4j-jdbc-dbcp2</tspan></text><text  id="v-1515" font-size="16.799999999999997px" xml:space="preserve" y="464" font-weight="normal" text-anchor="start" pointer-events="visible" font-family="Tahoma, Verdana, Helvetica, Arial" fill="#3c7fc0" transform="matrix(1,0,0,1,15,0)"><tspan dy="0" >[Container]</tspan></text><image  id="v-1516" pointer-events="visible"></image></g></g><!--z-index:18--><g   id="j_143"  transform="translate(1089,259)" style=""><g  id="v-1505" style="opacity: 1;"><rect  id="v-1506" rx="20" ry="20" stroke-width="2" pointer-events="visiblePainted" fill="#85bbf0" stroke="#78a8d8" stroke-dasharray="" width="450" height="300" style="fill: rgb(133, 187, 240); stroke: rgb(120, 168, 216);"></rect><text  id="v-1507" font-size="33.599999999999994px" xml:space="preserve" y="81.14000000000001" font-weight="bold" text-anchor="middle" pointer-events="visible" font-family="Tahoma, Verdana, Helvetica, Arial" fill="#000000" dominant-baseline="hanging" transform="matrix(1,0,0,1,225,0)" style="fill: rgb(0, 0, 0);"><tspan dy="0" >PoolingDriverConnectionS</tspan><tspan dy="1.2em" x="0" >ource</tspan></text><text  id="v-1508" font-size="16.799999999999997px" xml:space="preserve" y="163.06" text-anchor="middle" font-family="Tahoma, Verdana, Helvetica, Arial" fill="#000000" dominant-baseline="hanging" transform="matrix(1,0,0,1,225,0)" style="display: block; fill: rgb(0, 0, 0);"><tspan dy="0" >[Component: ConnectionSource SPI]</tspan></text><text  id="v-1509" font-size="24px" xml:space="preserve" y="194.86" text-anchor="middle" font-family="Tahoma, Verdana, Helvetica, Arial" fill="#000000" dominant-baseline="hanging" transform="matrix(1,0,0,1,225,0)" style="display: block; fill: rgb(0, 0, 0);"><tspan dy="0" >Provides pooled JDBC connections</tspan></text><g  id="v-1510" color="#000000" transform="matrix(1,0,0,1,222.5,268)" display="none" style="fill: rgb(0, 0, 0);"><g ></g><g ></g><g ></g><g ></g></g><image  id="v-1511"></image></g></g><!--z-index:19--><g   id="j_145"  transform="translate(1879,259)" style=""><g  id="v-1523" style="opacity: 1;"><rect  id="v-1524" rx="20" ry="20" stroke-width="2" pointer-events="visiblePainted" fill="#85bbf0" stroke="#78a8d8" stroke-dasharray="" width="450" height="300" style="fill: rgb(133, 187, 240); stroke: rgb(120, 168, 216);"></rect><text  id="v-1525" font-size="33.599999999999994px" xml:space="preserve" y="101.30000000000001" font-weight="bold" text-anchor="middle" pointer-events="visible" font-family="Tahoma, Verdana, Helvetica, Arial" fill="#000000" dominant-baseline="hanging" transform="matrix(1,0,0,1,225,0)" style="fill: rgb(0, 0, 0);"><tspan dy="0" >Commons DBCP Pool</tspan></text><text  id="v-1526" font-size="16.799999999999997px" xml:space="preserve" y="142.9" text-anchor="middle" font-family="Tahoma, Verdana, Helvetica, Arial" fill="#000000" dominant-baseline="hanging" transform="matrix(1,0,0,1,225,0)" style="display: block; fill: rgb(0, 0, 0);"><tspan dy="0" >[Component: Connection Pool]</tspan></text><text  id="v-1527" font-size="24px" xml:space="preserve" y="174.7" text-anchor="middle" font-family="Tahoma, Verdana, Helvetica, Arial" fill="#000000" dominant-baseline="hanging" transform="matrix(1,0,0,1,225,0)" style="display: block; fill: rgb(0, 0, 0);"><tspan dy="0" >Manages JDBC connection pooling</tspan></text><g  id="v-1528" color="#000000" transform="matrix(1,0,0,1,222.5,268)" display="none" style="fill: rgb(0, 0, 0);"><g ></g><g ></g><g ></g><g ></g></g><image  id="v-1529"></image></g></g><!--z-index:20--><g   id="j_146"  style="opacity: 1;"><path fill="none" cursor="pointer" stroke="transparent" stroke-linecap="round" joint-selector="wrapper" id="v-1541" stroke-width="10" stroke-linejoin="round" d="M 699 468.39 L 860 412 C 865.9999999999999 409.99999999999994 872.3333333333333 408.99999999999994 879 409 L 1089 409"></path><path fill="none" pointer-events="none" joint-selector="line" id="v-1540" stroke="#444444" stroke-width="2" stroke-linejoin="round" stroke-dasharray="8 8" d="M 699 468.39 L 860 412 C 865.9999999999999 409.99999999999994 872.3333333333333 408.99999999999994 879 409 L 1089 409" marker-end="url(#v-21252848929)"></path><g id="v-1533" ><g id="v-1534"  label-idx="0" cursor="move" transform="matrix(1,0,0,1,869.1387329101562,409.7676696777344)" style="cursor: default;"><rect joint-selector="rect" id="v-1537" fill="#ffffff" rx="3" ry="3" x="-90.9939193725586" y="-32.19999694824219" width="181.9878387451172" height="59.355552673339844" pointer-events="none"  style="display: block;"></rect><text joint-selector="text" id="v-1536" font-size="24px" xml:space="preserve" fill="#444444" text-anchor="middle" pointer-events="none" font-family="Tahoma, Verdana, Helvetica, Arial" font-weight="normal"  style="display: block;"><tspan dy="-0.3em" >requests JDBC</tspan><tspan dy="1.2em" x="0" >connections from</tspan></text></g><g id="v-1535"  label-idx="1" cursor="move" transform="matrix(1,0,0,1,859.1387329101562,436.1676940917969)" style="cursor: default;"><rect joint-selector="rect" id="v-1539" fill="#ffffff" rx="3" ry="3" x="0" y="0" width="0" height="0"  display="none"></rect><text joint-selector="text" id="v-1538" fill="#000000" font-size="14" text-anchor="middle" text-vertical-anchor="middle" pointer-events="none"></text></g></g></g><!--z-index:21--><g   id="j_147"  style="opacity: 1;"><path fill="none" cursor="pointer" stroke="transparent" stroke-linecap="round" joint-selector="wrapper" id="v-1553" stroke-width="10" stroke-linejoin="round" d="M 1539 409 L 1879 409"></path><path fill="none" pointer-events="none" joint-selector="line" id="v-1552" stroke="#444444" stroke-width="2" stroke-linejoin="round" stroke-dasharray="8 8" d="M 1539 409 L 1879 409" marker-end="url(#v-21252848929)"></path><g id="v-1545" ><g id="v-1546"  label-idx="0" cursor="move" transform="matrix(1,0,0,1,1709,409)" style="cursor: default;"><rect joint-selector="rect" id="v-1549" fill="#ffffff" rx="3" ry="3" x="-86.78385162353516" y="-32.19999694824219" width="173.5677032470703" height="59.355552673339844" pointer-events="none"  style="display: block;"></rect><text joint-selector="text" id="v-1548" font-size="24px" xml:space="preserve" fill="#444444" text-anchor="middle" pointer-events="none" font-family="Tahoma, Verdana, Helvetica, Arial" font-weight="normal"  style="display: block;"><tspan dy="-0.3em" >manages pooled</tspan><tspan dy="1.2em" x="0" >connections via</tspan></text></g><g id="v-1547"  label-idx="1" cursor="move" transform="matrix(1,0,0,1,1699,435.3999938964844)" style="cursor: default;"><rect joint-selector="rect" id="v-1551" fill="#ffffff" rx="3" ry="3" x="0" y="0" width="0" height="0"  display="none"></rect><text joint-selector="text" id="v-1550" fill="#000000" font-size="14" text-anchor="middle" text-vertical-anchor="middle" pointer-events="none"></text></g></g></g><!--z-index:22--><g   id="j_148"  style="opacity: 1;"><path fill="none" cursor="pointer" stroke="transparent" stroke-linecap="round" joint-selector="wrapper" id="v-1565" stroke-width="10" stroke-linejoin="round" d="M 2329 409 L 2589 409 C 2595.6666666666665 408.99999999999994 2602 409.99999999999994 2608 412 L 2769 468.39"></path><path fill="none" pointer-events="none" joint-selector="line" id="v-1564" stroke="#444444" stroke-width="2" stroke-linejoin="round" stroke-dasharray="8 8" d="M 2329 409 L 2589 409 C 2595.6666666666665 408.99999999999994 2602 409.99999999999994 2608 412 L 2769 468.39" marker-end="url(#v-21252848929)"></path><g id="v-1557" ><g id="v-1558"  label-idx="0" cursor="move" transform="matrix(1,0,0,1,2598.82421875,409.76177978515625)" style="cursor: default;"><rect joint-selector="rect" id="v-1561" fill="#ffffff" rx="3" ry="3" x="-76.88801574707031" y="-32.19999694824219" width="153.77603149414062" height="59.355552673339844" pointer-events="none"  style="display: block;"></rect><text joint-selector="text" id="v-1560" font-size="24px" xml:space="preserve" fill="#444444" text-anchor="middle" pointer-events="none" font-family="Tahoma, Verdana, Helvetica, Arial" font-weight="normal"  style="display: block;"><tspan dy="-0.3em" >opens JDBC</tspan><tspan dy="1.2em" x="0" >connections to</tspan></text></g><g id="v-1559"  label-idx="1" cursor="move" transform="matrix(1,0,0,1,2588.82421875,436.1617736816406)" style="cursor: default;"><rect joint-selector="rect" id="v-1563" fill="#ffffff" rx="3" ry="3" x="-4.547473508864641e-13" y="0" width="0" height="0"  display="none"></rect><text joint-selector="text" id="v-1562" fill="#000000" font-size="14" text-anchor="middle" text-vertical-anchor="middle" pointer-events="none"></text></g></g></g><!--z-index:23--><g   id="j_149"  style="opacity: 1;"><path fill="none" cursor="pointer" stroke="transparent" stroke-linecap="round" joint-selector="wrapper" id="v-1577" stroke-width="10" stroke-linejoin="round" d="M 699 625.84 L 860 682 C 865.9999999999999 684.2666666666665 872.3333333333333 685.2666666666665 879 685 L 2589 685 C 2595.6666666666665 685.2666666666665 2602 684.2666666666665 2608 682 L 2769 625.84"></path><path fill="none" pointer-events="none" joint-selector="line" id="v-1576" stroke="#444444" stroke-width="2" stroke-linejoin="round" stroke-dasharray="8 8" d="M 699 625.84 L 860 682 C 865.9999999999999 684.2666666666665 872.3333333333333 685.2666666666665 879 685 L 2589 685 C 2595.6666666666665 685.2666666666665 2602 684.2666666666665 2608 682 L 2769 625.84" marker-end="url(#v-21252848929)"></path><g id="v-1569" ><g id="v-1570"  label-idx="0" cursor="move" transform="matrix(1,0,0,1,1709.00537109375,685)" style="cursor: default;"><rect joint-selector="rect" id="v-1573" fill="#ffffff" rx="3" ry="3" x="-89.6484375" y="-32.19999694824219" width="179.296875" height="59.355552673339844" pointer-events="none"  style="display: block;"></rect><text joint-selector="text" id="v-1572" font-size="24px" xml:space="preserve" fill="#444444" text-anchor="middle" pointer-events="none" font-family="Tahoma, Verdana, Helvetica, Arial" font-weight="normal"  style="display: block;"><tspan dy="-0.3em" >writes log events</tspan><tspan dy="1.2em" x="0" >to</tspan></text></g><g id="v-1571"  label-idx="1" cursor="move" transform="matrix(1,0,0,1,1699.00537109375,711.4000244140625)" style="cursor: default;"><rect joint-selector="rect" id="v-1575" fill="#ffffff" rx="3" ry="3" x="0" y="0" width="0" height="0"  display="none"></rect><text joint-selector="text" id="v-1574" fill="#000000" font-size="14" text-anchor="middle" text-vertical-anchor="middle" pointer-events="none"></text></g></g></g><!--z-index:24--><!--z-index:25--><!--z-index:26--><!--z-index:27--><!--z-index:28--><!--z-index:29--><!--z-index:30--><!--z-index:31--><!--z-index:32--><!--z-index:33--><!--z-index:34--><!--z-index:35--><!--z-index:36--><!--z-index:37--><!--z-index:38--><!--z-index:39--><!--z-index:40--><!--z-index:41--><!--z-index:42--><!--z-index:43--><!--z-index:44--><!--z-index:45--><!--z-index:46--><!--z-index:47--><!--z-index:48--><!--z-index:49--><!--z-index:50--><!--z-index:51--><!--z-index:52--><!--z-index:53--><!--z-index:54--><!--z-index:55--><!--z-index:56--><!--z-index:57--><!--z-index:58--><!--z-index:59--><!--z-index:60--><!--z-index:61--><!--z-index:62--><!--z-index:63--><!--z-index:64--><!--z-index:65--><!--z-index:66--><!--z-index:67--><!--z-index:68--><!--z-index:69--><!--z-index:70--><!--z-index:71--><!--z-index:72--><!--z-index:73--><!--z-index:74--><!--z-index:75--><!--z-index:76--></g><g  style="user-select: none;"></g><g ></g><g  display="none"></g></g></svg>