<svg xmlns="http://www.w3.org/2000/svg" xmlns:xlink="http://www.w3.org/1999/xlink" version="1.1" width="5000" height="2379" style="width: 5000px; height: 2379px; background: #ffffff" viewBox="0 0 5000 2379"><style id="v-3" type="text/css">        .joint-element .scalable * {            vector-effect: non-scaling-stroke;        }    </style><defs joint-selector="defs"><marker id="v-21252848929" orient="auto" overflow="visible" markerUnits="userSpaceOnUse"><path id="v-105" stroke="#444444" fill="#444444" transform="rotate(180)" d="M 20 -10 0 0 20 10 Z"></path></marker></defs><g joint-selector="layers"  transform="matrix(1,0,0,1,0,0)"><g  style="pointer-events: none;"></g><g ></g><g  style="user-select: none;"><!--z-index:1--><!--z-index:2--><!--z-index:3--><!--z-index:4--><!--z-index:5--><!--z-index:6--><!--z-index:7--><!--z-index:8--><!--z-index:9--><!--z-index:10--><!--z-index:11--><!--z-index:12--><!--z-index:13--><!--z-index:14--><!--z-index:15--><!--z-index:16--><!--z-index:17--><!--z-index:18--><!--z-index:19--><!--z-index:20--><!--z-index:21--><!--z-index:22--><!--z-index:23--><!--z-index:24--><!--z-index:25--><!--z-index:26--><!--z-index:27--><g   id="j_74"  transform="translate(20,2335)"><g id="v-772"><text  id="v-773" font-size="24px" xml:space="preserve" y="0.8em" font-weight="normal" text-anchor="start" fill="#444444" pointer-events="none" display="block" font-family="Tahoma, Verdana, Helvetica, Arial"><tspan dy="0" >Monday, June 8, 2026 at 5:46 PM Central European Summer Time</tspan></text></g></g><!--z-index:28--><g   id="j_73"  transform="translate(20,2289)"><g id="v-770"><text  id="v-771" font-size="36px" xml:space="preserve" y="0.8em" font-weight="normal" text-anchor="start" fill="#444444" pointer-events="none" display="block" font-family="Tahoma, Verdana, Helvetica, Arial"><tspan dy="0" >C3 Component Diagram - log4j-api</tspan></text></g></g><!--z-index:29--><g   id="j_75"  transform="translate(249,159)" style=""><g  id="v-780" style="opacity: 1;"><rect  id="v-781" rx="20" ry="20" stroke-width="2" pointer-events="visiblePainted" fill="#999999" stroke="#8a8a8a" stroke-dasharray="" width="450" height="300" style="fill: rgb(153, 153, 153); stroke: rgb(138, 138, 138);"></rect><text  id="v-782" font-size="33.599999999999994px" xml:space="preserve" y="101.30000000000001" font-weight="bold" text-anchor="middle" pointer-events="visible" font-family="Tahoma, Verdana, Helvetica, Arial" fill="#ffffff" dominant-baseline="hanging" transform="matrix(1,0,0,1,225,0)" style="fill: rgb(255, 255, 255);"><tspan dy="0" >Applications / Libraries</tspan></text><text  id="v-783" font-size="16.799999999999997px" xml:space="preserve" y="142.9" text-anchor="middle" font-family="Tahoma, Verdana, Helvetica, Arial" fill="#ffffff" dominant-baseline="hanging" transform="matrix(1,0,0,1,225,0)" style="display: block; fill: rgb(255, 255, 255);"><tspan dy="0" >[Software System]</tspan></text><text  id="v-784" font-size="24px" xml:space="preserve" y="174.7" text-anchor="middle" font-family="Tahoma, Verdana, Helvetica, Arial" fill="#ffffff" dominant-baseline="hanging" transform="matrix(1,0,0,1,225,0)" style="display: block; fill: rgb(255, 255, 255);"><tspan dy="0" >Java applications that emit log calls</tspan></text><g  id="v-785" color="#ffffff" transform="matrix(1,0,0,1,222.5,268)" display="none" style="fill: rgb(255, 255, 255);"><g ></g><g ></g><g ></g><g ></g></g><image  id="v-786"></image></g></g><!--z-index:30--><g   id="j_78"  transform="translate(199,509)" style="; opacity: 1;"><g id="v-802"><rect  id="v-803" width="4600" height="1629" rx="20" ry="20" stroke-width="2" pointer-events="none" stroke="#0f5eaa" fill="#ffffff" opacity="1" stroke-dasharray=""></rect><text  id="v-804" font-size="33.599999999999994px" xml:space="preserve" y="1590" font-weight="bold" text-anchor="start" pointer-events="visible" font-family="Tahoma, Verdana, Helvetica, Arial" fill="#0f5eaa" transform="matrix(1,0,0,1,15,0)"><tspan dy="0" >Apache Log4j2</tspan></text><text  id="v-805" font-size="16.799999999999997px" xml:space="preserve" y="1614" font-weight="normal" text-anchor="start" pointer-events="visible" font-family="Tahoma, Verdana, Helvetica, Arial" fill="#0f5eaa" transform="matrix(1,0,0,1,15,0)"><tspan dy="0" >[Software System]</tspan></text><image  id="v-806" pointer-events="visible"></image></g></g><!--z-index:31--><g   id="j_77"  transform="translate(1039,559)" style="; opacity: 1;"><g id="v-797"><rect  id="v-798" width="3710" height="1179" rx="20" ry="20" stroke-width="2" pointer-events="none" stroke="#3c7fc0" fill="#ffffff" opacity="1" stroke-dasharray=""></rect><text  id="v-799" font-size="33.599999999999994px" xml:space="preserve" y="1140" font-weight="bold" text-anchor="start" pointer-events="visible" font-family="Tahoma, Verdana, Helvetica, Arial" fill="#3c7fc0" transform="matrix(1,0,0,1,15,0)"><tspan dy="0" >log4j-api</tspan></text><text  id="v-800" font-size="16.799999999999997px" xml:space="preserve" y="1164" font-weight="normal" text-anchor="start" pointer-events="visible" font-family="Tahoma, Verdana, Helvetica, Arial" fill="#3c7fc0" transform="matrix(1,0,0,1,15,0)"><tspan dy="0" >[Container]</tspan></text><image  id="v-801" pointer-events="visible"></image></g></g><!--z-index:32--><g   id="j_87"  transform="translate(1879,1709)" style=""><g  id="v-893" style="opacity: 1;"><rect  id="v-894" rx="20" ry="20" stroke-width="2" pointer-events="visiblePainted" fill="#438dd5" stroke="#3c7fc0" stroke-dasharray="" width="450" height="300" style="fill: rgb(67, 141, 213); stroke: rgb(60, 127, 192);"></rect><text  id="v-895" font-size="33.599999999999994px" xml:space="preserve" y="72.5" font-weight="bold" text-anchor="middle" pointer-events="visible" font-family="Tahoma, Verdana, Helvetica, Arial" fill="#ffffff" dominant-baseline="hanging" transform="matrix(1,0,0,1,225,0)" style="fill: rgb(255, 255, 255);"><tspan dy="0" >log4j-core</tspan></text><text  id="v-896" font-size="16.799999999999997px" xml:space="preserve" y="114.1" text-anchor="middle" font-family="Tahoma, Verdana, Helvetica, Arial" fill="#ffffff" dominant-baseline="hanging" transform="matrix(1,0,0,1,225,0)" style="display: block; fill: rgb(255, 255, 255);"><tspan dy="0" >[Container: Java]</tspan></text><text  id="v-897" font-size="24px" xml:space="preserve" y="145.89999999999998" text-anchor="middle" font-family="Tahoma, Verdana, Helvetica, Arial" fill="#ffffff" dominant-baseline="hanging" transform="matrix(1,0,0,1,225,0)" style="display: block; fill: rgb(255, 255, 255);"><tspan dy="0" >Logging implementation,</tspan><tspan dy="1.2em" x="0" >configuration, filters, appenders,</tspan><tspan dy="1.2em" x="0" >runtime pipeline</tspan></text><g  id="v-898" color="#ffffff" transform="matrix(1,0,0,1,210,268)" display="none" style="fill: rgb(255, 255, 255);"><g  transform="translate(5 0)"><svg xmlns="http://www.w3.org/2000/svg" width="20" height="20" fill="currentColor" viewBox="0 0 16 16"><path fill-rule="evenodd" d="M6.5 12a5.5 5.5 0 1 0 0-11 5.5 5.5 0 0 0 0 11zM13 6.5a6.5 6.5 0 1 1-13 0 6.5 6.5 0 0 1 13 0z"></path><path d="M10.344 11.742c.03.04.062.078.098.115l3.85 3.85a1 1 0 0 0 1.415-1.414l-3.85-3.85a1.007 1.007 0 0 0-.115-.1 6.538 6.538 0 0 1-1.398 1.4z"></path><path fill-rule="evenodd" d="M6.5 3a.5.5 0 0 1 .5.5V6h2.5a.5.5 0 0 1 0 1H7v2.5a.5.5 0 0 1-1 0V7H3.5a.5.5 0 0 1 0-1H6V3.5a.5.5 0 0 1 .5-.5z"></path></svg></g><g ></g><g ></g><g ></g></g><image  id="v-899"></image></g></g><!--z-index:33--><g   id="j_88"  transform="translate(249,1384)" style=""><g  id="v-906" style="opacity: 1;"><rect  id="v-907" rx="20" ry="20" stroke-width="2" pointer-events="visiblePainted" fill="#438dd5" stroke="#3c7fc0" stroke-dasharray="" width="450" height="300" style="fill: rgb(67, 141, 213); stroke: rgb(60, 127, 192);"></rect><text  id="v-908" font-size="33.599999999999994px" xml:space="preserve" y="86.9" font-weight="bold" text-anchor="middle" pointer-events="visible" font-family="Tahoma, Verdana, Helvetica, Arial" fill="#ffffff" dominant-baseline="hanging" transform="matrix(1,0,0,1,225,0)" style="fill: rgb(255, 255, 255);"><tspan dy="0" >log4j-slf4j2-impl</tspan></text><text  id="v-909" font-size="16.799999999999997px" xml:space="preserve" y="128.5" text-anchor="middle" font-family="Tahoma, Verdana, Helvetica, Arial" fill="#ffffff" dominant-baseline="hanging" transform="matrix(1,0,0,1,225,0)" style="display: block; fill: rgb(255, 255, 255);"><tspan dy="0" >[Container: Java]</tspan></text><text  id="v-910" font-size="24px" xml:space="preserve" y="160.3" text-anchor="middle" font-family="Tahoma, Verdana, Helvetica, Arial" fill="#ffffff" dominant-baseline="hanging" transform="matrix(1,0,0,1,225,0)" style="display: block; fill: rgb(255, 255, 255);"><tspan dy="0" >Adapter bridging SLF4J 2 calls to</tspan><tspan dy="1.2em" x="0" >Log4j2 API</tspan></text><g  id="v-911" color="#ffffff" transform="matrix(1,0,0,1,210,268)" display="none" style="fill: rgb(255, 255, 255);"><g  transform="translate(5 0)"><svg xmlns="http://www.w3.org/2000/svg" width="20" height="20" fill="currentColor" viewBox="0 0 16 16"><path fill-rule="evenodd" d="M6.5 12a5.5 5.5 0 1 0 0-11 5.5 5.5 0 0 0 0 11zM13 6.5a6.5 6.5 0 1 1-13 0 6.5 6.5 0 0 1 13 0z"></path><path d="M10.344 11.742c.03.04.062.078.098.115l3.85 3.85a1 1 0 0 0 1.415-1.414l-3.85-3.85a1.007 1.007 0 0 0-.115-.1 6.538 6.538 0 0 1-1.398 1.4z"></path><path fill-rule="evenodd" d="M6.5 3a.5.5 0 0 1 .5.5V6h2.5a.5.5 0 0 1 0 1H7v2.5a.5.5 0 0 1-1 0V7H3.5a.5.5 0 0 1 0-1H6V3.5a.5.5 0 0 1 .5-.5z"></path></svg></g><g ></g><g ></g><g ></g></g><image  id="v-912"></image></g></g><!--z-index:34--><g   id="j_76"  transform="translate(1879,609)" style=""><g  id="v-790" style="opacity: 1;"><rect  id="v-791" rx="20" ry="20" stroke-width="2" pointer-events="visiblePainted" fill="#85bbf0" stroke="#78a8d8" stroke-dasharray="" width="450" height="300" style="fill: rgb(133, 187, 240); stroke: rgb(120, 168, 216);"></rect><text  id="v-792" font-size="33.599999999999994px" xml:space="preserve" y="101.30000000000001" font-weight="bold" text-anchor="middle" pointer-events="visible" font-family="Tahoma, Verdana, Helvetica, Arial" fill="#000000" dominant-baseline="hanging" transform="matrix(1,0,0,1,225,0)" style="fill: rgb(0, 0, 0);"><tspan dy="0" >StatusLogger</tspan></text><text  id="v-793" font-size="16.799999999999997px" xml:space="preserve" y="142.9" text-anchor="middle" font-family="Tahoma, Verdana, Helvetica, Arial" fill="#000000" dominant-baseline="hanging" transform="matrix(1,0,0,1,225,0)" style="display: block; fill: rgb(0, 0, 0);"><tspan dy="0" >[Component]</tspan></text><text  id="v-794" font-size="24px" xml:space="preserve" y="174.7" text-anchor="middle" font-family="Tahoma, Verdana, Helvetica, Arial" fill="#000000" dominant-baseline="hanging" transform="matrix(1,0,0,1,225,0)" style="display: block; fill: rgb(0, 0, 0);"><tspan dy="0" >Internal status diagnostics</tspan></text><g  id="v-795" color="#000000" transform="matrix(1,0,0,1,222.5,268)" display="none" style="fill: rgb(0, 0, 0);"><g ></g><g ></g><g ></g><g ></g></g><image  id="v-796"></image></g></g><!--z-index:35--><g   id="j_79"  transform="translate(1879,959)" style=""><g  id="v-813" style="opacity: 1;"><rect  id="v-814" rx="20" ry="20" stroke-width="2" pointer-events="visiblePainted" fill="#85bbf0" stroke="#78a8d8" stroke-dasharray="" width="450" height="300" style="fill: rgb(133, 187, 240); stroke: rgb(120, 168, 216);"></rect><text  id="v-815" font-size="33.599999999999994px" xml:space="preserve" y="101.30000000000001" font-weight="bold" text-anchor="middle" pointer-events="visible" font-family="Tahoma, Verdana, Helvetica, Arial" fill="#000000" dominant-baseline="hanging" transform="matrix(1,0,0,1,225,0)" style="fill: rgb(0, 0, 0);"><tspan dy="0" >LoggerFactory / Provider</tspan></text><text  id="v-816" font-size="16.799999999999997px" xml:space="preserve" y="142.9" text-anchor="middle" font-family="Tahoma, Verdana, Helvetica, Arial" fill="#000000" dominant-baseline="hanging" transform="matrix(1,0,0,1,225,0)" style="display: block; fill: rgb(0, 0, 0);"><tspan dy="0" >[Component]</tspan></text><text  id="v-817" font-size="24px" xml:space="preserve" y="174.7" text-anchor="middle" font-family="Tahoma, Verdana, Helvetica, Arial" fill="#000000" dominant-baseline="hanging" transform="matrix(1,0,0,1,225,0)" style="display: block; fill: rgb(0, 0, 0);"><tspan dy="0" >Provider discovery mechanism</tspan></text><g  id="v-818" color="#000000" transform="matrix(1,0,0,1,222.5,268)" display="none" style="fill: rgb(0, 0, 0);"><g ></g><g ></g><g ></g><g ></g></g><image  id="v-819"></image></g></g><!--z-index:36--><g   id="j_80"  transform="translate(2669,959)" style=""><g  id="v-823" style="opacity: 1;"><rect  id="v-824" rx="20" ry="20" stroke-width="2" pointer-events="visiblePainted" fill="#85bbf0" stroke="#78a8d8" stroke-dasharray="" width="450" height="300" style="fill: rgb(133, 187, 240); stroke: rgb(120, 168, 216);"></rect><text  id="v-825" font-size="33.599999999999994px" xml:space="preserve" y="101.30000000000001" font-weight="bold" text-anchor="middle" pointer-events="visible" font-family="Tahoma, Verdana, Helvetica, Arial" fill="#000000" dominant-baseline="hanging" transform="matrix(1,0,0,1,225,0)" style="fill: rgb(0, 0, 0);"><tspan dy="0" >Logger API</tspan></text><text  id="v-826" font-size="16.799999999999997px" xml:space="preserve" y="142.9" text-anchor="middle" font-family="Tahoma, Verdana, Helvetica, Arial" fill="#000000" dominant-baseline="hanging" transform="matrix(1,0,0,1,225,0)" style="display: block; fill: rgb(0, 0, 0);"><tspan dy="0" >[Component]</tspan></text><text  id="v-827" font-size="24px" xml:space="preserve" y="174.7" text-anchor="middle" font-family="Tahoma, Verdana, Helvetica, Arial" fill="#000000" dominant-baseline="hanging" transform="matrix(1,0,0,1,225,0)" style="display: block; fill: rgb(0, 0, 0);"><tspan dy="0" >Public logging interface</tspan></text><g  id="v-828" color="#000000" transform="matrix(1,0,0,1,222.5,268)" display="none" style="fill: rgb(0, 0, 0);"><g ></g><g ></g><g ></g><g ></g></g><image  id="v-829"></image></g></g><!--z-index:37--><g   id="j_81"  transform="translate(3459,609)" style=""><g  id="v-833" style="opacity: 1;"><rect  id="v-834" rx="20" ry="20" stroke-width="2" pointer-events="visiblePainted" fill="#85bbf0" stroke="#78a8d8" stroke-dasharray="" width="450" height="300" style="fill: rgb(133, 187, 240); stroke: rgb(120, 168, 216);"></rect><text  id="v-835" font-size="33.599999999999994px" xml:space="preserve" y="101.30000000000001" font-weight="bold" text-anchor="middle" pointer-events="visible" font-family="Tahoma, Verdana, Helvetica, Arial" fill="#000000" dominant-baseline="hanging" transform="matrix(1,0,0,1,225,0)" style="fill: rgb(0, 0, 0);"><tspan dy="0" >LogEvent Contract</tspan></text><text  id="v-836" font-size="16.799999999999997px" xml:space="preserve" y="142.9" text-anchor="middle" font-family="Tahoma, Verdana, Helvetica, Arial" fill="#000000" dominant-baseline="hanging" transform="matrix(1,0,0,1,225,0)" style="display: block; fill: rgb(0, 0, 0);"><tspan dy="0" >[Component]</tspan></text><text  id="v-837" font-size="24px" xml:space="preserve" y="174.7" text-anchor="middle" font-family="Tahoma, Verdana, Helvetica, Arial" fill="#000000" dominant-baseline="hanging" transform="matrix(1,0,0,1,225,0)" style="display: block; fill: rgb(0, 0, 0);"><tspan dy="0" >Log event abstraction</tspan></text><g  id="v-838" color="#000000" transform="matrix(1,0,0,1,222.5,268)" display="none" style="fill: rgb(0, 0, 0);"><g ></g><g ></g><g ></g><g ></g></g><image  id="v-839"></image></g></g><!--z-index:38--><g   id="j_82"  transform="translate(1089,893)" style=""><g  id="v-843" style="opacity: 1;"><rect  id="v-844" rx="20" ry="20" stroke-width="2" pointer-events="visiblePainted" fill="#85bbf0" stroke="#78a8d8" stroke-dasharray="" width="450" height="300" style="fill: rgb(133, 187, 240); stroke: rgb(120, 168, 216);"></rect><text  id="v-845" font-size="33.599999999999994px" xml:space="preserve" y="101.30000000000001" font-weight="bold" text-anchor="middle" pointer-events="visible" font-family="Tahoma, Verdana, Helvetica, Arial" fill="#000000" dominant-baseline="hanging" transform="matrix(1,0,0,1,225,0)" style="fill: rgb(0, 0, 0);"><tspan dy="0" >LogManager</tspan></text><text  id="v-846" font-size="16.799999999999997px" xml:space="preserve" y="142.9" text-anchor="middle" font-family="Tahoma, Verdana, Helvetica, Arial" fill="#000000" dominant-baseline="hanging" transform="matrix(1,0,0,1,225,0)" style="display: block; fill: rgb(0, 0, 0);"><tspan dy="0" >[Component]</tspan></text><text  id="v-847" font-size="24px" xml:space="preserve" y="174.7" text-anchor="middle" font-family="Tahoma, Verdana, Helvetica, Arial" fill="#000000" dominant-baseline="hanging" transform="matrix(1,0,0,1,225,0)" style="display: block; fill: rgb(0, 0, 0);"><tspan dy="0" >Logger creation and lookup</tspan></text><g  id="v-848" color="#000000" transform="matrix(1,0,0,1,222.5,268)" display="none" style="fill: rgb(0, 0, 0);"><g ></g><g ></g><g ></g><g ></g></g><image  id="v-849"></image></g></g><!--z-index:39--><g   id="j_83"  transform="translate(3459,959)" style=""><g  id="v-853" style="opacity: 1;"><rect  id="v-854" rx="20" ry="20" stroke-width="2" pointer-events="visiblePainted" fill="#85bbf0" stroke="#78a8d8" stroke-dasharray="" width="450" height="300" style="fill: rgb(133, 187, 240); stroke: rgb(120, 168, 216);"></rect><text  id="v-855" font-size="33.599999999999994px" xml:space="preserve" y="101.30000000000001" font-weight="bold" text-anchor="middle" pointer-events="visible" font-family="Tahoma, Verdana, Helvetica, Arial" fill="#000000" dominant-baseline="hanging" transform="matrix(1,0,0,1,225,0)" style="fill: rgb(0, 0, 0);"><tspan dy="0" >ExtendedLogger</tspan></text><text  id="v-856" font-size="16.799999999999997px" xml:space="preserve" y="142.9" text-anchor="middle" font-family="Tahoma, Verdana, Helvetica, Arial" fill="#000000" dominant-baseline="hanging" transform="matrix(1,0,0,1,225,0)" style="display: block; fill: rgb(0, 0, 0);"><tspan dy="0" >[Component]</tspan></text><text  id="v-857" font-size="24px" xml:space="preserve" y="174.7" text-anchor="middle" font-family="Tahoma, Verdana, Helvetica, Arial" fill="#000000" dominant-baseline="hanging" transform="matrix(1,0,0,1,225,0)" style="display: block; fill: rgb(0, 0, 0);"><tspan dy="0" >Extended logging operations</tspan></text><g  id="v-858" color="#000000" transform="matrix(1,0,0,1,222.5,268)" display="none" style="fill: rgb(0, 0, 0);"><g ></g><g ></g><g ></g><g ></g></g><image  id="v-859"></image></g></g><!--z-index:40--><g   id="j_84"  transform="translate(3459,1309)" style=""><g  id="v-863" style="opacity: 1;"><rect  id="v-864" rx="20" ry="20" stroke-width="2" pointer-events="visiblePainted" fill="#85bbf0" stroke="#78a8d8" stroke-dasharray="" width="450" height="300" style="fill: rgb(133, 187, 240); stroke: rgb(120, 168, 216);"></rect><text  id="v-865" font-size="33.599999999999994px" xml:space="preserve" y="101.30000000000001" font-weight="bold" text-anchor="middle" pointer-events="visible" font-family="Tahoma, Verdana, Helvetica, Arial" fill="#000000" dominant-baseline="hanging" transform="matrix(1,0,0,1,225,0)" style="fill: rgb(0, 0, 0);"><tspan dy="0" >MessageFactory</tspan></text><text  id="v-866" font-size="16.799999999999997px" xml:space="preserve" y="142.9" text-anchor="middle" font-family="Tahoma, Verdana, Helvetica, Arial" fill="#000000" dominant-baseline="hanging" transform="matrix(1,0,0,1,225,0)" style="display: block; fill: rgb(0, 0, 0);"><tspan dy="0" >[Component]</tspan></text><text  id="v-867" font-size="24px" xml:space="preserve" y="174.7" text-anchor="middle" font-family="Tahoma, Verdana, Helvetica, Arial" fill="#000000" dominant-baseline="hanging" transform="matrix(1,0,0,1,225,0)" style="display: block; fill: rgb(0, 0, 0);"><tspan dy="0" >Structured message creation</tspan></text><g  id="v-868" color="#000000" transform="matrix(1,0,0,1,222.5,268)" display="none" style="fill: rgb(0, 0, 0);"><g ></g><g ></g><g ></g><g ></g></g><image  id="v-869"></image></g></g><!--z-index:41--><g   id="j_85"  transform="translate(4249,1309)" style=""><g  id="v-873" style="opacity: 1;"><rect  id="v-874" rx="20" ry="20" stroke-width="2" pointer-events="visiblePainted" fill="#85bbf0" stroke="#78a8d8" stroke-dasharray="" width="450" height="300" style="fill: rgb(133, 187, 240); stroke: rgb(120, 168, 216);"></rect><text  id="v-875" font-size="33.599999999999994px" xml:space="preserve" y="101.30000000000001" font-weight="bold" text-anchor="middle" pointer-events="visible" font-family="Tahoma, Verdana, Helvetica, Arial" fill="#000000" dominant-baseline="hanging" transform="matrix(1,0,0,1,225,0)" style="fill: rgb(0, 0, 0);"><tspan dy="0" >Message</tspan></text><text  id="v-876" font-size="16.799999999999997px" xml:space="preserve" y="142.9" text-anchor="middle" font-family="Tahoma, Verdana, Helvetica, Arial" fill="#000000" dominant-baseline="hanging" transform="matrix(1,0,0,1,225,0)" style="display: block; fill: rgb(0, 0, 0);"><tspan dy="0" >[Component]</tspan></text><text  id="v-877" font-size="24px" xml:space="preserve" y="174.7" text-anchor="middle" font-family="Tahoma, Verdana, Helvetica, Arial" fill="#000000" dominant-baseline="hanging" transform="matrix(1,0,0,1,225,0)" style="display: block; fill: rgb(0, 0, 0);"><tspan dy="0" >Log message abstraction</tspan></text><g  id="v-878" color="#000000" transform="matrix(1,0,0,1,222.5,268)" display="none" style="fill: rgb(0, 0, 0);"><g ></g><g ></g><g ></g><g ></g></g><image  id="v-879"></image></g></g><!--z-index:42--><g   id="j_86"  transform="translate(1879,1309)" style=""><g  id="v-883" style="opacity: 1;"><rect  id="v-884" rx="20" ry="20" stroke-width="2" pointer-events="visiblePainted" fill="#85bbf0" stroke="#78a8d8" stroke-dasharray="" width="450" height="300" style="fill: rgb(133, 187, 240); stroke: rgb(120, 168, 216);"></rect><text  id="v-885" font-size="33.599999999999994px" xml:space="preserve" y="101.30000000000001" font-weight="bold" text-anchor="middle" pointer-events="visible" font-family="Tahoma, Verdana, Helvetica, Arial" fill="#000000" dominant-baseline="hanging" transform="matrix(1,0,0,1,225,0)" style="fill: rgb(0, 0, 0);"><tspan dy="0" >SimpleLogger</tspan></text><text  id="v-886" font-size="16.799999999999997px" xml:space="preserve" y="142.9" text-anchor="middle" font-family="Tahoma, Verdana, Helvetica, Arial" fill="#000000" dominant-baseline="hanging" transform="matrix(1,0,0,1,225,0)" style="display: block; fill: rgb(0, 0, 0);"><tspan dy="0" >[Component]</tspan></text><text  id="v-887" font-size="24px" xml:space="preserve" y="174.7" text-anchor="middle" font-family="Tahoma, Verdana, Helvetica, Arial" fill="#000000" dominant-baseline="hanging" transform="matrix(1,0,0,1,225,0)" style="display: block; fill: rgb(0, 0, 0);"><tspan dy="0" >Fallback logging implementation</tspan></text><g  id="v-888" color="#000000" transform="matrix(1,0,0,1,222.5,268)" display="none" style="fill: rgb(0, 0, 0);"><g ></g><g ></g><g ></g><g ></g></g><image  id="v-889"></image></g></g><!--z-index:43--><g   id="j_89"  style="opacity: 1;"><path fill="none" cursor="pointer" stroke="transparent" stroke-linecap="round" joint-selector="wrapper" id="v-924" stroke-width="10" stroke-linejoin="round" d="M 622.13 459 L 862 702 C 866.6666666666665 706.6666666666666 872.3333333333333 709 879 709 L 1029 709 C 1035.6666666666665 709 1041 711.6666666666666 1045 717 L 1190.5 893"></path><path fill="none" pointer-events="none" joint-selector="line" id="v-923" stroke="#444444" stroke-width="2" stroke-linejoin="round" stroke-dasharray="8 8" d="M 622.13 459 L 862 702 C 866.6666666666665 706.6666666666666 872.3333333333333 709 879 709 L 1029 709 C 1035.6666666666665 709 1041 711.6666666666666 1045 717 L 1190.5 893" marker-end="url(#v-21252848929)"></path><g id="v-916" ><g id="v-917"  label-idx="0" cursor="move" transform="matrix(1,0,0,1,869.0905151367188,706.9658813476562)" style="cursor: default;"><rect joint-selector="rect" id="v-920" fill="#ffffff" rx="3" ry="3" x="-81.87933349609375" y="-32.19999694824219" width="163.7586669921875" height="59.355552673339844" pointer-events="none"  style="display: block;"></rect><text joint-selector="text" id="v-919" font-size="24px" xml:space="preserve" fill="#444444" text-anchor="middle" pointer-events="none" font-family="Tahoma, Verdana, Helvetica, Arial" font-weight="normal"  style="display: block;"><tspan dy="-0.3em" >requests logger</tspan><tspan dy="1.2em" x="0" >via</tspan></text></g><g id="v-918"  label-idx="1" cursor="move" transform="matrix(1,0,0,1,859.0905151367188,733.3659057617188)" style="cursor: default;"><rect joint-selector="rect" id="v-922" fill="#ffffff" rx="3" ry="3" x="0" y="0" width="0" height="0"  display="none"></rect><text joint-selector="text" id="v-921" fill="#000000" font-size="14" text-anchor="middle" text-vertical-anchor="middle" pointer-events="none"></text></g></g></g><!--z-index:44--><g   id="j_90"  style="opacity: 1;"><path fill="none" cursor="pointer" stroke="transparent" stroke-linecap="round" joint-selector="wrapper" id="v-936" stroke-width="10" stroke-linejoin="round" d="M 1539 1080.59 L 1699 1107 C 1705.6666666666665 1108.3333333333333 1712.3333333333333 1109 1719 1109 L 1879 1109"></path><path fill="none" pointer-events="none" joint-selector="line" id="v-935" stroke="#444444" stroke-width="2" stroke-linejoin="round" stroke-dasharray="8 8" d="M 1539 1080.59 L 1699 1107 C 1705.6666666666665 1108.3333333333333 1712.3333333333333 1109 1719 1109 L 1879 1109" marker-end="url(#v-21252848929)"></path><g id="v-928" ><g id="v-929"  label-idx="0" cursor="move" transform="matrix(1,0,0,1,1709.0390625,1108.50390625)" style="cursor: default;"><rect joint-selector="rect" id="v-932" fill="#ffffff" rx="3" ry="3" x="-89.84375" y="-32.19999694824219" width="179.6875" height="59.355552673339844" pointer-events="none"  style="display: block;"></rect><text joint-selector="text" id="v-931" font-size="24px" xml:space="preserve" fill="#444444" text-anchor="middle" pointer-events="none" font-family="Tahoma, Verdana, Helvetica, Arial" font-weight="normal"  style="display: block;"><tspan dy="-0.3em" >resolves provider</tspan><tspan dy="1.2em" x="0" >using</tspan></text></g><g id="v-930"  label-idx="1" cursor="move" transform="matrix(1,0,0,1,1699.0390625,1134.9039306640625)" style="cursor: default;"><rect joint-selector="rect" id="v-934" fill="#ffffff" rx="3" ry="3" x="0" y="0" width="0" height="0"  display="none"></rect><text joint-selector="text" id="v-933" fill="#000000" font-size="14" text-anchor="middle" text-vertical-anchor="middle" pointer-events="none"></text></g></g></g><!--z-index:45--><g   id="j_91"  style="opacity: 1;"><path fill="none" cursor="pointer" stroke="transparent" stroke-linecap="round" joint-selector="wrapper" id="v-948" stroke-width="10" stroke-linejoin="round" d="M 2329 1109 L 2669 1109"></path><path fill="none" pointer-events="none" joint-selector="line" id="v-947" stroke="#444444" stroke-width="2" stroke-linejoin="round" stroke-dasharray="8 8" d="M 2329 1109 L 2669 1109" marker-end="url(#v-21252848929)"></path><g id="v-940" ><g id="v-941"  label-idx="0" cursor="move" transform="matrix(1,0,0,1,2499,1109)" style="cursor: default;"><rect joint-selector="rect" id="v-944" fill="#ffffff" rx="3" ry="3" x="-75.02169799804688" y="-32.19999694824219" width="150.04339599609375" height="59.355552673339844" pointer-events="none"  style="display: block;"></rect><text joint-selector="text" id="v-943" font-size="24px" xml:space="preserve" fill="#444444" text-anchor="middle" pointer-events="none" font-family="Tahoma, Verdana, Helvetica, Arial" font-weight="normal"  style="display: block;"><tspan dy="-0.3em" >creates logger</tspan><tspan dy="1.2em" x="0" >instance</tspan></text></g><g id="v-942"  label-idx="1" cursor="move" transform="matrix(1,0,0,1,2489,1135.4000244140625)" style="cursor: default;"><rect joint-selector="rect" id="v-946" fill="#ffffff" rx="3" ry="3" x="0" y="0" width="0" height="0"  display="none"></rect><text joint-selector="text" id="v-945" fill="#000000" font-size="14" text-anchor="middle" text-vertical-anchor="middle" pointer-events="none"></text></g></g></g><!--z-index:46--><g   id="j_92"  style="opacity: 1;"><path fill="none" cursor="pointer" stroke="transparent" stroke-linecap="round" joint-selector="wrapper" id="v-960" stroke-width="10" stroke-linejoin="round" d="M 3119 1109 L 3459 1109"></path><path fill="none" pointer-events="none" joint-selector="line" id="v-959" stroke="#444444" stroke-width="2" stroke-linejoin="round" stroke-dasharray="8 8" d="M 3119 1109 L 3459 1109" marker-end="url(#v-21252848929)"></path><g id="v-952" ><g id="v-953"  label-idx="0" cursor="move" transform="matrix(1,0,0,1,3289,1109)" style="cursor: default;"><rect joint-selector="rect" id="v-956" fill="#ffffff" rx="3" ry="3" x="-89.453125" y="-17.799999237060547" width="178.90625" height="30.555553436279297" pointer-events="none"  style="display: block;"></rect><text joint-selector="text" id="v-955" font-size="24px" xml:space="preserve" fill="#444444" text-anchor="middle" pointer-events="none" font-family="Tahoma, Verdana, Helvetica, Arial" font-weight="normal"  style="display: block;"><tspan dy="0.3em" >extends API with</tspan></text></g><g id="v-954"  label-idx="1" cursor="move" transform="matrix(1,0,0,1,3279,1121)" style="cursor: default;"><rect joint-selector="rect" id="v-958" fill="#ffffff" rx="3" ry="3" x="0" y="0" width="0" height="0"  display="none"></rect><text joint-selector="text" id="v-957" fill="#000000" font-size="14" text-anchor="middle" text-vertical-anchor="middle" pointer-events="none"></text></g></g></g><!--z-index:47--><g   id="j_93"  style="opacity: 1;"><path fill="none" cursor="pointer" stroke="transparent" stroke-linecap="round" joint-selector="wrapper" id="v-972" stroke-width="10" stroke-linejoin="round" d="M 3063.29 1259 L 3282 1452 C 3286.6666666666665 1456.6666666666665 3292.333333333333 1459 3299 1459 L 3459 1459"></path><path fill="none" pointer-events="none" joint-selector="line" id="v-971" stroke="#444444" stroke-width="2" stroke-linejoin="round" stroke-dasharray="8 8" d="M 3063.29 1259 L 3282 1452 C 3286.6666666666665 1456.6666666666665 3292.333333333333 1459 3299 1459 L 3459 1459" marker-end="url(#v-21252848929)"></path><g id="v-964" ><g id="v-965"  label-idx="0" cursor="move" transform="matrix(1,0,0,1,3289.584228515625,1457.1810302734375)" style="cursor: default;"><rect joint-selector="rect" id="v-968" fill="#ffffff" rx="3" ry="3" x="-86.28472137451172" y="-32.19999694824219" width="172.56944274902344" height="59.355552673339844" pointer-events="none"  style="display: block;"></rect><text joint-selector="text" id="v-967" font-size="24px" xml:space="preserve" fill="#444444" text-anchor="middle" pointer-events="none" font-family="Tahoma, Verdana, Helvetica, Arial" font-weight="normal"  style="display: block;"><tspan dy="-0.3em" >builds messages</tspan><tspan dy="1.2em" x="0" >via</tspan></text></g><g id="v-966"  label-idx="1" cursor="move" transform="matrix(1,0,0,1,3279.584228515625,1483.5809326171875)" style="cursor: default;"><rect joint-selector="rect" id="v-970" fill="#ffffff" rx="3" ry="3" x="0" y="0" width="0" height="0"  display="none"></rect><text joint-selector="text" id="v-969" fill="#000000" font-size="14" text-anchor="middle" text-vertical-anchor="middle" pointer-events="none"></text></g></g></g><!--z-index:48--><g   id="j_94"  style="opacity: 1;"><path fill="none" cursor="pointer" stroke="transparent" stroke-linecap="round" joint-selector="wrapper" id="v-984" stroke-width="10" stroke-linejoin="round" d="M 3909 1459 L 4249 1459"></path><path fill="none" pointer-events="none" joint-selector="line" id="v-983" stroke="#444444" stroke-width="2" stroke-linejoin="round" stroke-dasharray="8 8" d="M 3909 1459 L 4249 1459" marker-end="url(#v-21252848929)"></path><g id="v-976" ><g id="v-977"  label-idx="0" cursor="move" transform="matrix(1,0,0,1,4079,1459)" style="cursor: default;"><rect joint-selector="rect" id="v-980" fill="#ffffff" rx="3" ry="3" x="-87.39148712158203" y="-32.19999694824219" width="174.78297424316406" height="59.355552673339844" pointer-events="none"  style="display: block;"></rect><text joint-selector="text" id="v-979" font-size="24px" xml:space="preserve" fill="#444444" text-anchor="middle" pointer-events="none" font-family="Tahoma, Verdana, Helvetica, Arial" font-weight="normal"  style="display: block;"><tspan dy="-0.3em" >creates Message</tspan><tspan dy="1.2em" x="0" >instances</tspan></text></g><g id="v-978"  label-idx="1" cursor="move" transform="matrix(1,0,0,1,4069,1485.4000244140625)" style="cursor: default;"><rect joint-selector="rect" id="v-982" fill="#ffffff" rx="3" ry="3" x="0" y="0" width="0" height="0"  display="none"></rect><text joint-selector="text" id="v-981" fill="#000000" font-size="14" text-anchor="middle" text-vertical-anchor="middle" pointer-events="none"></text></g></g></g><!--z-index:49--><g   id="j_95"  style="opacity: 1;"><path fill="none" cursor="pointer" stroke="transparent" stroke-linecap="round" joint-selector="wrapper" id="v-996" stroke-width="10" stroke-linejoin="round" d="M 3063.29 959 L 3282 766 C 3286.6666666666665 761.3333333333333 3292.333333333333 759 3299 759 L 3459 759"></path><path fill="none" pointer-events="none" joint-selector="line" id="v-995" stroke="#444444" stroke-width="2" stroke-linejoin="round" stroke-dasharray="8 8" d="M 3063.29 959 L 3282 766 C 3286.6666666666665 761.3333333333333 3292.333333333333 759 3299 759 L 3459 759" marker-end="url(#v-21252848929)"></path><g id="v-988" ><g id="v-989"  label-idx="0" cursor="move" transform="matrix(1,0,0,1,3289.584228515625,760.8190307617188)" style="cursor: default;"><rect joint-selector="rect" id="v-992" fill="#ffffff" rx="3" ry="3" x="-86.5017318725586" y="-17.799999237060547" width="173.0034637451172" height="30.555553436279297" pointer-events="none"  style="display: block;"></rect><text joint-selector="text" id="v-991" font-size="24px" xml:space="preserve" fill="#444444" text-anchor="middle" pointer-events="none" font-family="Tahoma, Verdana, Helvetica, Arial" font-weight="normal"  style="display: block;"><tspan dy="0.3em" >emits log events</tspan></text></g><g id="v-990"  label-idx="1" cursor="move" transform="matrix(1,0,0,1,3279.584228515625,772.8190307617188)" style="cursor: default;"><rect joint-selector="rect" id="v-994" fill="#ffffff" rx="3" ry="3" x="0" y="0" width="0" height="0"  display="none"></rect><text joint-selector="text" id="v-993" fill="#000000" font-size="14" text-anchor="middle" text-vertical-anchor="middle" pointer-events="none"></text></g></g></g><!--z-index:50--><g   id="j_96"  style="opacity: 1;"><path fill="none" cursor="pointer" stroke="transparent" stroke-linecap="round" joint-selector="wrapper" id="v-1008" stroke-width="10" stroke-linejoin="round" d="M 1456.43 1193 L 1702 1452 C 1706.6666666666665 1456.6666666666665 1712.3333333333333 1459 1719 1459 L 1879 1459"></path><path fill="none" pointer-events="none" joint-selector="line" id="v-1007" stroke="#444444" stroke-width="2" stroke-linejoin="round" stroke-dasharray="8 8" d="M 1456.43 1193 L 1702 1452 C 1706.6666666666665 1456.6666666666665 1712.3333333333333 1459 1719 1459 L 1879 1459" marker-end="url(#v-21252848929)"></path><g id="v-1000" ><g id="v-1001"  label-idx="0" cursor="move" transform="matrix(1,0,0,1,1709.485107421875,1457.138916015625)" style="cursor: default;"><rect joint-selector="rect" id="v-1004" fill="#ffffff" rx="3" ry="3" x="-89.2578125" y="-32.19999694824219" width="178.515625" height="59.355552673339844" pointer-events="none"  style="display: block;"></rect><text joint-selector="text" id="v-1003" font-size="24px" xml:space="preserve" fill="#444444" text-anchor="middle" pointer-events="none" font-family="Tahoma, Verdana, Helvetica, Arial" font-weight="normal"  style="display: block;"><tspan dy="-0.3em" >fallback when no</tspan><tspan dy="1.2em" x="0" >core available</tspan></text></g><g id="v-1002"  label-idx="1" cursor="move" transform="matrix(1,0,0,1,1699.485107421875,1483.5389404296875)" style="cursor: default;"><rect joint-selector="rect" id="v-1006" fill="#ffffff" rx="3" ry="3" x="0" y="0" width="0" height="0"  display="none"></rect><text joint-selector="text" id="v-1005" fill="#000000" font-size="14" text-anchor="middle" text-vertical-anchor="middle" pointer-events="none"></text></g></g></g><!--z-index:51--><g   id="j_97"  style="opacity: 1;"><path fill="none" cursor="pointer" stroke="transparent" stroke-linecap="round" joint-selector="wrapper" id="v-1020" stroke-width="10" stroke-linejoin="round" d="M 1522.63 893 L 1701 765 C 1706.3333333333333 761 1712.3333333333333 759 1719 759 L 1879 759"></path><path fill="none" pointer-events="none" joint-selector="line" id="v-1019" stroke="#444444" stroke-width="2" stroke-linejoin="round" stroke-dasharray="8 8" d="M 1522.63 893 L 1701 765 C 1706.3333333333333 761 1712.3333333333333 759 1719 759 L 1879 759" marker-end="url(#v-21252848929)"></path><g id="v-1012" ><g id="v-1013"  label-idx="0" cursor="move" transform="matrix(1,0,0,1,1709.53515625,760.48828125)" style="cursor: default;"><rect joint-selector="rect" id="v-1016" fill="#ffffff" rx="3" ry="3" x="-92.7517318725586" y="-32.19999694824219" width="185.5034637451172" height="59.355552673339844" pointer-events="none"  style="display: block;"></rect><text joint-selector="text" id="v-1015" font-size="24px" xml:space="preserve" fill="#444444" text-anchor="middle" pointer-events="none" font-family="Tahoma, Verdana, Helvetica, Arial" font-weight="normal"  style="display: block;"><tspan dy="-0.3em" >publishes internal</tspan><tspan dy="1.2em" x="0" >diagnostics to</tspan></text></g><g id="v-1014"  label-idx="1" cursor="move" transform="matrix(1,0,0,1,1699.53515625,786.8883056640625)" style="cursor: default;"><rect joint-selector="rect" id="v-1018" fill="#ffffff" rx="3" ry="3" x="-4.547473508864641e-13" y="0" width="0" height="0"  display="none"></rect><text joint-selector="text" id="v-1017" fill="#000000" font-size="14" text-anchor="middle" text-vertical-anchor="middle" pointer-events="none"></text></g></g></g><!--z-index:52--><g   id="j_98"  style="opacity: 1;"><path fill="none" cursor="pointer" stroke="transparent" stroke-linecap="round" joint-selector="wrapper" id="v-1032" stroke-width="10" stroke-linejoin="round" d="M 699 1534 L 1029 1534 C 1035.6666666666665 1534 1040.6666666666665 1531 1044 1525 L 1229.99 1193"></path><path fill="none" pointer-events="none" joint-selector="line" id="v-1031" stroke="#444444" stroke-width="2" stroke-linejoin="round" stroke-dasharray="8 8" d="M 699 1534 L 1029 1534 C 1035.6666666666665 1534 1040.6666666666665 1531 1044 1525 L 1229.99 1193" marker-end="url(#v-21252848929)"></path><g id="v-1024" ><g id="v-1025"  label-idx="0" cursor="move" transform="matrix(1,0,0,1,868.61572265625,1534)" style="cursor: default;"><rect joint-selector="rect" id="v-1028" fill="#ffffff" rx="3" ry="3" x="-80.53385162353516" y="-32.19999694824219" width="161.0677032470703" height="59.355552673339844" pointer-events="none"  style="display: block;"></rect><text joint-selector="text" id="v-1027" font-size="24px" xml:space="preserve" fill="#444444" text-anchor="middle" pointer-events="none" font-family="Tahoma, Verdana, Helvetica, Arial" font-weight="normal"  style="display: block;"><tspan dy="-0.3em" >obtains loggers</tspan><tspan dy="1.2em" x="0" >through</tspan></text></g><g id="v-1026"  label-idx="1" cursor="move" transform="matrix(1,0,0,1,858.61572265625,1560.4000244140625)" style="cursor: default;"><rect joint-selector="rect" id="v-1030" fill="#ffffff" rx="3" ry="3" x="0" y="0" width="0" height="0"  display="none"></rect><text joint-selector="text" id="v-1029" fill="#000000" font-size="14" text-anchor="middle" text-vertical-anchor="middle" pointer-events="none"></text></g></g></g><!--z-index:53--><g   id="j_99"  style="opacity: 1;"><path fill="none" cursor="pointer" stroke="transparent" stroke-linecap="round" joint-selector="wrapper" id="v-1044" stroke-width="10" stroke-linejoin="round" d="M 2272.04 1709 L 2492 1513 C 2496.6666666666665 1508.6 2501.333333333333 1503.9333333333334 2506 1499 L 2744.91 1259"></path><path fill="none" pointer-events="none" joint-selector="line" id="v-1043" stroke="#444444" stroke-width="2" stroke-linejoin="round" stroke-dasharray="8 8" d="M 2272.04 1709 L 2492 1513 C 2496.6666666666665 1508.6 2501.333333333333 1503.9333333333334 2506 1499 L 2744.91 1259" marker-end="url(#v-21252848929)"></path><g id="v-1036" ><g id="v-1037"  label-idx="0" cursor="move" transform="matrix(1,0,0,1,2498.890625,1506.309326171875)" style="cursor: default;"><rect joint-selector="rect" id="v-1040" fill="#ffffff" rx="3" ry="3" x="-63.58506774902344" y="-61" width="127.17013549804688" height="116.95555877685547" pointer-events="none"  style="display: block;"></rect><text joint-selector="text" id="v-1039" font-size="24px" xml:space="preserve" fill="#444444" text-anchor="middle" pointer-events="none" font-family="Tahoma, Verdana, Helvetica, Arial" font-weight="normal"  style="display: block;"><tspan dy="-1.4999999999999998em" >implements</tspan><tspan dy="1.2em" x="0" >logging</tspan><tspan dy="1.2em" x="0" >abstractions</tspan><tspan dy="1.2em" x="0" >exposed by</tspan></text></g><g id="v-1038"  label-idx="1" cursor="move" transform="matrix(1,0,0,1,2488.890625,1561.50927734375)" style="cursor: default;"><rect joint-selector="rect" id="v-1042" fill="#ffffff" rx="3" ry="3" x="0" y="0" width="0" height="0"  display="none"></rect><text joint-selector="text" id="v-1041" fill="#000000" font-size="14" text-anchor="middle" text-vertical-anchor="middle" pointer-events="none"></text></g></g></g><!--z-index:54--></g><g  style="user-select: none;"></g><g ></g><g  display="none"></g></g></svg>