<svg xmlns="http://www.w3.org/2000/svg" xmlns:xlink="http://www.w3.org/1999/xlink" version="1.1" width="5000" height="1503" style="width: 5000px; height: 1503px; background: #ffffff" viewBox="0 0 5000 1503"><style id="v-3" type="text/css">        .joint-element .scalable * {            vector-effect: non-scaling-stroke;        }    </style><defs joint-selector="defs"><marker id="v-21252848929" orient="auto" overflow="visible" markerUnits="userSpaceOnUse"><path id="v-105" stroke="#444444" fill="#444444" transform="rotate(180)" d="M 20 -10 0 0 20 10 Z"></path></marker></defs><g joint-selector="layers"  transform="matrix(1,0,0,1,0,0)"><g  style="pointer-events: none;"></g><g ></g><g  style="user-select: none;"><!--z-index:1--><!--z-index:2--><!--z-index:3--><!--z-index:4--><!--z-index:5--><!--z-index:6--><!--z-index:7--><!--z-index:8--><!--z-index:9--><!--z-index:10--><!--z-index:11--><!--z-index:12--><!--z-index:13--><!--z-index:14--><!--z-index:15--><!--z-index:16--><!--z-index:17--><!--z-index:18--><g   id="j_151"  transform="translate(20,1459)"><g id="v-1589"><text  id="v-1590" font-size="24px" xml:space="preserve" y="0.8em" font-weight="normal" text-anchor="start" fill="#444444" pointer-events="none" display="block" font-family="Tahoma, Verdana, Helvetica, Arial"><tspan dy="0" >Monday, June 8, 2026 at 5:46 PM Central European Summer Time</tspan></text></g></g><!--z-index:19--><g   id="j_150"  transform="translate(20,1413)"><g id="v-1587"><text  id="v-1588" font-size="36px" xml:space="preserve" y="0.8em" font-weight="normal" text-anchor="start" fill="#444444" pointer-events="none" display="block" font-family="Tahoma, Verdana, Helvetica, Arial"><tspan dy="0" >C3 Component Diagram - log4j-layout-template-json</tspan></text></g></g><!--z-index:20--><g   id="j_153"  transform="translate(199,159)" style="; opacity: 1;"><g id="v-1601"><rect  id="v-1602" width="4600" height="1104" rx="20" ry="20" stroke-width="2" pointer-events="none" stroke="#0f5eaa" fill="#ffffff" opacity="1" stroke-dasharray=""></rect><text  id="v-1603" font-size="33.599999999999994px" xml:space="preserve" y="1065" font-weight="bold" text-anchor="start" pointer-events="visible" font-family="Tahoma, Verdana, Helvetica, Arial" fill="#0f5eaa" transform="matrix(1,0,0,1,15,0)"><tspan dy="0" >Apache Log4j2</tspan></text><text  id="v-1604" font-size="16.799999999999997px" xml:space="preserve" y="1089" font-weight="normal" text-anchor="start" pointer-events="visible" font-family="Tahoma, Verdana, Helvetica, Arial" fill="#0f5eaa" transform="matrix(1,0,0,1,15,0)"><tspan dy="0" >[Software System]</tspan></text><image  id="v-1605" pointer-events="visible"></image></g></g><!--z-index:21--><g   id="j_152"  transform="translate(4299,209)" style=""><g  id="v-1594" style="opacity: 1;"><rect  id="v-1595" rx="20" ry="20" stroke-width="2" pointer-events="visiblePainted" fill="#438dd5" stroke="#3c7fc0" stroke-dasharray="" width="450" height="300" style="fill: rgb(67, 141, 213); stroke: rgb(60, 127, 192);"></rect><text  id="v-1596" font-size="33.599999999999994px" xml:space="preserve" y="86.9" font-weight="bold" text-anchor="middle" pointer-events="visible" font-family="Tahoma, Verdana, Helvetica, Arial" fill="#ffffff" dominant-baseline="hanging" transform="matrix(1,0,0,1,225,0)" style="fill: rgb(255, 255, 255);"><tspan dy="0" >log4j-api</tspan></text><text  id="v-1597" font-size="16.799999999999997px" xml:space="preserve" y="128.5" text-anchor="middle" font-family="Tahoma, Verdana, Helvetica, Arial" fill="#ffffff" dominant-baseline="hanging" transform="matrix(1,0,0,1,225,0)" style="display: block; fill: rgb(255, 255, 255);"><tspan dy="0" >[Container: Java]</tspan></text><text  id="v-1598" font-size="24px" xml:space="preserve" y="160.3" text-anchor="middle" font-family="Tahoma, Verdana, Helvetica, Arial" fill="#ffffff" dominant-baseline="hanging" transform="matrix(1,0,0,1,225,0)" style="display: block; fill: rgb(255, 255, 255);"><tspan dy="0" >Public logging API used by</tspan><tspan dy="1.2em" x="0" >applications and adapters</tspan></text><g  id="v-1599" color="#ffffff" transform="matrix(1,0,0,1,210,268)" display="none" style="fill: rgb(255, 255, 255);"><g  transform="translate(5 0)"><svg xmlns="http://www.w3.org/2000/svg" width="20" height="20" fill="currentColor" viewBox="0 0 16 16"><path fill-rule="evenodd" d="M6.5 12a5.5 5.5 0 1 0 0-11 5.5 5.5 0 0 0 0 11zM13 6.5a6.5 6.5 0 1 1-13 0 6.5 6.5 0 0 1 13 0z"></path><path d="M10.344 11.742c.03.04.062.078.098.115l3.85 3.85a1 1 0 0 0 1.415-1.414l-3.85-3.85a1.007 1.007 0 0 0-.115-.1 6.538 6.538 0 0 1-1.398 1.4z"></path><path fill-rule="evenodd" d="M6.5 3a.5.5 0 0 1 .5.5V6h2.5a.5.5 0 0 1 0 1H7v2.5a.5.5 0 0 1-1 0V7H3.5a.5.5 0 0 1 0-1H6V3.5a.5.5 0 0 1 .5-.5z"></path></svg></g><g ></g><g ></g><g ></g></g><image  id="v-1600"></image></g></g><!--z-index:22--><g   id="j_154"  transform="translate(249,384)" style=""><g  id="v-1609" style="opacity: 1;"><rect  id="v-1610" rx="20" ry="20" stroke-width="2" pointer-events="visiblePainted" fill="#438dd5" stroke="#3c7fc0" stroke-dasharray="" width="450" height="300" style="fill: rgb(67, 141, 213); stroke: rgb(60, 127, 192);"></rect><text  id="v-1611" font-size="33.599999999999994px" xml:space="preserve" y="72.5" font-weight="bold" text-anchor="middle" pointer-events="visible" font-family="Tahoma, Verdana, Helvetica, Arial" fill="#ffffff" dominant-baseline="hanging" transform="matrix(1,0,0,1,225,0)" style="fill: rgb(255, 255, 255);"><tspan dy="0" >log4j-core</tspan></text><text  id="v-1612" font-size="16.799999999999997px" xml:space="preserve" y="114.1" text-anchor="middle" font-family="Tahoma, Verdana, Helvetica, Arial" fill="#ffffff" dominant-baseline="hanging" transform="matrix(1,0,0,1,225,0)" style="display: block; fill: rgb(255, 255, 255);"><tspan dy="0" >[Container: Java]</tspan></text><text  id="v-1613" font-size="24px" xml:space="preserve" y="145.89999999999998" text-anchor="middle" font-family="Tahoma, Verdana, Helvetica, Arial" fill="#ffffff" dominant-baseline="hanging" transform="matrix(1,0,0,1,225,0)" style="display: block; fill: rgb(255, 255, 255);"><tspan dy="0" >Logging implementation,</tspan><tspan dy="1.2em" x="0" >configuration, filters, appenders,</tspan><tspan dy="1.2em" x="0" >runtime pipeline</tspan></text><g  id="v-1614" color="#ffffff" transform="matrix(1,0,0,1,210,268)" display="none" style="fill: rgb(255, 255, 255);"><g  transform="translate(5 0)"><svg xmlns="http://www.w3.org/2000/svg" width="20" height="20" fill="currentColor" viewBox="0 0 16 16"><path fill-rule="evenodd" d="M6.5 12a5.5 5.5 0 1 0 0-11 5.5 5.5 0 0 0 0 11zM13 6.5a6.5 6.5 0 1 1-13 0 6.5 6.5 0 0 1 13 0z"></path><path d="M10.344 11.742c.03.04.062.078.098.115l3.85 3.85a1 1 0 0 0 1.415-1.414l-3.85-3.85a1.007 1.007 0 0 0-.115-.1 6.538 6.538 0 0 1-1.398 1.4z"></path><path fill-rule="evenodd" d="M6.5 3a.5.5 0 0 1 .5.5V6h2.5a.5.5 0 0 1 0 1H7v2.5a.5.5 0 0 1-1 0V7H3.5a.5.5 0 0 1 0-1H6V3.5a.5.5 0 0 1 .5-.5z"></path></svg></g><g ></g><g ></g><g ></g></g><image  id="v-1615"></image></g></g><!--z-index:23--><g   id="j_156"  transform="translate(1039,305)" style="; opacity: 1;"><g id="v-1629"><rect  id="v-1630" width="2920" height="829" rx="20" ry="20" stroke-width="2" pointer-events="none" stroke="#3c7fc0" fill="#ffffff" opacity="1" stroke-dasharray=""></rect><text  id="v-1631" font-size="33.599999999999994px" xml:space="preserve" y="790" font-weight="bold" text-anchor="start" pointer-events="visible" font-family="Tahoma, Verdana, Helvetica, Arial" fill="#3c7fc0" transform="matrix(1,0,0,1,15,0)"><tspan dy="0" >log4j-layout-template-json</tspan></text><text  id="v-1632" font-size="16.799999999999997px" xml:space="preserve" y="814" font-weight="normal" text-anchor="start" pointer-events="visible" font-family="Tahoma, Verdana, Helvetica, Arial" fill="#3c7fc0" transform="matrix(1,0,0,1,15,0)"><tspan dy="0" >[Container]</tspan></text><image  id="v-1633" pointer-events="visible"></image></g></g><!--z-index:24--><g   id="j_155"  transform="translate(1089,530)" style=""><g  id="v-1622" style="opacity: 1;"><rect  id="v-1623" rx="20" ry="20" stroke-width="2" pointer-events="visiblePainted" fill="#85bbf0" stroke="#78a8d8" stroke-dasharray="" width="450" height="300" style="fill: rgb(133, 187, 240); stroke: rgb(120, 168, 216);"></rect><text  id="v-1624" font-size="33.599999999999994px" xml:space="preserve" y="101.30000000000001" font-weight="bold" text-anchor="middle" pointer-events="visible" font-family="Tahoma, Verdana, Helvetica, Arial" fill="#000000" dominant-baseline="hanging" transform="matrix(1,0,0,1,225,0)" style="fill: rgb(0, 0, 0);"><tspan dy="0" >JsonTemplateLayout</tspan></text><text  id="v-1625" font-size="16.799999999999997px" xml:space="preserve" y="142.9" text-anchor="middle" font-family="Tahoma, Verdana, Helvetica, Arial" fill="#000000" dominant-baseline="hanging" transform="matrix(1,0,0,1,225,0)" style="display: block; fill: rgb(0, 0, 0);"><tspan dy="0" >[Component]</tspan></text><text  id="v-1626" font-size="24px" xml:space="preserve" y="174.7" text-anchor="middle" font-family="Tahoma, Verdana, Helvetica, Arial" fill="#000000" dominant-baseline="hanging" transform="matrix(1,0,0,1,225,0)" style="display: block; fill: rgb(0, 0, 0);"><tspan dy="0" >JSON layout implementation</tspan></text><g  id="v-1627" color="#000000" transform="matrix(1,0,0,1,222.5,268)" display="none" style="fill: rgb(0, 0, 0);"><g ></g><g ></g><g ></g><g ></g></g><image  id="v-1628"></image></g></g><!--z-index:25--><g   id="j_157"  transform="translate(1879,355)" style=""><g  id="v-1640" style="opacity: 1;"><rect  id="v-1641" rx="20" ry="20" stroke-width="2" pointer-events="visiblePainted" fill="#85bbf0" stroke="#78a8d8" stroke-dasharray="" width="450" height="300" style="fill: rgb(133, 187, 240); stroke: rgb(120, 168, 216);"></rect><text  id="v-1642" font-size="33.599999999999994px" xml:space="preserve" y="101.30000000000001" font-weight="bold" text-anchor="middle" pointer-events="visible" font-family="Tahoma, Verdana, Helvetica, Arial" fill="#000000" dominant-baseline="hanging" transform="matrix(1,0,0,1,225,0)" style="fill: rgb(0, 0, 0);"><tspan dy="0" >TemplateResolver</tspan></text><text  id="v-1643" font-size="16.799999999999997px" xml:space="preserve" y="142.9" text-anchor="middle" font-family="Tahoma, Verdana, Helvetica, Arial" fill="#000000" dominant-baseline="hanging" transform="matrix(1,0,0,1,225,0)" style="display: block; fill: rgb(0, 0, 0);"><tspan dy="0" >[Component]</tspan></text><text  id="v-1644" font-size="24px" xml:space="preserve" y="174.7" text-anchor="middle" font-family="Tahoma, Verdana, Helvetica, Arial" fill="#000000" dominant-baseline="hanging" transform="matrix(1,0,0,1,225,0)" style="display: block; fill: rgb(0, 0, 0);"><tspan dy="0" >JSON template resolution engine</tspan></text><g  id="v-1645" color="#000000" transform="matrix(1,0,0,1,222.5,268)" display="none" style="fill: rgb(0, 0, 0);"><g ></g><g ></g><g ></g><g ></g></g><image  id="v-1646"></image></g></g><!--z-index:26--><g   id="j_158"  transform="translate(2669,355)" style=""><g  id="v-1653" style="opacity: 1;"><rect  id="v-1654" rx="20" ry="20" stroke-width="2" pointer-events="visiblePainted" fill="#85bbf0" stroke="#78a8d8" stroke-dasharray="" width="450" height="300" style="fill: rgb(133, 187, 240); stroke: rgb(120, 168, 216);"></rect><text  id="v-1655" font-size="33.599999999999994px" xml:space="preserve" y="101.30000000000001" font-weight="bold" text-anchor="middle" pointer-events="visible" font-family="Tahoma, Verdana, Helvetica, Arial" fill="#000000" dominant-baseline="hanging" transform="matrix(1,0,0,1,225,0)" style="fill: rgb(0, 0, 0);"><tspan dy="0" >EventResolver Registry</tspan></text><text  id="v-1656" font-size="16.799999999999997px" xml:space="preserve" y="142.9" text-anchor="middle" font-family="Tahoma, Verdana, Helvetica, Arial" fill="#000000" dominant-baseline="hanging" transform="matrix(1,0,0,1,225,0)" style="display: block; fill: rgb(0, 0, 0);"><tspan dy="0" >[Component]</tspan></text><text  id="v-1657" font-size="24px" xml:space="preserve" y="174.7" text-anchor="middle" font-family="Tahoma, Verdana, Helvetica, Arial" fill="#000000" dominant-baseline="hanging" transform="matrix(1,0,0,1,225,0)" style="display: block; fill: rgb(0, 0, 0);"><tspan dy="0" >Event field resolver registry</tspan></text><g  id="v-1658" color="#000000" transform="matrix(1,0,0,1,222.5,268)" display="none" style="fill: rgb(0, 0, 0);"><g ></g><g ></g><g ></g><g ></g></g><image  id="v-1659"></image></g></g><!--z-index:27--><g   id="j_159"  transform="translate(3459,355)" style=""><g  id="v-1666" style="opacity: 1;"><rect  id="v-1667" rx="20" ry="20" stroke-width="2" pointer-events="visiblePainted" fill="#85bbf0" stroke="#78a8d8" stroke-dasharray="" width="450" height="300" style="fill: rgb(133, 187, 240); stroke: rgb(120, 168, 216);"></rect><text  id="v-1668" font-size="33.599999999999994px" xml:space="preserve" y="101.30000000000001" font-weight="bold" text-anchor="middle" pointer-events="visible" font-family="Tahoma, Verdana, Helvetica, Arial" fill="#000000" dominant-baseline="hanging" transform="matrix(1,0,0,1,225,0)" style="fill: rgb(0, 0, 0);"><tspan dy="0" >Built-in EventResolvers</tspan></text><text  id="v-1669" font-size="16.799999999999997px" xml:space="preserve" y="142.9" text-anchor="middle" font-family="Tahoma, Verdana, Helvetica, Arial" fill="#000000" dominant-baseline="hanging" transform="matrix(1,0,0,1,225,0)" style="display: block; fill: rgb(0, 0, 0);"><tspan dy="0" >[Component]</tspan></text><text  id="v-1670" font-size="24px" xml:space="preserve" y="174.7" text-anchor="middle" font-family="Tahoma, Verdana, Helvetica, Arial" fill="#000000" dominant-baseline="hanging" transform="matrix(1,0,0,1,225,0)" style="display: block; fill: rgb(0, 0, 0);"><tspan dy="0" >Standard field extractors</tspan></text><g  id="v-1671" color="#000000" transform="matrix(1,0,0,1,222.5,268)" display="none" style="fill: rgb(0, 0, 0);"><g ></g><g ></g><g ></g><g ></g></g><image  id="v-1672"></image></g></g><!--z-index:28--><g   id="j_160"  transform="translate(1879,705)" style=""><g  id="v-1676" style="opacity: 1;"><rect  id="v-1677" rx="20" ry="20" stroke-width="2" pointer-events="visiblePainted" fill="#85bbf0" stroke="#78a8d8" stroke-dasharray="" width="450" height="300" style="fill: rgb(133, 187, 240); stroke: rgb(120, 168, 216);"></rect><text  id="v-1678" font-size="33.599999999999994px" xml:space="preserve" y="101.30000000000001" font-weight="bold" text-anchor="middle" pointer-events="visible" font-family="Tahoma, Verdana, Helvetica, Arial" fill="#000000" dominant-baseline="hanging" transform="matrix(1,0,0,1,225,0)" style="fill: rgb(0, 0, 0);"><tspan dy="0" >JsonWriter</tspan></text><text  id="v-1679" font-size="16.799999999999997px" xml:space="preserve" y="142.9" text-anchor="middle" font-family="Tahoma, Verdana, Helvetica, Arial" fill="#000000" dominant-baseline="hanging" transform="matrix(1,0,0,1,225,0)" style="display: block; fill: rgb(0, 0, 0);"><tspan dy="0" >[Component]</tspan></text><text  id="v-1680" font-size="24px" xml:space="preserve" y="174.7" text-anchor="middle" font-family="Tahoma, Verdana, Helvetica, Arial" fill="#000000" dominant-baseline="hanging" transform="matrix(1,0,0,1,225,0)" style="display: block; fill: rgb(0, 0, 0);"><tspan dy="0" >Low-allocation JSON serializer</tspan></text><g  id="v-1681" color="#000000" transform="matrix(1,0,0,1,222.5,268)" display="none" style="fill: rgb(0, 0, 0);"><g ></g><g ></g><g ></g><g ></g></g><image  id="v-1682"></image></g></g><!--z-index:29--><g   id="j_161"  style="opacity: 1;"><path fill="none" cursor="pointer" stroke="transparent" stroke-linecap="round" joint-selector="wrapper" id="v-1694" stroke-width="10" stroke-linejoin="round" d="M 659.39 384 L 861 221 C 866.3333333333333 216.59999999999997 872.3333333333333 214.26666666666665 879 214 L 4119 214 C 4125.666666666666 214.26666666666665 4132 215.59999999999997 4138 218 L 4299 276.63"></path><path fill="none" pointer-events="none" joint-selector="line" id="v-1693" stroke="#444444" stroke-width="2" stroke-linejoin="round" stroke-dasharray="8 8" d="M 659.39 384 L 861 221 C 866.3333333333333 216.59999999999997 872.3333333333333 214.26666666666665 879 214 L 4119 214 C 4125.666666666666 214.26666666666665 4132 215.59999999999997 4138 218 L 4299 276.63" marker-end="url(#v-21252848929)"></path><g id="v-1686" ><g id="v-1687"  label-idx="0" cursor="move" transform="matrix(1,0,0,1,2499.6103515625,214)" style="cursor: default;"><rect joint-selector="rect" id="v-1690" fill="#ffffff" rx="3" ry="3" x="-77.66926574707031" y="-46.59999465942383" width="156.1637725830078" height="88.15555572509766" pointer-events="none"  style="display: block;"></rect><text joint-selector="text" id="v-1689" font-size="24px" xml:space="preserve" fill="#444444" text-anchor="middle" pointer-events="none" font-family="Tahoma, Verdana, Helvetica, Arial" font-weight="normal"  style="display: block;"><tspan dy="-0.8999999999999999em" >implements</tspan><tspan dy="1.2em" x="0" >logging</tspan><tspan dy="1.2em" x="0" >abstractions of</tspan></text></g><g id="v-1688"  label-idx="1" cursor="move" transform="matrix(1,0,0,1,2489.6103515625,254.8000030517578)" style="cursor: default;"><rect joint-selector="rect" id="v-1692" fill="#ffffff" rx="3" ry="3" x="0" y="0" width="0" height="0"  display="none"></rect><text joint-selector="text" id="v-1691" fill="#000000" font-size="14" text-anchor="middle" text-vertical-anchor="middle" pointer-events="none"></text></g></g></g><!--z-index:30--><g   id="j_162"  style="opacity: 1;"><path fill="none" cursor="pointer" stroke="transparent" stroke-linecap="round" joint-selector="wrapper" id="v-1706" stroke-width="10" stroke-linejoin="round" d="M 699 617.28 L 860 677 C 865.9999999999999 679.1333333333332 872.3333333333333 680.1333333333332 879 680 L 1089 680.1"></path><path fill="none" pointer-events="none" joint-selector="line" id="v-1705" stroke="#444444" stroke-width="2" stroke-linejoin="round" stroke-dasharray="8 8" d="M 699 617.28 L 860 677 C 865.9999999999999 679.1333333333332 872.3333333333333 680.1333333333332 879 680 L 1089 680.1" marker-end="url(#v-21252848929)"></path><g id="v-1698" ><g id="v-1699"  label-idx="0" cursor="move" transform="matrix(1,0,0,1,869.1016235351562,679.3263549804688)" style="cursor: default;"><rect joint-selector="rect" id="v-1702" fill="#ffffff" rx="3" ry="3" x="-99.84808349609375" y="-32.19999694824219" width="199.6961669921875" height="59.355552673339844" pointer-events="none"  style="display: block;"></rect><text joint-selector="text" id="v-1701" font-size="24px" xml:space="preserve" fill="#444444" text-anchor="middle" pointer-events="none" font-family="Tahoma, Verdana, Helvetica, Arial" font-weight="normal"  style="display: block;"><tspan dy="-0.3em" >invokes Layout SPI</tspan><tspan dy="1.2em" x="0" >on</tspan></text></g><g id="v-1700"  label-idx="1" cursor="move" transform="matrix(1,0,0,1,859.1016235351562,705.7263793945312)" style="cursor: default;"><rect joint-selector="rect" id="v-1704" fill="#ffffff" rx="3" ry="3" x="2.2737367544323206e-13" y="0" width="0" height="0"  display="none"></rect><text joint-selector="text" id="v-1703" fill="#000000" font-size="14" text-anchor="middle" text-vertical-anchor="middle" pointer-events="none"></text></g></g></g><!--z-index:31--><g   id="j_163"  style="opacity: 1;"><path fill="none" cursor="pointer" stroke="transparent" stroke-linecap="round" joint-selector="wrapper" id="v-1718" stroke-width="10" stroke-linejoin="round" d="M 1539 580.43 L 1700 509 C 1706 506.4666666666666 1712.3333333333333 505.13333333333327 1719 505 L 1879 505.11"></path><path fill="none" pointer-events="none" joint-selector="line" id="v-1717" stroke="#444444" stroke-width="2" stroke-linejoin="round" stroke-dasharray="8 8" d="M 1539 580.43 L 1700 509 C 1706 506.4666666666666 1712.3333333333333 505.13333333333327 1719 505 L 1879 505.11" marker-end="url(#v-21252848929)"></path><g id="v-1710" ><g id="v-1711"  label-idx="0" cursor="move" transform="matrix(1,0,0,1,1709.212890625,506.1078186035156)" style="cursor: default;"><rect joint-selector="rect" id="v-1714" fill="#ffffff" rx="3" ry="3" x="-92.92534637451172" y="-32.19999694824219" width="185.85069274902344" height="59.355552673339844" pointer-events="none"  style="display: block;"></rect><text joint-selector="text" id="v-1713" font-size="24px" xml:space="preserve" fill="#444444" text-anchor="middle" pointer-events="none" font-family="Tahoma, Verdana, Helvetica, Arial" font-weight="normal"  style="display: block;"><tspan dy="-0.3em" >resolves template</tspan><tspan dy="1.2em" x="0" >using</tspan></text></g><g id="v-1712"  label-idx="1" cursor="move" transform="matrix(1,0,0,1,1699.212890625,532.5078125)" style="cursor: default;"><rect joint-selector="rect" id="v-1716" fill="#ffffff" rx="3" ry="3" x="0" y="0" width="0" height="0"  display="none"></rect><text joint-selector="text" id="v-1715" fill="#000000" font-size="14" text-anchor="middle" text-vertical-anchor="middle" pointer-events="none"></text></g></g></g><!--z-index:32--><g   id="j_164"  style="opacity: 1;"><path fill="none" cursor="pointer" stroke="transparent" stroke-linecap="round" joint-selector="wrapper" id="v-1730" stroke-width="10" stroke-linejoin="round" d="M 2329 505 L 2669 505"></path><path fill="none" pointer-events="none" joint-selector="line" id="v-1729" stroke="#444444" stroke-width="2" stroke-linejoin="round" stroke-dasharray="8 8" d="M 2329 505 L 2669 505" marker-end="url(#v-21252848929)"></path><g id="v-1722" ><g id="v-1723"  label-idx="0" cursor="move" transform="matrix(1,0,0,1,2499,505)" style="cursor: default;"><rect joint-selector="rect" id="v-1726" fill="#ffffff" rx="3" ry="3" x="-70.20398712158203" y="-32.19999694824219" width="140.40797424316406" height="59.355552673339844" pointer-events="none"  style="display: block;"></rect><text joint-selector="text" id="v-1725" font-size="24px" xml:space="preserve" fill="#444444" text-anchor="middle" pointer-events="none" font-family="Tahoma, Verdana, Helvetica, Arial" font-weight="normal"  style="display: block;"><tspan dy="-0.3em" >looks up field</tspan><tspan dy="1.2em" x="0" >resolvers in</tspan></text></g><g id="v-1724"  label-idx="1" cursor="move" transform="matrix(1,0,0,1,2489,531.4000244140625)" style="cursor: default;"><rect joint-selector="rect" id="v-1728" fill="#ffffff" rx="3" ry="3" x="0" y="0" width="0" height="0"  display="none"></rect><text joint-selector="text" id="v-1727" fill="#000000" font-size="14" text-anchor="middle" text-vertical-anchor="middle" pointer-events="none"></text></g></g></g><!--z-index:33--><g   id="j_165"  style="opacity: 1;"><path fill="none" cursor="pointer" stroke="transparent" stroke-linecap="round" joint-selector="wrapper" id="v-1742" stroke-width="10" stroke-linejoin="round" d="M 3119 505 L 3459 505"></path><path fill="none" pointer-events="none" joint-selector="line" id="v-1741" stroke="#444444" stroke-width="2" stroke-linejoin="round" stroke-dasharray="8 8" d="M 3119 505 L 3459 505" marker-end="url(#v-21252848929)"></path><g id="v-1734" ><g id="v-1735"  label-idx="0" cursor="move" transform="matrix(1,0,0,1,3289,505)" style="cursor: default;"><rect joint-selector="rect" id="v-1738" fill="#ffffff" rx="3" ry="3" x="-87.23957824707031" y="-46.59999465942383" width="174.47915649414062" height="88.15555572509766" pointer-events="none"  style="display: block;"></rect><text joint-selector="text" id="v-1737" font-size="24px" xml:space="preserve" fill="#444444" text-anchor="middle" pointer-events="none" font-family="Tahoma, Verdana, Helvetica, Arial" font-weight="normal"  style="display: block;"><tspan dy="-0.8999999999999999em" >returns resolver</tspan><tspan dy="1.2em" x="0" >implementations</tspan><tspan dy="1.2em" x="0" >from</tspan></text></g><g id="v-1736"  label-idx="1" cursor="move" transform="matrix(1,0,0,1,3279,545.7999877929688)" style="cursor: default;"><rect joint-selector="rect" id="v-1740" fill="#ffffff" rx="3" ry="3" x="0" y="0" width="0" height="0"  display="none"></rect><text joint-selector="text" id="v-1739" fill="#000000" font-size="14" text-anchor="middle" text-vertical-anchor="middle" pointer-events="none"></text></g></g></g><!--z-index:34--><g   id="j_166"  style="opacity: 1;"><path fill="none" cursor="pointer" stroke="transparent" stroke-linecap="round" joint-selector="wrapper" id="v-1754" stroke-width="10" stroke-linejoin="round" d="M 3909 505.1 L 4119 505 C 4125.666666666666 505.13333333333327 4132 504.13333333333327 4138 502 L 4299 442.28"></path><path fill="none" pointer-events="none" joint-selector="line" id="v-1753" stroke="#444444" stroke-width="2" stroke-linejoin="round" stroke-dasharray="8 8" d="M 3909 505.1 L 4119 505 C 4125.666666666666 505.13333333333327 4132 504.13333333333327 4138 502 L 4299 442.28" marker-end="url(#v-21252848929)"></path><g id="v-1746" ><g id="v-1747"  label-idx="0" cursor="move" transform="matrix(1,0,0,1,4128.8984375,504.32635498046875)" style="cursor: default;"><rect joint-selector="rect" id="v-1750" fill="#ffffff" rx="3" ry="3" x="-81.38020324707031" y="-32.19999694824219" width="162.76040649414062" height="59.355552673339844" pointer-events="none"  style="display: block;"></rect><text joint-selector="text" id="v-1749" font-size="24px" xml:space="preserve" fill="#444444" text-anchor="middle" pointer-events="none" font-family="Tahoma, Verdana, Helvetica, Arial" font-weight="normal"  style="display: block;"><tspan dy="-0.3em" >reads LogEvent</tspan><tspan dy="1.2em" x="0" >fields from</tspan></text></g><g id="v-1748"  label-idx="1" cursor="move" transform="matrix(1,0,0,1,4118.8984375,530.7263793945312)" style="cursor: default;"><rect joint-selector="rect" id="v-1752" fill="#ffffff" rx="3" ry="3" x="0" y="0" width="0" height="0"  display="none"></rect><text joint-selector="text" id="v-1751" fill="#000000" font-size="14" text-anchor="middle" text-vertical-anchor="middle" pointer-events="none"></text></g></g></g><!--z-index:35--><g   id="j_167"  style="opacity: 1;"><path fill="none" cursor="pointer" stroke="transparent" stroke-linecap="round" joint-selector="wrapper" id="v-1766" stroke-width="10" stroke-linejoin="round" d="M 1539 779.8 L 1700 851 C 1706 853.7999999999998 1712.3333333333333 855.1333333333332 1719 855 L 1879 855.11"></path><path fill="none" pointer-events="none" joint-selector="line" id="v-1765" stroke="#444444" stroke-width="2" stroke-linejoin="round" stroke-dasharray="8 8" d="M 1539 779.8 L 1700 851 C 1706 853.7999999999998 1712.3333333333333 855.1333333333332 1719 855 L 1879 855.11" marker-end="url(#v-21252848929)"></path><g id="v-1758" ><g id="v-1759"  label-idx="0" cursor="move" transform="matrix(1,0,0,1,1709.212890625,854.0921630859375)" style="cursor: default;"><rect joint-selector="rect" id="v-1762" fill="#ffffff" rx="3" ry="3" x="-79.81770324707031" y="-32.19999694824219" width="159.63540649414062" height="59.355552673339844" pointer-events="none"  style="display: block;"></rect><text joint-selector="text" id="v-1761" font-size="24px" xml:space="preserve" fill="#444444" text-anchor="middle" pointer-events="none" font-family="Tahoma, Verdana, Helvetica, Arial" font-weight="normal"  style="display: block;"><tspan dy="-0.3em" >writes JSON</tspan><tspan dy="1.2em" x="0" >output through</tspan></text></g><g id="v-1760"  label-idx="1" cursor="move" transform="matrix(1,0,0,1,1699.212890625,880.4921875)" style="cursor: default;"><rect joint-selector="rect" id="v-1764" fill="#ffffff" rx="3" ry="3" x="-4.547473508864641e-13" y="0" width="0" height="0"  display="none"></rect><text joint-selector="text" id="v-1763" fill="#000000" font-size="14" text-anchor="middle" text-vertical-anchor="middle" pointer-events="none"></text></g></g></g><!--z-index:36--><!--z-index:37--><!--z-index:38--><!--z-index:39--><!--z-index:40--><!--z-index:41--><!--z-index:42--><!--z-index:43--><!--z-index:44--><!--z-index:45--><!--z-index:46--><!--z-index:47--><!--z-index:48--><!--z-index:49--><!--z-index:50--><!--z-index:51--><!--z-index:52--><!--z-index:53--><!--z-index:54--><!--z-index:55--><!--z-index:56--><!--z-index:57--><!--z-index:58--><!--z-index:59--><!--z-index:60--><!--z-index:61--><!--z-index:62--><!--z-index:63--><!--z-index:64--><!--z-index:65--><!--z-index:66--><!--z-index:67--><!--z-index:68--><!--z-index:69--><!--z-index:70--><!--z-index:71--><!--z-index:72--><!--z-index:73--><!--z-index:74--><!--z-index:75--><!--z-index:76--></g><g  style="user-select: none;"></g><g ></g><g  display="none"></g></g></svg>