<svg xmlns="http://www.w3.org/2000/svg" xmlns:xlink="http://www.w3.org/1999/xlink" version="1.1" width="4210" height="2108" style="width: 4210px; height: 2108px; background: #ffffff" viewBox="0 0 4210 2108"><style id="v-3" type="text/css">        .joint-element .scalable * {            vector-effect: non-scaling-stroke;        }    </style><defs joint-selector="defs"><marker id="v-21252848929" orient="auto" overflow="visible" markerUnits="userSpaceOnUse"><path id="v-105" stroke="#444444" fill="#444444" transform="rotate(180)" d="M 20 -10 0 0 20 10 Z"></path></marker></defs><g joint-selector="layers"  transform="matrix(1,0,0,1,0,0)"><g  style="pointer-events: none;"></g><g ></g><g  style="user-select: none;"><!--z-index:1--><!--z-index:2--><!--z-index:3--><!--z-index:4--><!--z-index:5--><!--z-index:6--><!--z-index:7--><!--z-index:8--><!--z-index:9--><!--z-index:10--><!--z-index:11--><!--z-index:12--><!--z-index:13--><!--z-index:14--><!--z-index:15--><!--z-index:16--><!--z-index:17--><!--z-index:18--><!--z-index:19--><g   id="j_169"  transform="translate(20,2064)"><g id="v-1775"><text  id="v-1776" font-size="24px" xml:space="preserve" y="0.8em" font-weight="normal" text-anchor="start" fill="#444444" pointer-events="none" display="block" font-family="Tahoma, Verdana, Helvetica, Arial"><tspan dy="0" >Monday, June 8, 2026 at 5:46 PM Central European Summer Time</tspan></text></g></g><!--z-index:20--><g   id="j_168"  transform="translate(20,2018)"><g id="v-1773"><text  id="v-1774" font-size="36px" xml:space="preserve" y="0.8em" font-weight="normal" text-anchor="start" fill="#444444" pointer-events="none" display="block" font-family="Tahoma, Verdana, Helvetica, Arial"><tspan dy="0" >C3 Component Diagram - log4j-slf4j2-impl</tspan></text></g></g><!--z-index:21--><g   id="j_170"  transform="translate(200,959)" style=""><g  id="v-1780" style="opacity: 1;"><rect  id="v-1781" rx="20" ry="20" stroke-width="2" pointer-events="visiblePainted" fill="#999999" stroke="#8a8a8a" stroke-dasharray="" width="450" height="300" style="fill: rgb(153, 153, 153); stroke: rgb(138, 138, 138);"></rect><text  id="v-1782" font-size="33.599999999999994px" xml:space="preserve" y="101.30000000000001" font-weight="bold" text-anchor="middle" pointer-events="visible" font-family="Tahoma, Verdana, Helvetica, Arial" fill="#ffffff" dominant-baseline="hanging" transform="matrix(1,0,0,1,225,0)" style="fill: rgb(255, 255, 255);"><tspan dy="0" >SLF4J 2 API</tspan></text><text  id="v-1783" font-size="16.799999999999997px" xml:space="preserve" y="142.9" text-anchor="middle" font-family="Tahoma, Verdana, Helvetica, Arial" fill="#ffffff" dominant-baseline="hanging" transform="matrix(1,0,0,1,225,0)" style="display: block; fill: rgb(255, 255, 255);"><tspan dy="0" >[Software System]</tspan></text><text  id="v-1784" font-size="24px" xml:space="preserve" y="174.7" text-anchor="middle" font-family="Tahoma, Verdana, Helvetica, Arial" fill="#ffffff" dominant-baseline="hanging" transform="matrix(1,0,0,1,225,0)" style="display: block; fill: rgb(255, 255, 255);"><tspan dy="0" >Logging facade bridged to Log4j2</tspan></text><g  id="v-1785" color="#ffffff" transform="matrix(1,0,0,1,222.5,268)" display="none" style="fill: rgb(255, 255, 255);"><g ></g><g ></g><g ></g><g ></g></g><image  id="v-1786"></image></g></g><!--z-index:22--><g   id="j_172"  transform="translate(990,159)" style="; opacity: 1;"><g id="v-1797"><rect  id="v-1798" width="3020" height="1708" rx="20" ry="20" stroke-width="2" pointer-events="none" stroke="#0f5eaa" fill="#ffffff" opacity="1" stroke-dasharray=""></rect><text  id="v-1799" font-size="33.599999999999994px" xml:space="preserve" y="1669" font-weight="bold" text-anchor="start" pointer-events="visible" font-family="Tahoma, Verdana, Helvetica, Arial" fill="#0f5eaa" transform="matrix(1,0,0,1,15,0)"><tspan dy="0" >Apache Log4j2</tspan></text><text  id="v-1800" font-size="16.799999999999997px" xml:space="preserve" y="1693" font-weight="normal" text-anchor="start" pointer-events="visible" font-family="Tahoma, Verdana, Helvetica, Arial" fill="#0f5eaa" transform="matrix(1,0,0,1,15,0)"><tspan dy="0" >[Software System]</tspan></text><image  id="v-1801" pointer-events="visible"></image></g></g><!--z-index:23--><g   id="j_171"  transform="translate(3510,584)" style=""><g  id="v-1790" style="opacity: 1;"><rect  id="v-1791" rx="20" ry="20" stroke-width="2" pointer-events="visiblePainted" fill="#438dd5" stroke="#3c7fc0" stroke-dasharray="" width="450" height="300" style="fill: rgb(67, 141, 213); stroke: rgb(60, 127, 192);"></rect><text  id="v-1792" font-size="33.599999999999994px" xml:space="preserve" y="86.9" font-weight="bold" text-anchor="middle" pointer-events="visible" font-family="Tahoma, Verdana, Helvetica, Arial" fill="#ffffff" dominant-baseline="hanging" transform="matrix(1,0,0,1,225,0)" style="fill: rgb(255, 255, 255);"><tspan dy="0" >log4j-api</tspan></text><text  id="v-1793" font-size="16.799999999999997px" xml:space="preserve" y="128.5" text-anchor="middle" font-family="Tahoma, Verdana, Helvetica, Arial" fill="#ffffff" dominant-baseline="hanging" transform="matrix(1,0,0,1,225,0)" style="display: block; fill: rgb(255, 255, 255);"><tspan dy="0" >[Container: Java]</tspan></text><text  id="v-1794" font-size="24px" xml:space="preserve" y="160.3" text-anchor="middle" font-family="Tahoma, Verdana, Helvetica, Arial" fill="#ffffff" dominant-baseline="hanging" transform="matrix(1,0,0,1,225,0)" style="display: block; fill: rgb(255, 255, 255);"><tspan dy="0" >Public logging API used by</tspan><tspan dy="1.2em" x="0" >applications and adapters</tspan></text><g  id="v-1795" color="#ffffff" transform="matrix(1,0,0,1,210,268)" display="none" style="fill: rgb(255, 255, 255);"><g  transform="translate(5 0)"><svg xmlns="http://www.w3.org/2000/svg" width="20" height="20" fill="currentColor" viewBox="0 0 16 16"><path fill-rule="evenodd" d="M6.5 12a5.5 5.5 0 1 0 0-11 5.5 5.5 0 0 0 0 11zM13 6.5a6.5 6.5 0 1 1-13 0 6.5 6.5 0 0 1 13 0z"></path><path d="M10.344 11.742c.03.04.062.078.098.115l3.85 3.85a1 1 0 0 0 1.415-1.414l-3.85-3.85a1.007 1.007 0 0 0-.115-.1 6.538 6.538 0 0 1-1.398 1.4z"></path><path fill-rule="evenodd" d="M6.5 3a.5.5 0 0 1 .5.5V6h2.5a.5.5 0 0 1 0 1H7v2.5a.5.5 0 0 1-1 0V7H3.5a.5.5 0 0 1 0-1H6V3.5a.5.5 0 0 1 .5-.5z"></path></svg></g><g ></g><g ></g><g ></g></g><image  id="v-1796"></image></g></g><!--z-index:24--><g   id="j_173"  transform="translate(2670,209)" style=""><g  id="v-1805" style="opacity: 1;"><rect  id="v-1806" rx="20" ry="20" stroke-width="2" pointer-events="visiblePainted" fill="#438dd5" stroke="#3c7fc0" stroke-dasharray="" width="450" height="300" style="fill: rgb(67, 141, 213); stroke: rgb(60, 127, 192);"></rect><text  id="v-1807" font-size="33.599999999999994px" xml:space="preserve" y="72.5" font-weight="bold" text-anchor="middle" pointer-events="visible" font-family="Tahoma, Verdana, Helvetica, Arial" fill="#ffffff" dominant-baseline="hanging" transform="matrix(1,0,0,1,225,0)" style="fill: rgb(255, 255, 255);"><tspan dy="0" >log4j-core</tspan></text><text  id="v-1808" font-size="16.799999999999997px" xml:space="preserve" y="114.1" text-anchor="middle" font-family="Tahoma, Verdana, Helvetica, Arial" fill="#ffffff" dominant-baseline="hanging" transform="matrix(1,0,0,1,225,0)" style="display: block; fill: rgb(255, 255, 255);"><tspan dy="0" >[Container: Java]</tspan></text><text  id="v-1809" font-size="24px" xml:space="preserve" y="145.89999999999998" text-anchor="middle" font-family="Tahoma, Verdana, Helvetica, Arial" fill="#ffffff" dominant-baseline="hanging" transform="matrix(1,0,0,1,225,0)" style="display: block; fill: rgb(255, 255, 255);"><tspan dy="0" >Logging implementation,</tspan><tspan dy="1.2em" x="0" >configuration, filters, appenders,</tspan><tspan dy="1.2em" x="0" >runtime pipeline</tspan></text><g  id="v-1810" color="#ffffff" transform="matrix(1,0,0,1,210,268)" display="none" style="fill: rgb(255, 255, 255);"><g  transform="translate(5 0)"><svg xmlns="http://www.w3.org/2000/svg" width="20" height="20" fill="currentColor" viewBox="0 0 16 16"><path fill-rule="evenodd" d="M6.5 12a5.5 5.5 0 1 0 0-11 5.5 5.5 0 0 0 0 11zM13 6.5a6.5 6.5 0 1 1-13 0 6.5 6.5 0 0 1 13 0z"></path><path d="M10.344 11.742c.03.04.062.078.098.115l3.85 3.85a1 1 0 0 0 1.415-1.414l-3.85-3.85a1.007 1.007 0 0 0-.115-.1 6.538 6.538 0 0 1-1.398 1.4z"></path><path fill-rule="evenodd" d="M6.5 3a.5.5 0 0 1 .5.5V6h2.5a.5.5 0 0 1 0 1H7v2.5a.5.5 0 0 1-1 0V7H3.5a.5.5 0 0 1 0-1H6V3.5a.5.5 0 0 1 .5-.5z"></path></svg></g><g ></g><g ></g><g ></g></g><image  id="v-1811"></image></g></g><!--z-index:25--><g   id="j_175"  transform="translate(1040,559)" style="; opacity: 1;"><g id="v-1819"><rect  id="v-1820" width="2130" height="1179" rx="20" ry="20" stroke-width="2" pointer-events="none" stroke="#3c7fc0" fill="#ffffff" opacity="1" stroke-dasharray=""></rect><text  id="v-1821" font-size="33.599999999999994px" xml:space="preserve" y="1140" font-weight="bold" text-anchor="start" pointer-events="visible" font-family="Tahoma, Verdana, Helvetica, Arial" fill="#3c7fc0" transform="matrix(1,0,0,1,15,0)"><tspan dy="0" >log4j-slf4j2-impl</tspan></text><text  id="v-1822" font-size="16.799999999999997px" xml:space="preserve" y="1164" font-weight="normal" text-anchor="start" pointer-events="visible" font-family="Tahoma, Verdana, Helvetica, Arial" fill="#3c7fc0" transform="matrix(1,0,0,1,15,0)"><tspan dy="0" >[Container]</tspan></text><image  id="v-1823" pointer-events="visible"></image></g></g><!--z-index:26--><g   id="j_174"  transform="translate(1090,609)" style=""><g  id="v-1812" style="opacity: 1;"><rect  id="v-1813" rx="20" ry="20" stroke-width="2" pointer-events="visiblePainted" fill="#85bbf0" stroke="#78a8d8" stroke-dasharray="" width="450" height="300" style="fill: rgb(133, 187, 240); stroke: rgb(120, 168, 216);"></rect><text  id="v-1814" font-size="33.599999999999994px" xml:space="preserve" y="101.30000000000001" font-weight="bold" text-anchor="middle" pointer-events="visible" font-family="Tahoma, Verdana, Helvetica, Arial" fill="#000000" dominant-baseline="hanging" transform="matrix(1,0,0,1,225,0)" style="fill: rgb(0, 0, 0);"><tspan dy="0" >Log4jMDCAdapter</tspan></text><text  id="v-1815" font-size="16.799999999999997px" xml:space="preserve" y="142.9" text-anchor="middle" font-family="Tahoma, Verdana, Helvetica, Arial" fill="#000000" dominant-baseline="hanging" transform="matrix(1,0,0,1,225,0)" style="display: block; fill: rgb(0, 0, 0);"><tspan dy="0" >[Component]</tspan></text><text  id="v-1816" font-size="24px" xml:space="preserve" y="174.7" text-anchor="middle" font-family="Tahoma, Verdana, Helvetica, Arial" fill="#000000" dominant-baseline="hanging" transform="matrix(1,0,0,1,225,0)" style="display: block; fill: rgb(0, 0, 0);"><tspan dy="0" >SLF4J MDC bridge</tspan></text><g  id="v-1817" color="#000000" transform="matrix(1,0,0,1,222.5,268)" display="none" style="fill: rgb(0, 0, 0);"><g ></g><g ></g><g ></g><g ></g></g><image  id="v-1818"></image></g></g><!--z-index:27--><g   id="j_176"  transform="translate(1090,959)" style=""><g  id="v-1830" style="opacity: 1;"><rect  id="v-1831" rx="20" ry="20" stroke-width="2" pointer-events="visiblePainted" fill="#85bbf0" stroke="#78a8d8" stroke-dasharray="" width="450" height="300" style="fill: rgb(133, 187, 240); stroke: rgb(120, 168, 216);"></rect><text  id="v-1832" font-size="33.599999999999994px" xml:space="preserve" y="101.30000000000001" font-weight="bold" text-anchor="middle" pointer-events="visible" font-family="Tahoma, Verdana, Helvetica, Arial" fill="#000000" dominant-baseline="hanging" transform="matrix(1,0,0,1,225,0)" style="fill: rgb(0, 0, 0);"><tspan dy="0" >Log4jServiceProvider</tspan></text><text  id="v-1833" font-size="16.799999999999997px" xml:space="preserve" y="142.9" text-anchor="middle" font-family="Tahoma, Verdana, Helvetica, Arial" fill="#000000" dominant-baseline="hanging" transform="matrix(1,0,0,1,225,0)" style="display: block; fill: rgb(0, 0, 0);"><tspan dy="0" >[Component]</tspan></text><text  id="v-1834" font-size="24px" xml:space="preserve" y="174.7" text-anchor="middle" font-family="Tahoma, Verdana, Helvetica, Arial" fill="#000000" dominant-baseline="hanging" transform="matrix(1,0,0,1,225,0)" style="display: block; fill: rgb(0, 0, 0);"><tspan dy="0" >SLF4J ServiceLoader provider</tspan></text><g  id="v-1835" color="#000000" transform="matrix(1,0,0,1,222.5,268)" display="none" style="fill: rgb(0, 0, 0);"><g ></g><g ></g><g ></g><g ></g></g><image  id="v-1836"></image></g></g><!--z-index:28--><g   id="j_177"  transform="translate(1880,959)" style=""><g  id="v-1843" style="opacity: 1;"><rect  id="v-1844" rx="20" ry="20" stroke-width="2" pointer-events="visiblePainted" fill="#85bbf0" stroke="#78a8d8" stroke-dasharray="" width="450" height="300" style="fill: rgb(133, 187, 240); stroke: rgb(120, 168, 216);"></rect><text  id="v-1845" font-size="33.599999999999994px" xml:space="preserve" y="101.30000000000001" font-weight="bold" text-anchor="middle" pointer-events="visible" font-family="Tahoma, Verdana, Helvetica, Arial" fill="#000000" dominant-baseline="hanging" transform="matrix(1,0,0,1,225,0)" style="fill: rgb(0, 0, 0);"><tspan dy="0" >Log4jLoggerFactory</tspan></text><text  id="v-1846" font-size="16.799999999999997px" xml:space="preserve" y="142.9" text-anchor="middle" font-family="Tahoma, Verdana, Helvetica, Arial" fill="#000000" dominant-baseline="hanging" transform="matrix(1,0,0,1,225,0)" style="display: block; fill: rgb(0, 0, 0);"><tspan dy="0" >[Component]</tspan></text><text  id="v-1847" font-size="24px" xml:space="preserve" y="174.7" text-anchor="middle" font-family="Tahoma, Verdana, Helvetica, Arial" fill="#000000" dominant-baseline="hanging" transform="matrix(1,0,0,1,225,0)" style="display: block; fill: rgb(0, 0, 0);"><tspan dy="0" >SLF4J logger factory adapter</tspan></text><g  id="v-1848" color="#000000" transform="matrix(1,0,0,1,222.5,268)" display="none" style="fill: rgb(0, 0, 0);"><g ></g><g ></g><g ></g><g ></g></g><image  id="v-1849"></image></g></g><!--z-index:29--><g   id="j_178"  transform="translate(2670,959)" style=""><g  id="v-1853" style="opacity: 1;"><rect  id="v-1854" rx="20" ry="20" stroke-width="2" pointer-events="visiblePainted" fill="#85bbf0" stroke="#78a8d8" stroke-dasharray="" width="450" height="300" style="fill: rgb(133, 187, 240); stroke: rgb(120, 168, 216);"></rect><text  id="v-1855" font-size="33.599999999999994px" xml:space="preserve" y="101.30000000000001" font-weight="bold" text-anchor="middle" pointer-events="visible" font-family="Tahoma, Verdana, Helvetica, Arial" fill="#000000" dominant-baseline="hanging" transform="matrix(1,0,0,1,225,0)" style="fill: rgb(0, 0, 0);"><tspan dy="0" >Log4jLogger</tspan></text><text  id="v-1856" font-size="16.799999999999997px" xml:space="preserve" y="142.9" text-anchor="middle" font-family="Tahoma, Verdana, Helvetica, Arial" fill="#000000" dominant-baseline="hanging" transform="matrix(1,0,0,1,225,0)" style="display: block; fill: rgb(0, 0, 0);"><tspan dy="0" >[Component]</tspan></text><text  id="v-1857" font-size="24px" xml:space="preserve" y="174.7" text-anchor="middle" font-family="Tahoma, Verdana, Helvetica, Arial" fill="#000000" dominant-baseline="hanging" transform="matrix(1,0,0,1,225,0)" style="display: block; fill: rgb(0, 0, 0);"><tspan dy="0" >SLF4J-to-Log4j adapter</tspan></text><g  id="v-1858" color="#000000" transform="matrix(1,0,0,1,222.5,268)" display="none" style="fill: rgb(0, 0, 0);"><g ></g><g ></g><g ></g><g ></g></g><image  id="v-1859"></image></g></g><!--z-index:30--><g   id="j_179"  transform="translate(1090,1309)" style=""><g  id="v-1863" style="opacity: 1;"><rect  id="v-1864" rx="20" ry="20" stroke-width="2" pointer-events="visiblePainted" fill="#85bbf0" stroke="#78a8d8" stroke-dasharray="" width="450" height="300" style="fill: rgb(133, 187, 240); stroke: rgb(120, 168, 216);"></rect><text  id="v-1865" font-size="33.599999999999994px" xml:space="preserve" y="101.30000000000001" font-weight="bold" text-anchor="middle" pointer-events="visible" font-family="Tahoma, Verdana, Helvetica, Arial" fill="#000000" dominant-baseline="hanging" transform="matrix(1,0,0,1,225,0)" style="fill: rgb(0, 0, 0);"><tspan dy="0" >Log4jMarkerFactory</tspan></text><text  id="v-1866" font-size="16.799999999999997px" xml:space="preserve" y="142.9" text-anchor="middle" font-family="Tahoma, Verdana, Helvetica, Arial" fill="#000000" dominant-baseline="hanging" transform="matrix(1,0,0,1,225,0)" style="display: block; fill: rgb(0, 0, 0);"><tspan dy="0" >[Component]</tspan></text><text  id="v-1867" font-size="24px" xml:space="preserve" y="174.7" text-anchor="middle" font-family="Tahoma, Verdana, Helvetica, Arial" fill="#000000" dominant-baseline="hanging" transform="matrix(1,0,0,1,225,0)" style="display: block; fill: rgb(0, 0, 0);"><tspan dy="0" >SLF4J marker bridge</tspan></text><g  id="v-1868" color="#000000" transform="matrix(1,0,0,1,222.5,268)" display="none" style="fill: rgb(0, 0, 0);"><g ></g><g ></g><g ></g><g ></g></g><image  id="v-1869"></image></g></g><!--z-index:31--><g   id="j_180"  style="opacity: 1;"><path fill="none" cursor="pointer" stroke="transparent" stroke-linecap="round" joint-selector="wrapper" id="v-1881" stroke-width="10" stroke-linejoin="round" d="M 594.29 959 L 813 766 C 817.6666666666666 761.3333333333333 823.3333333333333 759 830 759 L 1090 759"></path><path fill="none" pointer-events="none" joint-selector="line" id="v-1880" stroke="#444444" stroke-width="2" stroke-linejoin="round" stroke-dasharray="8 8" d="M 594.29 959 L 813 766 C 817.6666666666666 761.3333333333333 823.3333333333333 759 830 759 L 1090 759" marker-end="url(#v-21252848929)"></path><g id="v-1873" ><g id="v-1874"  label-idx="0" cursor="move" transform="matrix(1,0,0,1,820.6836547851562,760.7774658203125)" style="cursor: default;"><rect joint-selector="rect" id="v-1877" fill="#ffffff" rx="3" ry="3" x="-61.501731872558594" y="-46.59999465942383" width="123.00346374511719" height="88.15555572509766" pointer-events="none"  style="display: block;"></rect><text joint-selector="text" id="v-1876" font-size="24px" xml:space="preserve" fill="#444444" text-anchor="middle" pointer-events="none" font-family="Tahoma, Verdana, Helvetica, Arial" font-weight="normal"  style="display: block;"><tspan dy="-0.8999999999999999em" >routes MDC</tspan><tspan dy="1.2em" x="0" >operations</tspan><tspan dy="1.2em" x="0" >through</tspan></text></g><g id="v-1875"  label-idx="1" cursor="move" transform="matrix(1,0,0,1,810.6836547851562,801.5774536132812)" style="cursor: default;"><rect joint-selector="rect" id="v-1879" fill="#ffffff" rx="3" ry="3" x="0" y="0" width="0" height="0"  display="none"></rect><text joint-selector="text" id="v-1878" fill="#000000" font-size="14" text-anchor="middle" text-vertical-anchor="middle" pointer-events="none"></text></g></g></g><!--z-index:32--><g   id="j_181"  style="opacity: 1;"><path fill="none" cursor="pointer" stroke="transparent" stroke-linecap="round" joint-selector="wrapper" id="v-1893" stroke-width="10" stroke-linejoin="round" d="M 3120 359 L 3330 359 C 3336.6666666666665 359 3342.333333333333 361.3333333333333 3347 366 L 3577 584"></path><path fill="none" pointer-events="none" joint-selector="line" id="v-1892" stroke="#444444" stroke-width="2" stroke-linejoin="round" stroke-dasharray="8 8" d="M 3120 359 L 3330 359 C 3336.6666666666665 359 3342.333333333333 361.3333333333333 3347 366 L 3577 584" marker-end="url(#v-21252848929)"></path><g id="v-1885" ><g id="v-1886"  label-idx="0" cursor="move" transform="matrix(1,0,0,1,3339.349609375,360.791259765625)" style="cursor: default;"><rect joint-selector="rect" id="v-1889" fill="#ffffff" rx="3" ry="3" x="-77.66926574707031" y="-46.59999465942383" width="156.1637725830078" height="88.15555572509766" pointer-events="none"  style="display: block;"></rect><text joint-selector="text" id="v-1888" font-size="24px" xml:space="preserve" fill="#444444" text-anchor="middle" pointer-events="none" font-family="Tahoma, Verdana, Helvetica, Arial" font-weight="normal"  style="display: block;"><tspan dy="-0.8999999999999999em" >implements</tspan><tspan dy="1.2em" x="0" >logging</tspan><tspan dy="1.2em" x="0" >abstractions of</tspan></text></g><g id="v-1887"  label-idx="1" cursor="move" transform="matrix(1,0,0,1,3329.349609375,401.59124755859375)" style="cursor: default;"><rect joint-selector="rect" id="v-1891" fill="#ffffff" rx="3" ry="3" x="-4.547473508864641e-13" y="0" width="0" height="0"  display="none"></rect><text joint-selector="text" id="v-1890" fill="#000000" font-size="14" text-anchor="middle" text-vertical-anchor="middle" pointer-events="none"></text></g></g></g><!--z-index:33--><g   id="j_182"  style="opacity: 1;"><path fill="none" cursor="pointer" stroke="transparent" stroke-linecap="round" joint-selector="wrapper" id="v-1905" stroke-width="10" stroke-linejoin="round" d="M 650 1109 L 1090 1109"></path><path fill="none" pointer-events="none" joint-selector="line" id="v-1904" stroke="#444444" stroke-width="2" stroke-linejoin="round" stroke-dasharray="8 8" d="M 650 1109 L 1090 1109" marker-end="url(#v-21252848929)"></path><g id="v-1897" ><g id="v-1898"  label-idx="0" cursor="move" transform="matrix(1,0,0,1,820,1109)" style="cursor: default;"><rect joint-selector="rect" id="v-1901" fill="#ffffff" rx="3" ry="3" x="-95.6814193725586" y="-46.59999465942383" width="191.3628387451172" height="88.15555572509766" pointer-events="none"  style="display: block;"></rect><text joint-selector="text" id="v-1900" font-size="24px" xml:space="preserve" fill="#444444" text-anchor="middle" pointer-events="none" font-family="Tahoma, Verdana, Helvetica, Arial" font-weight="normal"  style="display: block;"><tspan dy="-0.8999999999999999em" >discovers provider</tspan><tspan dy="1.2em" x="0" >through</tspan><tspan dy="1.2em" x="0" >ServiceLoader</tspan></text></g><g id="v-1899"  label-idx="1" cursor="move" transform="matrix(1,0,0,1,810,1149.800048828125)" style="cursor: default;"><rect joint-selector="rect" id="v-1903" fill="#ffffff" rx="3" ry="3" x="0" y="0" width="0" height="0"  display="none"></rect><text joint-selector="text" id="v-1902" fill="#000000" font-size="14" text-anchor="middle" text-vertical-anchor="middle" pointer-events="none"></text></g></g></g><!--z-index:34--><g   id="j_183"  style="opacity: 1;"><path fill="none" cursor="pointer" stroke="transparent" stroke-linecap="round" joint-selector="wrapper" id="v-1917" stroke-width="10" stroke-linejoin="round" d="M 1540 1109 L 1880 1109"></path><path fill="none" pointer-events="none" joint-selector="line" id="v-1916" stroke="#444444" stroke-width="2" stroke-linejoin="round" stroke-dasharray="8 8" d="M 1540 1109 L 1880 1109" marker-end="url(#v-21252848929)"></path><g id="v-1909" ><g id="v-1910"  label-idx="0" cursor="move" transform="matrix(1,0,0,1,1710,1109)" style="cursor: default;"><rect joint-selector="rect" id="v-1913" fill="#ffffff" rx="3" ry="3" x="-81.29339599609375" y="-32.19999694824219" width="162.5867919921875" height="59.355552673339844" pointer-events="none"  style="display: block;"></rect><text joint-selector="text" id="v-1912" font-size="24px" xml:space="preserve" fill="#444444" text-anchor="middle" pointer-events="none" font-family="Tahoma, Verdana, Helvetica, Arial" font-weight="normal"  style="display: block;"><tspan dy="-0.3em" >provides logger</tspan><tspan dy="1.2em" x="0" >factory</tspan></text></g><g id="v-1911"  label-idx="1" cursor="move" transform="matrix(1,0,0,1,1700,1135.4000244140625)" style="cursor: default;"><rect joint-selector="rect" id="v-1915" fill="#ffffff" rx="3" ry="3" x="0" y="0" width="0" height="0"  display="none"></rect><text joint-selector="text" id="v-1914" fill="#000000" font-size="14" text-anchor="middle" text-vertical-anchor="middle" pointer-events="none"></text></g></g></g><!--z-index:35--><g   id="j_184"  style="opacity: 1;"><path fill="none" cursor="pointer" stroke="transparent" stroke-linecap="round" joint-selector="wrapper" id="v-1929" stroke-width="10" stroke-linejoin="round" d="M 2330 1109 L 2670 1109"></path><path fill="none" pointer-events="none" joint-selector="line" id="v-1928" stroke="#444444" stroke-width="2" stroke-linejoin="round" stroke-dasharray="8 8" d="M 2330 1109 L 2670 1109" marker-end="url(#v-21252848929)"></path><g id="v-1921" ><g id="v-1922"  label-idx="0" cursor="move" transform="matrix(1,0,0,1,2500,1109)" style="cursor: default;"><rect joint-selector="rect" id="v-1925" fill="#ffffff" rx="3" ry="3" x="-82.37847137451172" y="-32.19999694824219" width="164.75694274902344" height="59.355552673339844" pointer-events="none"  style="display: block;"></rect><text joint-selector="text" id="v-1924" font-size="24px" xml:space="preserve" fill="#444444" text-anchor="middle" pointer-events="none" font-family="Tahoma, Verdana, Helvetica, Arial" font-weight="normal"  style="display: block;"><tspan dy="-0.3em" >creates adapter</tspan><tspan dy="1.2em" x="0" >logger</tspan></text></g><g id="v-1923"  label-idx="1" cursor="move" transform="matrix(1,0,0,1,2490,1135.4000244140625)" style="cursor: default;"><rect joint-selector="rect" id="v-1927" fill="#ffffff" rx="3" ry="3" x="0" y="0" width="0" height="0"  display="none"></rect><text joint-selector="text" id="v-1926" fill="#000000" font-size="14" text-anchor="middle" text-vertical-anchor="middle" pointer-events="none"></text></g></g></g><!--z-index:36--><g   id="j_185"  style="opacity: 1;"><path fill="none" cursor="pointer" stroke="transparent" stroke-linecap="round" joint-selector="wrapper" id="v-1941" stroke-width="10" stroke-linejoin="round" d="M 3120 1109 L 3330 1109 C 3336.6666666666665 1109 3342.333333333333 1106.6666666666665 3347 1102 L 3577 884"></path><path fill="none" pointer-events="none" joint-selector="line" id="v-1940" stroke="#444444" stroke-width="2" stroke-linejoin="round" stroke-dasharray="8 8" d="M 3120 1109 L 3330 1109 C 3336.6666666666665 1109 3342.333333333333 1106.6666666666665 3347 1102 L 3577 884" marker-end="url(#v-21252848929)"></path><g id="v-1933" ><g id="v-1934"  label-idx="0" cursor="move" transform="matrix(1,0,0,1,3339.349609375,1107.208740234375)" style="cursor: default;"><rect joint-selector="rect" id="v-1937" fill="#ffffff" rx="3" ry="3" x="-84.85242462158203" y="-32.19999694824219" width="169.70484924316406" height="59.355552673339844" pointer-events="none"  style="display: block;"></rect><text joint-selector="text" id="v-1936" font-size="24px" xml:space="preserve" fill="#444444" text-anchor="middle" pointer-events="none" font-family="Tahoma, Verdana, Helvetica, Arial" font-weight="normal"  style="display: block;"><tspan dy="-0.3em" >delegates SLF4J</tspan><tspan dy="1.2em" x="0" >Logger calls to</tspan></text></g><g id="v-1935"  label-idx="1" cursor="move" transform="matrix(1,0,0,1,3329.349609375,1133.6087646484375)" style="cursor: default;"><rect joint-selector="rect" id="v-1939" fill="#ffffff" rx="3" ry="3" x="-4.547473508864641e-13" y="0" width="0" height="0"  display="none"></rect><text joint-selector="text" id="v-1938" fill="#000000" font-size="14" text-anchor="middle" text-vertical-anchor="middle" pointer-events="none"></text></g></g></g><!--z-index:37--><g   id="j_186"  style="opacity: 1;"><path fill="none" cursor="pointer" stroke="transparent" stroke-linecap="round" joint-selector="wrapper" id="v-1953" stroke-width="10" stroke-linejoin="round" d="M 594.29 1259 L 813 1452 C 817.6666666666666 1456.6666666666665 823.3333333333333 1459 830 1459 L 1090 1459"></path><path fill="none" pointer-events="none" joint-selector="line" id="v-1952" stroke="#444444" stroke-width="2" stroke-linejoin="round" stroke-dasharray="8 8" d="M 594.29 1259 L 813 1452 C 817.6666666666666 1456.6666666666665 823.3333333333333 1459 830 1459 L 1090 1459" marker-end="url(#v-21252848929)"></path><g id="v-1945" ><g id="v-1946"  label-idx="0" cursor="move" transform="matrix(1,0,0,1,820.6836547851562,1457.2225341796875)" style="cursor: default;"><rect joint-selector="rect" id="v-1949" fill="#ffffff" rx="3" ry="3" x="-74.13194274902344" y="-46.59999465942383" width="148.26388549804688" height="88.15555572509766" pointer-events="none"  style="display: block;"></rect><text joint-selector="text" id="v-1948" font-size="24px" xml:space="preserve" fill="#444444" text-anchor="middle" pointer-events="none" font-family="Tahoma, Verdana, Helvetica, Arial" font-weight="normal"  style="display: block;"><tspan dy="-0.8999999999999999em" >routes marker</tspan><tspan dy="1.2em" x="0" >operations</tspan><tspan dy="1.2em" x="0" >through</tspan></text></g><g id="v-1947"  label-idx="1" cursor="move" transform="matrix(1,0,0,1,810.6836547851562,1498.0225830078125)" style="cursor: default;"><rect joint-selector="rect" id="v-1951" fill="#ffffff" rx="3" ry="3" x="0" y="0" width="0" height="0"  display="none"></rect><text joint-selector="text" id="v-1950" fill="#000000" font-size="14" text-anchor="middle" text-vertical-anchor="middle" pointer-events="none"></text></g></g></g><!--z-index:38--><!--z-index:39--><!--z-index:40--><!--z-index:41--><!--z-index:42--><!--z-index:43--><!--z-index:44--><!--z-index:45--><!--z-index:46--><!--z-index:47--><!--z-index:48--><!--z-index:49--><!--z-index:50--><!--z-index:51--><!--z-index:52--><!--z-index:53--><!--z-index:54--><!--z-index:55--><!--z-index:56--><!--z-index:57--><!--z-index:58--><!--z-index:59--><!--z-index:60--><!--z-index:61--><!--z-index:62--><!--z-index:63--><!--z-index:64--><!--z-index:65--><!--z-index:66--><!--z-index:67--><!--z-index:68--><!--z-index:69--><!--z-index:70--><!--z-index:71--><!--z-index:72--><!--z-index:73--><!--z-index:74--><!--z-index:75--><!--z-index:76--></g><g  style="user-select: none;"></g><g ></g><g  display="none"></g></g></svg>