<svg xmlns="http://www.w3.org/2000/svg" xmlns:xlink="http://www.w3.org/1999/xlink" version="1.1" style="background: #ffffff" viewBox="0 0 5270 2395"><style id="v-3" type="text/css">        .joint-element .scalable * {            vector-effect: non-scaling-stroke;        }    </style><defs joint-selector="defs"><marker id="v-21252848929" orient="auto" overflow="visible" markerUnits="userSpaceOnUse"><path id="v-171" stroke="#444444" fill="#444444" transform="rotate(180)" d="M 20 -10 0 0 20 10 Z"></path></marker></defs><g joint-selector="layers"  transform="matrix(1,0,0,1,0,0)"><g  style="pointer-events: none;"></g><g ></g><g  style="user-select: none;"><!--z-index:1--><!--z-index:2--><!--z-index:3--><!--z-index:4--><!--z-index:5--><!--z-index:6--><!--z-index:7--><!--z-index:8--><!--z-index:9--><!--z-index:10--><!--z-index:11--><!--z-index:12--><!--z-index:13--><!--z-index:14--><!--z-index:15--><!--z-index:16--><!--z-index:17--><!--z-index:18--><!--z-index:19--><!--z-index:20--><!--z-index:21--><!--z-index:22--><!--z-index:23--><!--z-index:24--><!--z-index:25--><!--z-index:26--><!--z-index:27--><!--z-index:28--><!--z-index:29--><!--z-index:30--><g   id="j_47"  transform="translate(20,2351)"><g id="v-481"><text  id="v-482" font-size="24px" xml:space="preserve" y="0.8em" font-weight="normal" text-anchor="start" fill="#444444" pointer-events="none" display="block" font-family="Tahoma, Verdana, Helvetica, Arial"><tspan dy="0" >Sunday, June 7, 2026 at 11:12 PM Türkiye Standard Time</tspan></text></g></g><!--z-index:31--><g   id="j_46"  transform="translate(20,2305)"><g id="v-479"><text  id="v-480" font-size="36px" xml:space="preserve" y="0.8em" font-weight="normal" text-anchor="start" fill="#444444" pointer-events="none" display="block" font-family="Tahoma, Verdana, Helvetica, Arial"><tspan dy="0" >C3 Component Diagram - log4j-core / Part 2</tspan></text></g></g><!--z-index:32--><g   id="j_48"  transform="translate(200,1194)" style=""><g  id="v-483" style="opacity: 1;"><rect  id="v-484" rx="20" ry="20" stroke-width="2" pointer-events="visiblePainted" fill="#999999" stroke="#8a8a8a" stroke-dasharray="" width="450" height="300" style="fill: rgb(153, 153, 153); stroke: rgb(138, 138, 138);"></rect><text  id="v-485" font-size="33.599999999999994px" xml:space="preserve" y="101.30000000000001" font-weight="bold" text-anchor="middle" pointer-events="visible" font-family="Tahoma, Verdana, Helvetica, Arial" fill="#ffffff" dominant-baseline="hanging" transform="matrix(1,0,0,1,225,0)" style="fill: rgb(255, 255, 255);"><tspan dy="0" >File System</tspan></text><text  id="v-486" font-size="16.799999999999997px" xml:space="preserve" y="142.9" text-anchor="middle" font-family="Tahoma, Verdana, Helvetica, Arial" fill="#ffffff" dominant-baseline="hanging" transform="matrix(1,0,0,1,225,0)" style="display: block; fill: rgb(255, 255, 255);"><tspan dy="0" >[Software System]</tspan></text><text  id="v-487" font-size="24px" xml:space="preserve" y="174.7" text-anchor="middle" font-family="Tahoma, Verdana, Helvetica, Arial" fill="#ffffff" dominant-baseline="hanging" transform="matrix(1,0,0,1,225,0)" style="display: block; fill: rgb(255, 255, 255);"><tspan dy="0" >Log file destination</tspan></text><g  id="v-488" color="#ffffff" transform="matrix(1,0,0,1,222.5,268)" display="none" style="fill: rgb(255, 255, 255);"><g ></g><g ></g><g ></g><g ></g></g><image  id="v-489"></image></g></g><!--z-index:33--><g   id="j_49"  transform="translate(700,1194)" style=""><g  id="v-493" style="opacity: 1;"><rect  id="v-494" rx="20" ry="20" stroke-width="2" pointer-events="visiblePainted" fill="#999999" stroke="#8a8a8a" stroke-dasharray="" width="450" height="300" style="fill: rgb(153, 153, 153); stroke: rgb(138, 138, 138);"></rect><text  id="v-495" font-size="33.599999999999994px" xml:space="preserve" y="101.30000000000001" font-weight="bold" text-anchor="middle" pointer-events="visible" font-family="Tahoma, Verdana, Helvetica, Arial" fill="#ffffff" dominant-baseline="hanging" transform="matrix(1,0,0,1,225,0)" style="fill: rgb(255, 255, 255);"><tspan dy="0" >Console</tspan></text><text  id="v-496" font-size="16.799999999999997px" xml:space="preserve" y="142.9" text-anchor="middle" font-family="Tahoma, Verdana, Helvetica, Arial" fill="#ffffff" dominant-baseline="hanging" transform="matrix(1,0,0,1,225,0)" style="display: block; fill: rgb(255, 255, 255);"><tspan dy="0" >[Software System]</tspan></text><text  id="v-497" font-size="24px" xml:space="preserve" y="174.7" text-anchor="middle" font-family="Tahoma, Verdana, Helvetica, Arial" fill="#ffffff" dominant-baseline="hanging" transform="matrix(1,0,0,1,225,0)" style="display: block; fill: rgb(255, 255, 255);"><tspan dy="0" >Standard output / error</tspan></text><g  id="v-498" color="#ffffff" transform="matrix(1,0,0,1,222.5,268)" display="none" style="fill: rgb(255, 255, 255);"><g ></g><g ></g><g ></g><g ></g></g><image  id="v-499"></image></g></g><!--z-index:34--><g   id="j_50"  transform="translate(1200,1194)" style=""><g  id="v-503" style="opacity: 1;"><rect  id="v-504" rx="20" ry="20" stroke-width="2" pointer-events="visiblePainted" fill="#999999" stroke="#8a8a8a" stroke-dasharray="" width="450" height="300" style="fill: rgb(153, 153, 153); stroke: rgb(138, 138, 138);"></rect><text  id="v-505" font-size="33.599999999999994px" xml:space="preserve" y="101.30000000000001" font-weight="bold" text-anchor="middle" pointer-events="visible" font-family="Tahoma, Verdana, Helvetica, Arial" fill="#ffffff" dominant-baseline="hanging" transform="matrix(1,0,0,1,225,0)" style="fill: rgb(255, 255, 255);"><tspan dy="0" >Network Endpoints</tspan></text><text  id="v-506" font-size="16.799999999999997px" xml:space="preserve" y="142.9" text-anchor="middle" font-family="Tahoma, Verdana, Helvetica, Arial" fill="#ffffff" dominant-baseline="hanging" transform="matrix(1,0,0,1,225,0)" style="display: block; fill: rgb(255, 255, 255);"><tspan dy="0" >[Software System]</tspan></text><text  id="v-507" font-size="24px" xml:space="preserve" y="174.7" text-anchor="middle" font-family="Tahoma, Verdana, Helvetica, Arial" fill="#ffffff" dominant-baseline="hanging" transform="matrix(1,0,0,1,225,0)" style="display: block; fill: rgb(255, 255, 255);"><tspan dy="0" >Syslog / HTTP / SMTP</tspan></text><g  id="v-508" color="#ffffff" transform="matrix(1,0,0,1,222.5,268)" display="none" style="fill: rgb(255, 255, 255);"><g ></g><g ></g><g ></g><g ></g></g><image  id="v-509"></image></g></g><!--z-index:35--><g   id="j_51"  transform="translate(1700,1725)" style=""><g  id="v-513" style="opacity: 1;"><path  d="M 0,30 a 225,30 0,0,0 450 0 a 225,30 0,0,0 -450 0 l 0,240 a 225,30 0,0,0 450 0 l 0,-240" id="v-514" stroke-width="2" pointer-events="visiblePainted" fill="#999999" stroke="#8a8a8a" stroke-dasharray="" style="fill: rgb(153, 153, 153); stroke: rgb(138, 138, 138);"></path><rect  id="v-515" stroke-width="0" pointer-events="visiblePainted" fill="none" stroke="none" width="450" height="270" x="0" y="30"></rect><text  id="v-516" font-size="33.599999999999994px" xml:space="preserve" y="116.30000000000001" font-weight="bold" text-anchor="middle" pointer-events="visible" font-family="Tahoma, Verdana, Helvetica, Arial" fill="#ffffff" dominant-baseline="hanging" transform="matrix(1,0,0,1,225,0)" style="fill: rgb(255, 255, 255);"><tspan dy="0" >JDBC Databases</tspan></text><text  id="v-517" font-size="16.799999999999997px" xml:space="preserve" y="157.9" text-anchor="middle" font-family="Tahoma, Verdana, Helvetica, Arial" fill="#ffffff" dominant-baseline="hanging" transform="matrix(1,0,0,1,225,0)" style="display: block; fill: rgb(255, 255, 255);"><tspan dy="0" >[Software System]</tspan></text><text  id="v-518" font-size="24px" xml:space="preserve" y="189.7" text-anchor="middle" font-family="Tahoma, Verdana, Helvetica, Arial" fill="#ffffff" dominant-baseline="hanging" transform="matrix(1,0,0,1,225,0)" style="display: block; fill: rgb(255, 255, 255);"><tspan dy="0" >Relational database destinations</tspan></text><g  id="v-519" font-weight="normal" text-anchor="middle" color="#ffffff" transform="matrix(1,0,0,1,222.5,268)" display="none" style="fill: rgb(255, 255, 255);"><g ></g><g ></g><g ></g><g ></g></g><image  id="v-520"></image></g></g><!--z-index:36--><g   id="j_52"  transform="translate(1700,1194)" style=""><g  id="v-527" style="opacity: 1;"><rect  id="v-528" rx="20" ry="20" stroke-width="2" pointer-events="visiblePainted" fill="#999999" stroke="#8a8a8a" stroke-dasharray="" width="450" height="300" style="fill: rgb(153, 153, 153); stroke: rgb(138, 138, 138);"></rect><text  id="v-529" font-size="33.599999999999994px" xml:space="preserve" y="81.14000000000001" font-weight="bold" text-anchor="middle" pointer-events="visible" font-family="Tahoma, Verdana, Helvetica, Arial" fill="#ffffff" dominant-baseline="hanging" transform="matrix(1,0,0,1,225,0)" style="fill: rgb(255, 255, 255);"><tspan dy="0" >Log Aggregation /</tspan><tspan dy="1.2em" x="0" >Monitoring</tspan></text><text  id="v-530" font-size="16.799999999999997px" xml:space="preserve" y="163.06" text-anchor="middle" font-family="Tahoma, Verdana, Helvetica, Arial" fill="#ffffff" dominant-baseline="hanging" transform="matrix(1,0,0,1,225,0)" style="display: block; fill: rgb(255, 255, 255);"><tspan dy="0" >[Software System]</tspan></text><text  id="v-531" font-size="24px" xml:space="preserve" y="194.86" text-anchor="middle" font-family="Tahoma, Verdana, Helvetica, Arial" fill="#ffffff" dominant-baseline="hanging" transform="matrix(1,0,0,1,225,0)" style="display: block; fill: rgb(255, 255, 255);"><tspan dy="0" >Downstream observability stacks</tspan></text><g  id="v-532" color="#ffffff" transform="matrix(1,0,0,1,222.5,268)" display="none" style="fill: rgb(255, 255, 255);"><g ></g><g ></g><g ></g><g ></g></g><image  id="v-533"></image></g></g><!--z-index:37--><g   id="j_54"  transform="translate(2200,160)" style="; opacity: 1;"><g id="v-544"><rect  id="v-545" width="2870" height="1994" rx="20" ry="20" stroke-width="2" pointer-events="none" stroke="#0f5eaa" fill="#ffffff" opacity="1" stroke-dasharray=""></rect><text  id="v-546" font-size="33.599999999999994px" xml:space="preserve" y="1955" font-weight="bold" text-anchor="start" pointer-events="visible" font-family="Tahoma, Verdana, Helvetica, Arial" fill="#0f5eaa" transform="matrix(1,0,0,1,15,0)"><tspan dy="0" >Apache Log4j2</tspan></text><text  id="v-547" font-size="16.799999999999997px" xml:space="preserve" y="1979" font-weight="normal" text-anchor="start" pointer-events="visible" font-family="Tahoma, Verdana, Helvetica, Arial" fill="#0f5eaa" transform="matrix(1,0,0,1,15,0)"><tspan dy="0" >[Software System]</tspan></text><image  id="v-548" pointer-events="visible"></image></g></g><!--z-index:38--><g   id="j_53"  transform="translate(3165,1725)" style=""><g  id="v-537" style="opacity: 1;"><rect  id="v-538" rx="20" ry="20" stroke-width="2" pointer-events="visiblePainted" fill="#438dd5" stroke="#3c7fc0" stroke-dasharray="" width="450" height="300" style="fill: rgb(67, 141, 213); stroke: rgb(60, 127, 192);"></rect><text  id="v-539" font-size="33.599999999999994px" xml:space="preserve" y="86.9" font-weight="bold" text-anchor="middle" pointer-events="visible" font-family="Tahoma, Verdana, Helvetica, Arial" fill="#ffffff" dominant-baseline="hanging" transform="matrix(1,0,0,1,225,0)" style="fill: rgb(255, 255, 255);"><tspan dy="0" >log4j-api</tspan></text><text  id="v-540" font-size="16.799999999999997px" xml:space="preserve" y="128.5" text-anchor="middle" font-family="Tahoma, Verdana, Helvetica, Arial" fill="#ffffff" dominant-baseline="hanging" transform="matrix(1,0,0,1,225,0)" style="display: block; fill: rgb(255, 255, 255);"><tspan dy="0" >[Container: Java]</tspan></text><text  id="v-541" font-size="24px" xml:space="preserve" y="160.3" text-anchor="middle" font-family="Tahoma, Verdana, Helvetica, Arial" fill="#ffffff" dominant-baseline="hanging" transform="matrix(1,0,0,1,225,0)" style="display: block; fill: rgb(255, 255, 255);"><tspan dy="0" >Public logging API used by</tspan><tspan dy="1.2em" x="0" >applications and adapters</tspan></text><g  id="v-542" color="#ffffff" transform="matrix(1,0,0,1,210,268)" display="none" style="fill: rgb(255, 255, 255);"><g  transform="translate(5 0)"><svg xmlns="http://www.w3.org/2000/svg" width="20" height="20" fill="currentColor" viewBox="0 0 16 16"><path fill-rule="evenodd" d="M6.5 12a5.5 5.5 0 1 0 0-11 5.5 5.5 0 0 0 0 11zM13 6.5a6.5 6.5 0 1 1-13 0 6.5 6.5 0 0 1 13 0z"></path><path d="M10.344 11.742c.03.04.062.078.098.115l3.85 3.85a1 1 0 0 0 1.415-1.414l-3.85-3.85a1.007 1.007 0 0 0-.115-.1 6.538 6.538 0 0 1-1.398 1.4z"></path><path fill-rule="evenodd" d="M6.5 3a.5.5 0 0 1 .5.5V6h2.5a.5.5 0 0 1 0 1H7v2.5a.5.5 0 0 1-1 0V7H3.5a.5.5 0 0 1 0-1H6V3.5a.5.5 0 0 1 .5-.5z"></path></svg></g><g ></g><g ></g><g ></g></g><image  id="v-543"></image></g></g><!--z-index:39--><g   id="j_56"  transform="translate(3515,210)" style="; opacity: 1;"><g id="v-559"><rect  id="v-560" width="1505" height="1413" rx="20" ry="20" stroke-width="2" pointer-events="none" stroke="#3c7fc0" fill="#ffffff" opacity="1" stroke-dasharray=""></rect><text  id="v-561" font-size="33.599999999999994px" xml:space="preserve" y="1374" font-weight="bold" text-anchor="start" pointer-events="visible" font-family="Tahoma, Verdana, Helvetica, Arial" fill="#3c7fc0" transform="matrix(1,0,0,1,15,0)"><tspan dy="0" >log4j-core</tspan></text><text  id="v-562" font-size="16.799999999999997px" xml:space="preserve" y="1398" font-weight="normal" text-anchor="start" pointer-events="visible" font-family="Tahoma, Verdana, Helvetica, Arial" fill="#3c7fc0" transform="matrix(1,0,0,1,15,0)"><tspan dy="0" >[Container]</tspan></text><image  id="v-563" pointer-events="visible"></image></g></g><!--z-index:40--><g   id="j_61"  transform="translate(4520,1725)" style=""><g  id="v-610" style="opacity: 1;"><rect  id="v-611" rx="20" ry="20" stroke-width="2" pointer-events="visiblePainted" fill="#438dd5" stroke="#3c7fc0" stroke-dasharray="" width="450" height="300" style="fill: rgb(67, 141, 213); stroke: rgb(60, 127, 192);"></rect><text  id="v-612" font-size="33.599999999999994px" xml:space="preserve" y="86.9" font-weight="bold" text-anchor="middle" pointer-events="visible" font-family="Tahoma, Verdana, Helvetica, Arial" fill="#ffffff" dominant-baseline="hanging" transform="matrix(1,0,0,1,225,0)" style="fill: rgb(255, 255, 255);"><tspan dy="0" >log4j-layout-template-json</tspan></text><text  id="v-613" font-size="16.799999999999997px" xml:space="preserve" y="128.5" text-anchor="middle" font-family="Tahoma, Verdana, Helvetica, Arial" fill="#ffffff" dominant-baseline="hanging" transform="matrix(1,0,0,1,225,0)" style="display: block; fill: rgb(255, 255, 255);"><tspan dy="0" >[Container: Java]</tspan></text><text  id="v-614" font-size="24px" xml:space="preserve" y="160.3" text-anchor="middle" font-family="Tahoma, Verdana, Helvetica, Arial" fill="#ffffff" dominant-baseline="hanging" transform="matrix(1,0,0,1,225,0)" style="display: block; fill: rgb(255, 255, 255);"><tspan dy="0" >JSON layout templates for</tspan><tspan dy="1.2em" x="0" >structured output</tspan></text><g  id="v-615" color="#ffffff" transform="matrix(1,0,0,1,210,268)" display="none" style="fill: rgb(255, 255, 255);"><g  transform="translate(5 0)"><svg xmlns="http://www.w3.org/2000/svg" width="20" height="20" fill="currentColor" viewBox="0 0 16 16"><path fill-rule="evenodd" d="M6.5 12a5.5 5.5 0 1 0 0-11 5.5 5.5 0 0 0 0 11zM13 6.5a6.5 6.5 0 1 1-13 0 6.5 6.5 0 0 1 13 0z"></path><path d="M10.344 11.742c.03.04.062.078.098.115l3.85 3.85a1 1 0 0 0 1.415-1.414l-3.85-3.85a1.007 1.007 0 0 0-.115-.1 6.538 6.538 0 0 1-1.398 1.4z"></path><path fill-rule="evenodd" d="M6.5 3a.5.5 0 0 1 .5.5V6h2.5a.5.5 0 0 1 0 1H7v2.5a.5.5 0 0 1-1 0V7H3.5a.5.5 0 0 1 0-1H6V3.5a.5.5 0 0 1 .5-.5z"></path></svg></g><g ></g><g ></g><g ></g></g><image  id="v-616"></image></g></g><!--z-index:41--><g   id="j_62"  transform="translate(2250,1194)" style=""><g  id="v-626" style="opacity: 1;"><rect  id="v-627" rx="20" ry="20" stroke-width="2" pointer-events="visiblePainted" fill="#438dd5" stroke="#3c7fc0" stroke-dasharray="" width="450" height="300" style="fill: rgb(67, 141, 213); stroke: rgb(60, 127, 192);"></rect><text  id="v-628" font-size="33.599999999999994px" xml:space="preserve" y="86.9" font-weight="bold" text-anchor="middle" pointer-events="visible" font-family="Tahoma, Verdana, Helvetica, Arial" fill="#ffffff" dominant-baseline="hanging" transform="matrix(1,0,0,1,225,0)" style="fill: rgb(255, 255, 255);"><tspan dy="0" >log4j-jdbc-dbcp2</tspan></text><text  id="v-629" font-size="16.799999999999997px" xml:space="preserve" y="128.5" text-anchor="middle" font-family="Tahoma, Verdana, Helvetica, Arial" fill="#ffffff" dominant-baseline="hanging" transform="matrix(1,0,0,1,225,0)" style="display: block; fill: rgb(255, 255, 255);"><tspan dy="0" >[Container: Java, Apache DBCP2]</tspan></text><text  id="v-630" font-size="24px" xml:space="preserve" y="160.3" text-anchor="middle" font-family="Tahoma, Verdana, Helvetica, Arial" fill="#ffffff" dominant-baseline="hanging" transform="matrix(1,0,0,1,225,0)" style="display: block; fill: rgb(255, 255, 255);"><tspan dy="0" >JDBC appender integration writing</tspan><tspan dy="1.2em" x="0" >log events to databases</tspan></text><g  id="v-631" color="#ffffff" transform="matrix(1,0,0,1,210,268)" display="none" style="fill: rgb(255, 255, 255);"><g  transform="translate(5 0)"><svg xmlns="http://www.w3.org/2000/svg" width="20" height="20" fill="currentColor" viewBox="0 0 16 16"><path fill-rule="evenodd" d="M6.5 12a5.5 5.5 0 1 0 0-11 5.5 5.5 0 0 0 0 11zM13 6.5a6.5 6.5 0 1 1-13 0 6.5 6.5 0 0 1 13 0z"></path><path d="M10.344 11.742c.03.04.062.078.098.115l3.85 3.85a1 1 0 0 0 1.415-1.414l-3.85-3.85a1.007 1.007 0 0 0-.115-.1 6.538 6.538 0 0 1-1.398 1.4z"></path><path fill-rule="evenodd" d="M6.5 3a.5.5 0 0 1 .5.5V6h2.5a.5.5 0 0 1 0 1H7v2.5a.5.5 0 0 1-1 0V7H3.5a.5.5 0 0 1 0-1H6V3.5a.5.5 0 0 1 .5-.5z"></path></svg></g><g ></g><g ></g><g ></g></g><image  id="v-632"></image></g></g><!--z-index:42--><g   id="j_55"  transform="translate(3565,712)" style=""><g  id="v-552" style="opacity: 1;"><rect  id="v-553" rx="20" ry="20" stroke-width="2" pointer-events="visiblePainted" fill="#85bbf0" stroke="#78a8d8" stroke-dasharray="" width="450" height="300" style="fill: rgb(133, 187, 240); stroke: rgb(120, 168, 216);"></rect><text  id="v-554" font-size="33.599999999999994px" xml:space="preserve" y="101.30000000000001" font-weight="bold" text-anchor="middle" pointer-events="visible" font-family="Tahoma, Verdana, Helvetica, Arial" fill="#000000" dominant-baseline="hanging" transform="matrix(1,0,0,1,225,0)" style="fill: rgb(0, 0, 0);"><tspan dy="0" >Appender</tspan></text><text  id="v-555" font-size="16.799999999999997px" xml:space="preserve" y="142.9" text-anchor="middle" font-family="Tahoma, Verdana, Helvetica, Arial" fill="#000000" dominant-baseline="hanging" transform="matrix(1,0,0,1,225,0)" style="display: block; fill: rgb(0, 0, 0);"><tspan dy="0" >[Component]</tspan></text><text  id="v-556" font-size="24px" xml:space="preserve" y="174.7" text-anchor="middle" font-family="Tahoma, Verdana, Helvetica, Arial" fill="#000000" dominant-baseline="hanging" transform="matrix(1,0,0,1,225,0)" style="display: block; fill: rgb(0, 0, 0);"><tspan dy="0" >Log event output destination</tspan></text><g  id="v-557" color="#000000" transform="matrix(1,0,0,1,222.5,268)" display="none" style="fill: rgb(0, 0, 0);"><g ></g><g ></g><g ></g><g ></g></g><image  id="v-558"></image></g></g><!--z-index:43--><g   id="j_57"  transform="translate(4210,712)" style=""><g  id="v-567" style="opacity: 1;"><rect  id="v-568" rx="20" ry="20" stroke-width="2" pointer-events="visiblePainted" fill="#85bbf0" stroke="#78a8d8" stroke-dasharray="" width="450" height="300" style="fill: rgb(133, 187, 240); stroke: rgb(120, 168, 216);"></rect><text  id="v-569" font-size="33.599999999999994px" xml:space="preserve" y="101.30000000000001" font-weight="bold" text-anchor="middle" pointer-events="visible" font-family="Tahoma, Verdana, Helvetica, Arial" fill="#000000" dominant-baseline="hanging" transform="matrix(1,0,0,1,225,0)" style="fill: rgb(0, 0, 0);"><tspan dy="0" >Filter</tspan></text><text  id="v-570" font-size="16.799999999999997px" xml:space="preserve" y="142.9" text-anchor="middle" font-family="Tahoma, Verdana, Helvetica, Arial" fill="#000000" dominant-baseline="hanging" transform="matrix(1,0,0,1,225,0)" style="display: block; fill: rgb(0, 0, 0);"><tspan dy="0" >[Component]</tspan></text><text  id="v-571" font-size="24px" xml:space="preserve" y="174.7" text-anchor="middle" font-family="Tahoma, Verdana, Helvetica, Arial" fill="#000000" dominant-baseline="hanging" transform="matrix(1,0,0,1,225,0)" style="display: block; fill: rgb(0, 0, 0);"><tspan dy="0" >Log event filtering rules</tspan></text><g  id="v-572" color="#000000" transform="matrix(1,0,0,1,222.5,268)" display="none" style="fill: rgb(0, 0, 0);"><g ></g><g ></g><g ></g><g ></g></g><image  id="v-573"></image></g></g><!--z-index:44--><g   id="j_58"  transform="translate(4210,260)" style=""><g  id="v-577" style="opacity: 1;"><rect  id="v-578" rx="20" ry="20" stroke-width="2" pointer-events="visiblePainted" fill="#85bbf0" stroke="#78a8d8" stroke-dasharray="" width="450" height="300" style="fill: rgb(133, 187, 240); stroke: rgb(120, 168, 216);"></rect><text  id="v-579" font-size="33.599999999999994px" xml:space="preserve" y="101.30000000000001" font-weight="bold" text-anchor="middle" pointer-events="visible" font-family="Tahoma, Verdana, Helvetica, Arial" fill="#000000" dominant-baseline="hanging" transform="matrix(1,0,0,1,225,0)" style="fill: rgb(0, 0, 0);"><tspan dy="0" >Plugin System</tspan></text><text  id="v-580" font-size="16.799999999999997px" xml:space="preserve" y="142.9" text-anchor="middle" font-family="Tahoma, Verdana, Helvetica, Arial" fill="#000000" dominant-baseline="hanging" transform="matrix(1,0,0,1,225,0)" style="display: block; fill: rgb(0, 0, 0);"><tspan dy="0" >[Component]</tspan></text><text  id="v-581" font-size="24px" xml:space="preserve" y="174.7" text-anchor="middle" font-family="Tahoma, Verdana, Helvetica, Arial" fill="#000000" dominant-baseline="hanging" transform="matrix(1,0,0,1,225,0)" style="display: block; fill: rgb(0, 0, 0);"><tspan dy="0" >SPI-based extension framework</tspan></text><g  id="v-582" color="#000000" transform="matrix(1,0,0,1,222.5,268)" display="none" style="fill: rgb(0, 0, 0);"><g ></g><g ></g><g ></g><g ></g></g><image  id="v-583"></image></g></g><!--z-index:45--><g   id="j_59"  transform="translate(4520,1194)" style=""><g  id="v-587" style="opacity: 1;"><rect  id="v-588" rx="20" ry="20" stroke-width="2" pointer-events="visiblePainted" fill="#85bbf0" stroke="#78a8d8" stroke-dasharray="" width="450" height="300" style="fill: rgb(133, 187, 240); stroke: rgb(120, 168, 216);"></rect><text  id="v-589" font-size="33.599999999999994px" xml:space="preserve" y="101.30000000000001" font-weight="bold" text-anchor="middle" pointer-events="visible" font-family="Tahoma, Verdana, Helvetica, Arial" fill="#000000" dominant-baseline="hanging" transform="matrix(1,0,0,1,225,0)" style="fill: rgb(0, 0, 0);"><tspan dy="0" >Layout</tspan></text><text  id="v-590" font-size="16.799999999999997px" xml:space="preserve" y="142.9" text-anchor="middle" font-family="Tahoma, Verdana, Helvetica, Arial" fill="#000000" dominant-baseline="hanging" transform="matrix(1,0,0,1,225,0)" style="display: block; fill: rgb(0, 0, 0);"><tspan dy="0" >[Component]</tspan></text><text  id="v-591" font-size="24px" xml:space="preserve" y="174.7" text-anchor="middle" font-family="Tahoma, Verdana, Helvetica, Arial" fill="#000000" dominant-baseline="hanging" transform="matrix(1,0,0,1,225,0)" style="display: block; fill: rgb(0, 0, 0);"><tspan dy="0" >Log event formatting engine</tspan></text><g  id="v-592" color="#000000" transform="matrix(1,0,0,1,222.5,268)" display="none" style="fill: rgb(0, 0, 0);"><g ></g><g ></g><g ></g><g ></g></g><image  id="v-593"></image></g></g><!--z-index:46--><g   id="j_60"  transform="translate(3565,260)" style=""><g  id="v-597" style="opacity: 1;"><rect  id="v-598" rx="20" ry="20" stroke-width="2" pointer-events="visiblePainted" fill="#85bbf0" stroke="#78a8d8" stroke-dasharray="" width="450" height="300" style="fill: rgb(133, 187, 240); stroke: rgb(120, 168, 216);"></rect><text  id="v-599" font-size="33.599999999999994px" xml:space="preserve" y="101.30000000000001" font-weight="bold" text-anchor="middle" pointer-events="visible" font-family="Tahoma, Verdana, Helvetica, Arial" fill="#000000" dominant-baseline="hanging" transform="matrix(1,0,0,1,225,0)" style="fill: rgb(0, 0, 0);"><tspan dy="0" >Async Logger</tspan></text><text  id="v-600" font-size="16.799999999999997px" xml:space="preserve" y="142.9" text-anchor="middle" font-family="Tahoma, Verdana, Helvetica, Arial" fill="#000000" dominant-baseline="hanging" transform="matrix(1,0,0,1,225,0)" style="display: block; fill: rgb(0, 0, 0);"><tspan dy="0" >[Component]</tspan></text><text  id="v-601" font-size="24px" xml:space="preserve" y="174.7" text-anchor="middle" font-family="Tahoma, Verdana, Helvetica, Arial" fill="#000000" dominant-baseline="hanging" transform="matrix(1,0,0,1,225,0)" style="display: block; fill: rgb(0, 0, 0);"><tspan dy="0" >Asynchronous event processing</tspan></text><g  id="v-602" color="#000000" transform="matrix(1,0,0,1,222.5,268)" display="none" style="fill: rgb(0, 0, 0);"><g ></g><g ></g><g ></g><g ></g></g><image  id="v-603"></image></g></g><!--z-index:47--><g   id="j_63"  style="opacity: 1;"><path fill="none" cursor="pointer" stroke="transparent" stroke-linecap="round" joint-selector="wrapper" id="v-644" stroke-width="10" stroke-linejoin="round" d="M 2475 1494 L 2475 1625 C 2475 1631.7999999999997 2472 1636.4666666666665 2466 1639 L 2150 1776.9"></path><path fill="none" pointer-events="none" joint-selector="line" id="v-643" stroke="#444444" stroke-width="2" stroke-linejoin="round" stroke-dasharray="8 8" d="M 2475 1494 L 2475 1625 C 2475 1631.7999999999997 2472 1636.4666666666665 2466 1639 L 2150 1776.9" marker-end="url(#v-21252848929)"></path><g id="v-636" ><g id="v-637"  label-idx="0" cursor="move" transform="matrix(1,0,0,1,2472.625244140625,1633.7901611328125)" style="cursor: default;"><rect joint-selector="rect" id="v-640" fill="#ffffff" rx="3" ry="3" x="-98.05006408691406" y="-45.99814987182617" width="196.28688049316406" height="86.8777847290039" pointer-events="none"  style="display: block;"></rect><text joint-selector="text" id="v-639" font-size="24px" xml:space="preserve" fill="#444444" text-anchor="middle" pointer-events="none" font-family="Tahoma, Verdana, Helvetica, Arial" font-weight="normal"  style="display: block;"><tspan dy="-0.8999999999999999em" >writes log events</tspan><tspan dy="1.2em" x="0" >over pooled JDBC</tspan><tspan dy="1.2em" x="0" >connections</tspan></text></g><g id="v-638"  label-idx="1" cursor="move" transform="matrix(1,0,0,1,2462.625244140625,1674.5902099609375)" style="cursor: default;"><rect joint-selector="rect" id="v-642" fill="#ffffff" rx="3" ry="3" x="-4.547473508864641e-13" y="-2.2737367544323206e-13" width="0" height="0"  display="none"></rect><text joint-selector="text" id="v-641" fill="#000000" font-size="14" text-anchor="middle" text-vertical-anchor="middle" pointer-events="none"></text></g></g></g><!--z-index:48--><g   id="j_64"  style="opacity: 1;"><path fill="none" cursor="pointer" stroke="transparent" stroke-linecap="round" joint-selector="wrapper" id="v-656" stroke-width="10" stroke-linejoin="round" d="M 4015 928.09 L 4603 1101 C 4609.333333333333 1102.7333333333331 4614 1106.3999999999999 4617 1112 L 4662.33 1194"></path><path fill="none" pointer-events="none" joint-selector="line" id="v-655" stroke="#444444" stroke-width="2" stroke-linejoin="round" stroke-dasharray="8 8" d="M 4015 928.09 L 4603 1101 C 4609.333333333333 1102.7333333333331 4614 1106.3999999999999 4617 1112 L 4662.33 1194" marker-end="url(#v-21252848929)"></path><g id="v-648" ><g id="v-649"  label-idx="0" cursor="move" transform="matrix(1,0,0,1,4610.7236328125,1104.6497802734375)" style="cursor: default;"><rect joint-selector="rect" id="v-652" fill="#ffffff" rx="3" ry="3" x="-102.96781921386719" y="-31.59815216064453" width="205.00128173828125" height="58.07778549194336" pointer-events="none"  style="display: block;"></rect><text joint-selector="text" id="v-651" font-size="24px" xml:space="preserve" fill="#444444" text-anchor="middle" pointer-events="none" font-family="Tahoma, Verdana, Helvetica, Arial" font-weight="normal"  style="display: block;"><tspan dy="-0.3em" >formats log events</tspan><tspan dy="1.2em" x="0" >using</tspan></text></g><g id="v-650"  label-idx="1" cursor="move" transform="matrix(1,0,0,1,4600.7236328125,1131.0498046875)" style="cursor: default;"><rect joint-selector="rect" id="v-654" fill="#ffffff" rx="3" ry="3" x="-9.094947017729282e-13" y="0" width="0" height="0"  display="none"></rect><text joint-selector="text" id="v-653" fill="#000000" font-size="14" text-anchor="middle" text-vertical-anchor="middle" pointer-events="none"></text></g></g></g><!--z-index:49--><g   id="j_65"  style="opacity: 1;"><path fill="none" cursor="pointer" stroke="transparent" stroke-linecap="round" joint-selector="wrapper" id="v-668" stroke-width="10" stroke-linejoin="round" d="M 4210 452.01 L 3232 635 C 3225.666666666666 635.9333333333333 3225.666666666666 637.5999999999999 3232 640 L 3565 772.56"></path><path fill="none" pointer-events="none" joint-selector="line" id="v-667" stroke="#444444" stroke-width="2" stroke-linejoin="round" stroke-dasharray="8 8" d="M 4210 452.01 L 3232 635 C 3225.666666666666 635.9333333333333 3225.666666666666 637.5999999999999 3232 640 L 3565 772.56" marker-end="url(#v-21252848929)"></path><g id="v-660" ><g id="v-661"  label-idx="0" cursor="move" transform="matrix(1,0,0,1,3228.859130859375,635.6812133789062)" style="cursor: default;"><rect joint-selector="rect" id="v-664" fill="#ffffff" rx="3" ry="3" x="-100.22303009033203" y="-31.59815216064453" width="196.36624145507812" height="58.07778549194336" pointer-events="none"  style="display: block;"></rect><text joint-selector="text" id="v-663" font-size="24px" xml:space="preserve" fill="#444444" text-anchor="middle" pointer-events="none" font-family="Tahoma, Verdana, Helvetica, Arial" font-weight="normal"  style="display: block;"><tspan dy="-0.3em" >extends</tspan><tspan dy="1.2em" x="0" >appenders via SPI</tspan></text></g><g id="v-662"  label-idx="1" cursor="move" transform="matrix(1,0,0,1,3218.859130859375,662.0812377929688)" style="cursor: default;"><rect joint-selector="rect" id="v-666" fill="#ffffff" rx="3" ry="3" x="-4.547473508864641e-13" y="0" width="0" height="0"  display="none"></rect><text joint-selector="text" id="v-665" fill="#000000" font-size="14" text-anchor="middle" text-vertical-anchor="middle" pointer-events="none"></text></g></g></g><!--z-index:50--><g   id="j_66"  style="opacity: 1;"><path fill="none" cursor="pointer" stroke="transparent" stroke-linecap="round" joint-selector="wrapper" id="v-680" stroke-width="10" stroke-linejoin="round" d="M 4660 538.96 L 4821 631 C 4827 634.5999999999999 4830 639.5999999999999 4830 646 L 4830 1094 C 4830 1100.3999999999999 4829 1106.7333333333331 4827 1113 L 4798.04 1194"></path><path fill="none" pointer-events="none" joint-selector="line" id="v-679" stroke="#444444" stroke-width="2" stroke-linejoin="round" stroke-dasharray="8 8" d="M 4660 538.96 L 4821 631 C 4827 634.5999999999999 4830 639.5999999999999 4830 646 L 4830 1094 C 4830 1100.3999999999999 4829 1106.7333333333331 4827 1113 L 4798.04 1194" marker-end="url(#v-21252848929)"></path><g id="v-672" ><g id="v-673"  label-idx="0" cursor="move" transform="matrix(1,0,0,1,4830,863.2474975585938)" style="cursor: default;"><rect joint-selector="rect" id="v-676" fill="#ffffff" rx="3" ry="3" x="-87.18526458740234" y="-31.59815216064453" width="173.414794921875" height="58.07778549194336" pointer-events="none"  style="display: block;"></rect><text joint-selector="text" id="v-675" font-size="24px" xml:space="preserve" fill="#444444" text-anchor="middle" pointer-events="none" font-family="Tahoma, Verdana, Helvetica, Arial" font-weight="normal"  style="display: block;"><tspan dy="-0.3em" >extends layouts</tspan><tspan dy="1.2em" x="0" >via SPI</tspan></text></g><g id="v-674"  label-idx="1" cursor="move" transform="matrix(1,0,0,1,4820,889.6475219726562)" style="cursor: default;"><rect joint-selector="rect" id="v-678" fill="#ffffff" rx="3" ry="3" x="0" y="-1.1368683772161603e-13" width="0" height="0"  display="none"></rect><text joint-selector="text" id="v-677" fill="#000000" font-size="14" text-anchor="middle" text-vertical-anchor="middle" pointer-events="none"></text></g></g></g><!--z-index:51--><g   id="j_67"  style="opacity: 1;"><path fill="none" cursor="pointer" stroke="transparent" stroke-linecap="round" joint-selector="wrapper" id="v-692" stroke-width="10" stroke-linejoin="round" d="M 4435 560 L 4435 712"></path><path fill="none" pointer-events="none" joint-selector="line" id="v-691" stroke="#444444" stroke-width="2" stroke-linejoin="round" stroke-dasharray="8 8" d="M 4435 560 L 4435 712" marker-end="url(#v-21252848929)"></path><g id="v-684" ><g id="v-685"  label-idx="0" cursor="move" transform="matrix(1,0,0,1,4435,636)" style="cursor: default;"><rect joint-selector="rect" id="v-688" fill="#ffffff" rx="3" ry="3" x="-98.02240753173828" y="-31.638776779174805" width="193.2141571044922" height="58.12653350830078" pointer-events="none"  style="display: block;"></rect><text joint-selector="text" id="v-687" font-size="24px" xml:space="preserve" fill="#444444" text-anchor="middle" pointer-events="none" font-family="Tahoma, Verdana, Helvetica, Arial" font-weight="normal"  style="display: block;"><tspan dy="-0.3em" >extends filters via</tspan><tspan dy="1.2em" x="0" >SPI</tspan></text></g><g id="v-686"  label-idx="1" cursor="move" transform="matrix(1,0,0,1,4425,662.4000244140625)" style="cursor: default;"><rect joint-selector="rect" id="v-690" fill="#ffffff" rx="3" ry="3" x="0" y="0" width="0" height="0"  display="none"></rect><text joint-selector="text" id="v-689" fill="#000000" font-size="14" text-anchor="middle" text-vertical-anchor="middle" pointer-events="none"></text></g></g></g><!--z-index:52--><g   id="j_68"  style="opacity: 1;"><path fill="none" cursor="pointer" stroke="transparent" stroke-linecap="round" joint-selector="wrapper" id="v-704" stroke-width="10" stroke-linejoin="round" d="M 3886.07 560 L 3930 628 C 3933.333333333333 633.5999999999999 3933.333333333333 639.2666666666667 3930 645 L 3886.41 712"></path><path fill="none" pointer-events="none" joint-selector="line" id="v-703" stroke="#444444" stroke-width="2" stroke-linejoin="round" stroke-dasharray="8 8" d="M 3886.07 560 L 3930 628 C 3933.333333333333 633.5999999999999 3933.333333333333 639.2666666666667 3930 645 L 3886.41 712" marker-end="url(#v-21252848929)"></path><g id="v-696" ><g id="v-697"  label-idx="0" cursor="move" transform="matrix(1,0,0,1,3932.492431640625,635.9852905273438)" style="cursor: default;"><rect joint-selector="rect" id="v-700" fill="#ffffff" rx="3" ry="3" x="-100.50447082519531" y="-31.638776779174805" width="198.3543701171875" height="58.12653350830078" pointer-events="none"  style="display: block;"></rect><text joint-selector="text" id="v-699" font-size="24px" xml:space="preserve" fill="#444444" text-anchor="middle" pointer-events="none" font-family="Tahoma, Verdana, Helvetica, Arial" font-weight="normal"  style="display: block;"><tspan dy="-0.3em" >dispatches events</tspan><tspan dy="1.2em" x="0" >asynchronously to</tspan></text></g><g id="v-698"  label-idx="1" cursor="move" transform="matrix(1,0,0,1,3922.492431640625,662.3853149414062)" style="cursor: default;"><rect joint-selector="rect" id="v-702" fill="#ffffff" rx="3" ry="3" x="0" y="0" width="0" height="0"  display="none"></rect><text joint-selector="text" id="v-701" fill="#000000" font-size="14" text-anchor="middle" text-vertical-anchor="middle" pointer-events="none"></text></g></g></g><!--z-index:53--><g   id="j_69"  style="opacity: 1;"><path fill="none" cursor="pointer" stroke="transparent" stroke-linecap="round" joint-selector="wrapper" id="v-716" stroke-width="10" stroke-linejoin="round" d="M 3790 1012 L 3790 1094 C 3790 1100.3999999999999 3786.6666666666665 1104.0666666666666 3780 1105 L 2150 1315"></path><path fill="none" pointer-events="none" joint-selector="line" id="v-715" stroke="#444444" stroke-width="2" stroke-linejoin="round" stroke-dasharray="8 8" d="M 3790 1012 L 3790 1094 C 3790 1100.3999999999999 3786.6666666666665 1104.0666666666666 3780 1105 L 2150 1315" marker-end="url(#v-21252848929)"></path><g id="v-708" ><g id="v-709"  label-idx="0" cursor="move" transform="matrix(1,0,0,1,3787.135986328125,1101.9266357421875)" style="cursor: default;"><rect joint-selector="rect" id="v-712" fill="#ffffff" rx="3" ry="3" x="-89.93006134033203" y="-17.198150634765625" width="176.56166076660156" height="29.277780532836914" pointer-events="none"  style="display: block;"></rect><text joint-selector="text" id="v-711" font-size="24px" xml:space="preserve" fill="#444444" text-anchor="middle" pointer-events="none" font-family="Tahoma, Verdana, Helvetica, Arial" font-weight="normal"  style="display: block;"><tspan dy="0.3em" >forwards logs to</tspan></text></g><g id="v-710"  label-idx="1" cursor="move" transform="matrix(1,0,0,1,3777.135986328125,1113.9266357421875)" style="cursor: default;"><rect joint-selector="rect" id="v-714" fill="#ffffff" rx="3" ry="3" x="-4.547473508864641e-13" y="0" width="0" height="0"  display="none"></rect><text joint-selector="text" id="v-713" fill="#000000" font-size="14" text-anchor="middle" text-vertical-anchor="middle" pointer-events="none"></text></g></g></g><!--z-index:54--><g   id="j_70"  style="opacity: 1;"><path fill="none" cursor="pointer" stroke="transparent" stroke-linecap="round" joint-selector="wrapper" id="v-728" stroke-width="10" stroke-linejoin="round" d="M 4745.41 1494 L 4746.04 1725"></path><path fill="none" pointer-events="none" joint-selector="line" id="v-727" stroke="#444444" stroke-width="2" stroke-linejoin="round" stroke-dasharray="8 8" d="M 4745.41 1494 L 4746.04 1725" marker-end="url(#v-21252848929)"></path><g id="v-720" ><g id="v-721"  label-idx="0" cursor="move" transform="matrix(1,0,0,1,4745.79296875,1634.4351806640625)" style="cursor: default;"><rect joint-selector="rect" id="v-724" fill="#ffffff" rx="3" ry="3" x="-99.68931579589844" y="-31.59815216064453" width="200.1554412841797" height="58.07778549194336" pointer-events="none"  style="display: block;"></rect><text joint-selector="text" id="v-723" font-size="24px" xml:space="preserve" fill="#444444" text-anchor="middle" pointer-events="none" font-family="Tahoma, Verdana, Helvetica, Arial" font-weight="normal"  style="display: block;"><tspan dy="-0.3em" >invokes Layout SPI</tspan><tspan dy="1.2em" x="0" >implemented by</tspan></text></g><g id="v-722"  label-idx="1" cursor="move" transform="matrix(1,0,0,1,4735.79296875,1660.835205078125)" style="cursor: default;"><rect joint-selector="rect" id="v-726" fill="#ffffff" rx="3" ry="3" x="-9.094947017729282e-13" y="-2.2737367544323206e-13" width="0" height="0"  display="none"></rect><text joint-selector="text" id="v-725" fill="#000000" font-size="14" text-anchor="middle" text-vertical-anchor="middle" pointer-events="none"></text></g></g></g><!--z-index:55--><g   id="j_71"  style="opacity: 1;"><path fill="none" cursor="pointer" stroke="transparent" stroke-linecap="round" joint-selector="wrapper" id="v-740" stroke-width="10" stroke-linejoin="round" d="M 4015 1008.92 L 4152 1098 C 4157.333333333333 1101.7333333333331 4156.666666666666 1104.0666666666666 4150 1105 L 2700 1311.9"></path><path fill="none" pointer-events="none" joint-selector="line" id="v-739" stroke="#444444" stroke-width="2" stroke-linejoin="round" stroke-dasharray="8 8" d="M 4015 1008.92 L 4152 1098 C 4157.333333333333 1101.7333333333331 4156.666666666666 1104.0666666666666 4150 1105 L 2700 1311.9" marker-end="url(#v-21252848929)"></path><g id="v-732" ><g id="v-733"  label-idx="0" cursor="move" transform="matrix(1,0,0,1,4153.41796875,1104.2225341796875)" style="cursor: default;"><rect joint-selector="rect" id="v-736" fill="#ffffff" rx="3" ry="3" x="-74.26187133789062" y="-45.99814987182617" width="148.72007751464844" height="86.8777847290039" pointer-events="none"  style="display: block;"></rect><text joint-selector="text" id="v-735" font-size="24px" xml:space="preserve" fill="#444444" text-anchor="middle" pointer-events="none" font-family="Tahoma, Verdana, Helvetica, Arial" font-weight="normal"  style="display: block;"><tspan dy="-0.8999999999999999em" >obtains JDBC</tspan><tspan dy="1.2em" x="0" >connections</tspan><tspan dy="1.2em" x="0" >through</tspan></text></g><g id="v-734"  label-idx="1" cursor="move" transform="matrix(1,0,0,1,4143.41796875,1145.0224609375)" style="cursor: default;"><rect joint-selector="rect" id="v-738" fill="#ffffff" rx="3" ry="3" x="0" y="0" width="0" height="0"  display="none"></rect><text joint-selector="text" id="v-737" fill="#000000" font-size="14" text-anchor="middle" text-vertical-anchor="middle" pointer-events="none"></text></g></g></g><!--z-index:56--><g   id="j_72"  style="opacity: 1;"><path fill="none" cursor="pointer" stroke="transparent" stroke-linecap="round" joint-selector="wrapper" id="v-752" stroke-width="10" stroke-linejoin="round" d="M 3565 924.48 L 2930 1101 C 2923.333333333333 1102.7333333333331 2916.6666666666665 1104.0666666666666 2910 1105 L 650 1322.32"></path><path fill="none" pointer-events="none" joint-selector="line" id="v-751" stroke="#444444" stroke-width="2" stroke-linejoin="round" stroke-dasharray="8 8" d="M 3565 924.48 L 2930 1101 C 2923.333333333333 1102.7333333333331 2916.6666666666665 1104.0666666666666 2910 1105 L 650 1322.32" marker-end="url(#v-21252848929)"></path><g id="v-744" ><g id="v-745"  label-idx="0" cursor="move" transform="matrix(1,0,0,1,2920.078125,1103.2843017578125)" style="cursor: default;"><rect joint-selector="rect" id="v-748" fill="#ffffff" rx="3" ry="3" x="-94.39034271240234" y="-17.198150634765625" width="187.8157958984375" height="29.277780532836914" pointer-events="none"  style="display: block;"></rect><text joint-selector="text" id="v-747" font-size="24px" xml:space="preserve" fill="#444444" text-anchor="middle" pointer-events="none" font-family="Tahoma, Verdana, Helvetica, Arial" font-weight="normal"  style="display: block;"><tspan dy="0.3em" >writes log events</tspan></text></g><g id="v-746"  label-idx="1" cursor="move" transform="matrix(1,0,0,1,2910.078125,1115.2843017578125)" style="cursor: default;"><rect joint-selector="rect" id="v-750" fill="#ffffff" rx="3" ry="3" x="-2.2737367544323206e-13" y="0" width="0" height="0"  display="none"></rect><text joint-selector="text" id="v-749" fill="#000000" font-size="14" text-anchor="middle" text-vertical-anchor="middle" pointer-events="none"></text></g></g></g><!--z-index:57--><g   id="j_73"  style="opacity: 1;"><path fill="none" cursor="pointer" stroke="transparent" stroke-linecap="round" joint-selector="wrapper" id="v-764" stroke-width="10" stroke-linejoin="round" d="M 3565 955.72 L 3219 1100 C 3213 1102.3999999999999 3206.6666666666665 1104.0666666666666 3200 1105 L 1150 1320.33"></path><path fill="none" pointer-events="none" joint-selector="line" id="v-763" stroke="#444444" stroke-width="2" stroke-linejoin="round" stroke-dasharray="8 8" d="M 3565 955.72 L 3219 1100 C 3213 1102.3999999999999 3206.6666666666665 1104.0666666666666 3200 1105 L 1150 1320.33" marker-end="url(#v-21252848929)"></path><g id="v-756" ><g id="v-757"  label-idx="0" cursor="move" transform="matrix(1,0,0,1,3209.972412109375,1102.9910888671875)" style="cursor: default;"><rect joint-selector="rect" id="v-760" fill="#ffffff" rx="3" ry="3" x="-94.39034271240234" y="-17.198150634765625" width="187.8157958984375" height="29.277780532836914" pointer-events="none"  style="display: block;"></rect><text joint-selector="text" id="v-759" font-size="24px" xml:space="preserve" fill="#444444" text-anchor="middle" pointer-events="none" font-family="Tahoma, Verdana, Helvetica, Arial" font-weight="normal"  style="display: block;"><tspan dy="0.3em" >writes log events</tspan></text></g><g id="v-758"  label-idx="1" cursor="move" transform="matrix(1,0,0,1,3199.972412109375,1114.9910888671875)" style="cursor: default;"><rect joint-selector="rect" id="v-762" fill="#ffffff" rx="3" ry="3" x="-4.547473508864641e-13" y="0" width="0" height="0"  display="none"></rect><text joint-selector="text" id="v-761" fill="#000000" font-size="14" text-anchor="middle" text-vertical-anchor="middle" pointer-events="none"></text></g></g></g><!--z-index:58--><g   id="j_74"  style="opacity: 1;"><path fill="none" cursor="pointer" stroke="transparent" stroke-linecap="round" joint-selector="wrapper" id="v-776" stroke-width="10" stroke-linejoin="round" d="M 3609.95 1012 L 3508 1097 C 3502.666666666666 1101.3999999999999 3496.666666666666 1104.0666666666666 3490 1105 L 1650 1317.93"></path><path fill="none" pointer-events="none" joint-selector="line" id="v-775" stroke="#444444" stroke-width="2" stroke-linejoin="round" stroke-dasharray="8 8" d="M 3609.95 1012 L 3508 1097 C 3502.666666666666 1101.3999999999999 3496.666666666666 1104.0666666666666 3490 1105 L 1650 1317.93" marker-end="url(#v-21252848929)"></path><g id="v-768" ><g id="v-769"  label-idx="0" cursor="move" transform="matrix(1,0,0,1,3500.060546875,1102.044921875)" style="cursor: default;"><rect joint-selector="rect" id="v-772" fill="#ffffff" rx="3" ry="3" x="-94.39034271240234" y="-17.198150634765625" width="187.8157958984375" height="29.277780532836914" pointer-events="none"  style="display: block;"></rect><text joint-selector="text" id="v-771" font-size="24px" xml:space="preserve" fill="#444444" text-anchor="middle" pointer-events="none" font-family="Tahoma, Verdana, Helvetica, Arial" font-weight="normal"  style="display: block;"><tspan dy="0.3em" >writes log events</tspan></text></g><g id="v-770"  label-idx="1" cursor="move" transform="matrix(1,0,0,1,3490.060546875,1114.044921875)" style="cursor: default;"><rect joint-selector="rect" id="v-774" fill="#ffffff" rx="3" ry="3" x="-4.547473508864641e-13" y="0" width="0" height="0"  display="none"></rect><text joint-selector="text" id="v-773" fill="#000000" font-size="14" text-anchor="middle" text-vertical-anchor="middle" pointer-events="none"></text></g></g></g><!--z-index:59--><g   id="j_75"  style="opacity: 1;"><path fill="none" cursor="pointer" stroke="transparent" stroke-linecap="round" joint-selector="wrapper" id="v-788" stroke-width="10" stroke-linejoin="round" d="M 4015 962.67 L 4321 1100 C 4327 1102.3999999999999 4330 1107.0666666666666 4330 1114 L 4330 1625 C 4330 1631.7999999999997 4326.666666666666 1635.4666666666665 4320 1636 L 2150 1852.57"></path><path fill="none" pointer-events="none" joint-selector="line" id="v-787" stroke="#444444" stroke-width="2" stroke-linejoin="round" stroke-dasharray="8 8" d="M 4015 962.67 L 4321 1100 C 4327 1102.3999999999999 4330 1107.0666666666666 4330 1114 L 4330 1625 C 4330 1631.7999999999997 4326.666666666666 1635.4666666666665 4320 1636 L 2150 1852.57" marker-end="url(#v-21252848929)"></path><g id="v-780" ><g id="v-781"  label-idx="0" cursor="move" transform="matrix(1,0,0,1,4330,1345.39111328125)" style="cursor: default;"><rect joint-selector="rect" id="v-784" fill="#ffffff" rx="3" ry="3" x="-94.39034271240234" y="-31.59815216064453" width="187.8157958984375" height="58.07778549194336" pointer-events="none"  style="display: block;"></rect><text joint-selector="text" id="v-783" font-size="24px" xml:space="preserve" fill="#444444" text-anchor="middle" pointer-events="none" font-family="Tahoma, Verdana, Helvetica, Arial" font-weight="normal"  style="display: block;"><tspan dy="-0.3em" >writes log events</tspan><tspan dy="1.2em" x="0" >through JDBC</tspan></text></g><g id="v-782"  label-idx="1" cursor="move" transform="matrix(1,0,0,1,4320,1371.7911376953125)" style="cursor: default;"><rect joint-selector="rect" id="v-786" fill="#ffffff" rx="3" ry="3" x="0" y="-2.2737367544323206e-13" width="0" height="0"  display="none"></rect><text joint-selector="text" id="v-785" fill="#000000" font-size="14" text-anchor="middle" text-vertical-anchor="middle" pointer-events="none"></text></g></g></g><!--z-index:60--></g><g  style="user-select: none;"></g><g ></g><g  display="none"></g></g></svg>