<svg xmlns="http://www.w3.org/2000/svg" xmlns:xlink="http://www.w3.org/1999/xlink" version="1.1" style="background: #ffffff" viewBox="0 0 5270 2395"><style id="v-3" type="text/css">        .joint-element .scalable * {            vector-effect: non-scaling-stroke;        }    </style><defs joint-selector="defs"><marker id="v-21252848929" orient="auto" overflow="visible" markerUnits="userSpaceOnUse"><path id="v-105" stroke="#444444" fill="#444444" transform="rotate(180)" d="M 20 -10 0 0 20 10 Z"></path></marker></defs><g joint-selector="layers"  transform="matrix(1,0,0,1,0,0)"><g  style="pointer-events: none;"></g><g ></g><g  style="user-select: none;"><!--z-index:1--><!--z-index:2--><!--z-index:3--><!--z-index:4--><!--z-index:5--><!--z-index:6--><!--z-index:7--><!--z-index:8--><!--z-index:9--><!--z-index:10--><!--z-index:11--><!--z-index:12--><!--z-index:13--><!--z-index:14--><!--z-index:15--><!--z-index:16--><!--z-index:17--><!--z-index:18--><!--z-index:19--><!--z-index:20--><!--z-index:21--><!--z-index:22--><!--z-index:23--><!--z-index:24--><!--z-index:25--><!--z-index:26--><!--z-index:27--><!--z-index:28--><!--z-index:29--><!--z-index:30--><g   id="j_34"  transform="translate(20,2351)"><g id="v-337"><text  id="v-338" font-size="24px" xml:space="preserve" y="0.8em" font-weight="normal" text-anchor="start" fill="#444444" pointer-events="none" display="block" font-family="Tahoma, Verdana, Helvetica, Arial"><tspan dy="0" >Monday, June 8, 2026 at 3:59 AM Türkiye Standard Time</tspan></text></g></g><!--z-index:31--><g   id="j_33"  transform="translate(20,2305)"><g id="v-335"><text  id="v-336" font-size="36px" xml:space="preserve" y="0.8em" font-weight="normal" text-anchor="start" fill="#444444" pointer-events="none" display="block" font-family="Tahoma, Verdana, Helvetica, Arial"><tspan dy="0" >C3 Component Diagram - log4j-core / Part 2</tspan></text></g></g><!--z-index:32--><g   id="j_35"  transform="translate(199,1194)" style=""><g  id="v-339" style="opacity: 1;"><rect  id="v-340" rx="20" ry="20" stroke-width="2" pointer-events="visiblePainted" fill="#999999" stroke="#8a8a8a" stroke-dasharray="" width="450" height="300" style="fill: rgb(153, 153, 153); stroke: rgb(138, 138, 138);"></rect><text  id="v-341" font-size="33.599999999999994px" xml:space="preserve" y="101.30000000000001" font-weight="bold" text-anchor="middle" pointer-events="visible" font-family="Tahoma, Verdana, Helvetica, Arial" fill="#ffffff" dominant-baseline="hanging" transform="matrix(1,0,0,1,225,0)" style="fill: rgb(255, 255, 255);"><tspan dy="0" >File System</tspan></text><text  id="v-342" font-size="16.799999999999997px" xml:space="preserve" y="142.9" text-anchor="middle" font-family="Tahoma, Verdana, Helvetica, Arial" fill="#ffffff" dominant-baseline="hanging" transform="matrix(1,0,0,1,225,0)" style="display: block; fill: rgb(255, 255, 255);"><tspan dy="0" >[Software System]</tspan></text><text  id="v-343" font-size="24px" xml:space="preserve" y="174.7" text-anchor="middle" font-family="Tahoma, Verdana, Helvetica, Arial" fill="#ffffff" dominant-baseline="hanging" transform="matrix(1,0,0,1,225,0)" style="display: block; fill: rgb(255, 255, 255);"><tspan dy="0" >Log file destination</tspan></text><g  id="v-344" color="#ffffff" transform="matrix(1,0,0,1,222.5,268)" display="none" style="fill: rgb(255, 255, 255);"><g ></g><g ></g><g ></g><g ></g></g><image  id="v-345"></image></g></g><!--z-index:33--><g   id="j_36"  transform="translate(699,1194)" style=""><g  id="v-349" style="opacity: 1;"><rect  id="v-350" rx="20" ry="20" stroke-width="2" pointer-events="visiblePainted" fill="#999999" stroke="#8a8a8a" stroke-dasharray="" width="450" height="300" style="fill: rgb(153, 153, 153); stroke: rgb(138, 138, 138);"></rect><text  id="v-351" font-size="33.599999999999994px" xml:space="preserve" y="101.30000000000001" font-weight="bold" text-anchor="middle" pointer-events="visible" font-family="Tahoma, Verdana, Helvetica, Arial" fill="#ffffff" dominant-baseline="hanging" transform="matrix(1,0,0,1,225,0)" style="fill: rgb(255, 255, 255);"><tspan dy="0" >Console</tspan></text><text  id="v-352" font-size="16.799999999999997px" xml:space="preserve" y="142.9" text-anchor="middle" font-family="Tahoma, Verdana, Helvetica, Arial" fill="#ffffff" dominant-baseline="hanging" transform="matrix(1,0,0,1,225,0)" style="display: block; fill: rgb(255, 255, 255);"><tspan dy="0" >[Software System]</tspan></text><text  id="v-353" font-size="24px" xml:space="preserve" y="174.7" text-anchor="middle" font-family="Tahoma, Verdana, Helvetica, Arial" fill="#ffffff" dominant-baseline="hanging" transform="matrix(1,0,0,1,225,0)" style="display: block; fill: rgb(255, 255, 255);"><tspan dy="0" >Standard output / error</tspan></text><g  id="v-354" color="#ffffff" transform="matrix(1,0,0,1,222.5,268)" display="none" style="fill: rgb(255, 255, 255);"><g ></g><g ></g><g ></g><g ></g></g><image  id="v-355"></image></g></g><!--z-index:34--><g   id="j_37"  transform="translate(1199,1194)" style=""><g  id="v-359" style="opacity: 1;"><rect  id="v-360" rx="20" ry="20" stroke-width="2" pointer-events="visiblePainted" fill="#999999" stroke="#8a8a8a" stroke-dasharray="" width="450" height="300" style="fill: rgb(153, 153, 153); stroke: rgb(138, 138, 138);"></rect><text  id="v-361" font-size="33.599999999999994px" xml:space="preserve" y="101.30000000000001" font-weight="bold" text-anchor="middle" pointer-events="visible" font-family="Tahoma, Verdana, Helvetica, Arial" fill="#ffffff" dominant-baseline="hanging" transform="matrix(1,0,0,1,225,0)" style="fill: rgb(255, 255, 255);"><tspan dy="0" >Network Endpoints</tspan></text><text  id="v-362" font-size="16.799999999999997px" xml:space="preserve" y="142.9" text-anchor="middle" font-family="Tahoma, Verdana, Helvetica, Arial" fill="#ffffff" dominant-baseline="hanging" transform="matrix(1,0,0,1,225,0)" style="display: block; fill: rgb(255, 255, 255);"><tspan dy="0" >[Software System]</tspan></text><text  id="v-363" font-size="24px" xml:space="preserve" y="174.7" text-anchor="middle" font-family="Tahoma, Verdana, Helvetica, Arial" fill="#ffffff" dominant-baseline="hanging" transform="matrix(1,0,0,1,225,0)" style="display: block; fill: rgb(255, 255, 255);"><tspan dy="0" >Syslog / HTTP / SMTP</tspan></text><g  id="v-364" color="#ffffff" transform="matrix(1,0,0,1,222.5,268)" display="none" style="fill: rgb(255, 255, 255);"><g ></g><g ></g><g ></g><g ></g></g><image  id="v-365"></image></g></g><!--z-index:35--><g   id="j_38"  transform="translate(1699,1725)" style=""><g  id="v-369" style="opacity: 1;"><path  d="M 0,30 a 225,30 0,0,0 450 0 a 225,30 0,0,0 -450 0 l 0,240 a 225,30 0,0,0 450 0 l 0,-240" id="v-370" stroke-width="2" pointer-events="visiblePainted" fill="#999999" stroke="#8a8a8a" stroke-dasharray="" style="fill: rgb(153, 153, 153); stroke: rgb(138, 138, 138);"></path><rect  id="v-371" stroke-width="0" pointer-events="visiblePainted" fill="none" stroke="none" width="450" height="270" x="0" y="30"></rect><text  id="v-372" font-size="33.599999999999994px" xml:space="preserve" y="116.30000000000001" font-weight="bold" text-anchor="middle" pointer-events="visible" font-family="Tahoma, Verdana, Helvetica, Arial" fill="#ffffff" dominant-baseline="hanging" transform="matrix(1,0,0,1,225,0)" style="fill: rgb(255, 255, 255);"><tspan dy="0" >JDBC Databases</tspan></text><text  id="v-373" font-size="16.799999999999997px" xml:space="preserve" y="157.9" text-anchor="middle" font-family="Tahoma, Verdana, Helvetica, Arial" fill="#ffffff" dominant-baseline="hanging" transform="matrix(1,0,0,1,225,0)" style="display: block; fill: rgb(255, 255, 255);"><tspan dy="0" >[Software System]</tspan></text><text  id="v-374" font-size="24px" xml:space="preserve" y="189.7" text-anchor="middle" font-family="Tahoma, Verdana, Helvetica, Arial" fill="#ffffff" dominant-baseline="hanging" transform="matrix(1,0,0,1,225,0)" style="display: block; fill: rgb(255, 255, 255);"><tspan dy="0" >Relational database destinations</tspan></text><g  id="v-375" font-weight="normal" text-anchor="middle" color="#ffffff" transform="matrix(1,0,0,1,222.5,268)" display="none" style="fill: rgb(255, 255, 255);"><g ></g><g ></g><g ></g><g ></g></g><image  id="v-376"></image></g></g><!--z-index:36--><g   id="j_39"  transform="translate(1699,1194)" style=""><g  id="v-383" style="opacity: 1;"><rect  id="v-384" rx="20" ry="20" stroke-width="2" pointer-events="visiblePainted" fill="#999999" stroke="#8a8a8a" stroke-dasharray="" width="450" height="300" style="fill: rgb(153, 153, 153); stroke: rgb(138, 138, 138);"></rect><text  id="v-385" font-size="33.599999999999994px" xml:space="preserve" y="81.14000000000001" font-weight="bold" text-anchor="middle" pointer-events="visible" font-family="Tahoma, Verdana, Helvetica, Arial" fill="#ffffff" dominant-baseline="hanging" transform="matrix(1,0,0,1,225,0)" style="fill: rgb(255, 255, 255);"><tspan dy="0" >Log Aggregation /</tspan><tspan dy="1.2em" x="0" >Monitoring</tspan></text><text  id="v-386" font-size="16.799999999999997px" xml:space="preserve" y="163.06" text-anchor="middle" font-family="Tahoma, Verdana, Helvetica, Arial" fill="#ffffff" dominant-baseline="hanging" transform="matrix(1,0,0,1,225,0)" style="display: block; fill: rgb(255, 255, 255);"><tspan dy="0" >[Software System]</tspan></text><text  id="v-387" font-size="24px" xml:space="preserve" y="194.86" text-anchor="middle" font-family="Tahoma, Verdana, Helvetica, Arial" fill="#ffffff" dominant-baseline="hanging" transform="matrix(1,0,0,1,225,0)" style="display: block; fill: rgb(255, 255, 255);"><tspan dy="0" >Downstream observability stacks</tspan></text><g  id="v-388" color="#ffffff" transform="matrix(1,0,0,1,222.5,268)" display="none" style="fill: rgb(255, 255, 255);"><g ></g><g ></g><g ></g><g ></g></g><image  id="v-389"></image></g></g><!--z-index:37--><g   id="j_41"  transform="translate(2199,160)" style="; opacity: 1;"><g id="v-400"><rect  id="v-401" width="2870" height="1994" rx="20" ry="20" stroke-width="2" pointer-events="none" stroke="#0f5eaa" fill="#ffffff" opacity="1" stroke-dasharray=""></rect><text  id="v-402" font-size="33.599999999999994px" xml:space="preserve" y="1955" font-weight="bold" text-anchor="start" pointer-events="visible" font-family="Tahoma, Verdana, Helvetica, Arial" fill="#0f5eaa" transform="matrix(1,0,0,1,15,0)"><tspan dy="0" >Apache Log4j2</tspan></text><text  id="v-403" font-size="16.799999999999997px" xml:space="preserve" y="1979" font-weight="normal" text-anchor="start" pointer-events="visible" font-family="Tahoma, Verdana, Helvetica, Arial" fill="#0f5eaa" transform="matrix(1,0,0,1,15,0)"><tspan dy="0" >[Software System]</tspan></text><image  id="v-404" pointer-events="visible"></image></g></g><!--z-index:38--><g   id="j_40"  transform="translate(3164,1725)" style=""><g  id="v-393" style="opacity: 1;"><rect  id="v-394" rx="20" ry="20" stroke-width="2" pointer-events="visiblePainted" fill="#438dd5" stroke="#3c7fc0" stroke-dasharray="" width="450" height="300" style="fill: rgb(67, 141, 213); stroke: rgb(60, 127, 192);"></rect><text  id="v-395" font-size="33.599999999999994px" xml:space="preserve" y="86.9" font-weight="bold" text-anchor="middle" pointer-events="visible" font-family="Tahoma, Verdana, Helvetica, Arial" fill="#ffffff" dominant-baseline="hanging" transform="matrix(1,0,0,1,225,0)" style="fill: rgb(255, 255, 255);"><tspan dy="0" >log4j-api</tspan></text><text  id="v-396" font-size="16.799999999999997px" xml:space="preserve" y="128.5" text-anchor="middle" font-family="Tahoma, Verdana, Helvetica, Arial" fill="#ffffff" dominant-baseline="hanging" transform="matrix(1,0,0,1,225,0)" style="display: block; fill: rgb(255, 255, 255);"><tspan dy="0" >[Container: Java]</tspan></text><text  id="v-397" font-size="24px" xml:space="preserve" y="160.3" text-anchor="middle" font-family="Tahoma, Verdana, Helvetica, Arial" fill="#ffffff" dominant-baseline="hanging" transform="matrix(1,0,0,1,225,0)" style="display: block; fill: rgb(255, 255, 255);"><tspan dy="0" >Public logging API used by</tspan><tspan dy="1.2em" x="0" >applications and adapters</tspan></text><g  id="v-398" color="#ffffff" transform="matrix(1,0,0,1,210,268)" display="none" style="fill: rgb(255, 255, 255);"><g  transform="translate(5 0)"><svg xmlns="http://www.w3.org/2000/svg" width="20" height="20" fill="currentColor" viewBox="0 0 16 16"><path fill-rule="evenodd" d="M6.5 12a5.5 5.5 0 1 0 0-11 5.5 5.5 0 0 0 0 11zM13 6.5a6.5 6.5 0 1 1-13 0 6.5 6.5 0 0 1 13 0z"></path><path d="M10.344 11.742c.03.04.062.078.098.115l3.85 3.85a1 1 0 0 0 1.415-1.414l-3.85-3.85a1.007 1.007 0 0 0-.115-.1 6.538 6.538 0 0 1-1.398 1.4z"></path><path fill-rule="evenodd" d="M6.5 3a.5.5 0 0 1 .5.5V6h2.5a.5.5 0 0 1 0 1H7v2.5a.5.5 0 0 1-1 0V7H3.5a.5.5 0 0 1 0-1H6V3.5a.5.5 0 0 1 .5-.5z"></path></svg></g><g ></g><g ></g><g ></g></g><image  id="v-399"></image></g></g><!--z-index:39--><g   id="j_43"  transform="translate(3514,210)" style="; opacity: 1;"><g id="v-415"><rect  id="v-416" width="1505" height="1413" rx="20" ry="20" stroke-width="2" pointer-events="none" stroke="#3c7fc0" fill="#ffffff" opacity="1" stroke-dasharray=""></rect><text  id="v-417" font-size="33.599999999999994px" xml:space="preserve" y="1374" font-weight="bold" text-anchor="start" pointer-events="visible" font-family="Tahoma, Verdana, Helvetica, Arial" fill="#3c7fc0" transform="matrix(1,0,0,1,15,0)"><tspan dy="0" >log4j-core</tspan></text><text  id="v-418" font-size="16.799999999999997px" xml:space="preserve" y="1398" font-weight="normal" text-anchor="start" pointer-events="visible" font-family="Tahoma, Verdana, Helvetica, Arial" fill="#3c7fc0" transform="matrix(1,0,0,1,15,0)"><tspan dy="0" >[Container]</tspan></text><image  id="v-419" pointer-events="visible"></image></g></g><!--z-index:40--><g   id="j_48"  transform="translate(4519,1725)" style=""><g  id="v-466" style="opacity: 1;"><rect  id="v-467" rx="20" ry="20" stroke-width="2" pointer-events="visiblePainted" fill="#438dd5" stroke="#3c7fc0" stroke-dasharray="" width="450" height="300" style="fill: rgb(67, 141, 213); stroke: rgb(60, 127, 192);"></rect><text  id="v-468" font-size="33.599999999999994px" xml:space="preserve" y="86.9" font-weight="bold" text-anchor="middle" pointer-events="visible" font-family="Tahoma, Verdana, Helvetica, Arial" fill="#ffffff" dominant-baseline="hanging" transform="matrix(1,0,0,1,225,0)" style="fill: rgb(255, 255, 255);"><tspan dy="0" >log4j-layout-template-json</tspan></text><text  id="v-469" font-size="16.799999999999997px" xml:space="preserve" y="128.5" text-anchor="middle" font-family="Tahoma, Verdana, Helvetica, Arial" fill="#ffffff" dominant-baseline="hanging" transform="matrix(1,0,0,1,225,0)" style="display: block; fill: rgb(255, 255, 255);"><tspan dy="0" >[Container: Java]</tspan></text><text  id="v-470" font-size="24px" xml:space="preserve" y="160.3" text-anchor="middle" font-family="Tahoma, Verdana, Helvetica, Arial" fill="#ffffff" dominant-baseline="hanging" transform="matrix(1,0,0,1,225,0)" style="display: block; fill: rgb(255, 255, 255);"><tspan dy="0" >JSON layout templates for</tspan><tspan dy="1.2em" x="0" >structured output</tspan></text><g  id="v-471" color="#ffffff" transform="matrix(1,0,0,1,210,268)" display="none" style="fill: rgb(255, 255, 255);"><g  transform="translate(5 0)"><svg xmlns="http://www.w3.org/2000/svg" width="20" height="20" fill="currentColor" viewBox="0 0 16 16"><path fill-rule="evenodd" d="M6.5 12a5.5 5.5 0 1 0 0-11 5.5 5.5 0 0 0 0 11zM13 6.5a6.5 6.5 0 1 1-13 0 6.5 6.5 0 0 1 13 0z"></path><path d="M10.344 11.742c.03.04.062.078.098.115l3.85 3.85a1 1 0 0 0 1.415-1.414l-3.85-3.85a1.007 1.007 0 0 0-.115-.1 6.538 6.538 0 0 1-1.398 1.4z"></path><path fill-rule="evenodd" d="M6.5 3a.5.5 0 0 1 .5.5V6h2.5a.5.5 0 0 1 0 1H7v2.5a.5.5 0 0 1-1 0V7H3.5a.5.5 0 0 1 0-1H6V3.5a.5.5 0 0 1 .5-.5z"></path></svg></g><g ></g><g ></g><g ></g></g><image  id="v-472"></image></g></g><!--z-index:41--><g   id="j_49"  transform="translate(2249,1194)" style=""><g  id="v-482" style="opacity: 1;"><rect  id="v-483" rx="20" ry="20" stroke-width="2" pointer-events="visiblePainted" fill="#438dd5" stroke="#3c7fc0" stroke-dasharray="" width="450" height="300" style="fill: rgb(67, 141, 213); stroke: rgb(60, 127, 192);"></rect><text  id="v-484" font-size="33.599999999999994px" xml:space="preserve" y="86.9" font-weight="bold" text-anchor="middle" pointer-events="visible" font-family="Tahoma, Verdana, Helvetica, Arial" fill="#ffffff" dominant-baseline="hanging" transform="matrix(1,0,0,1,225,0)" style="fill: rgb(255, 255, 255);"><tspan dy="0" >log4j-jdbc-dbcp2</tspan></text><text  id="v-485" font-size="16.799999999999997px" xml:space="preserve" y="128.5" text-anchor="middle" font-family="Tahoma, Verdana, Helvetica, Arial" fill="#ffffff" dominant-baseline="hanging" transform="matrix(1,0,0,1,225,0)" style="display: block; fill: rgb(255, 255, 255);"><tspan dy="0" >[Container: Java, Apache DBCP2]</tspan></text><text  id="v-486" font-size="24px" xml:space="preserve" y="160.3" text-anchor="middle" font-family="Tahoma, Verdana, Helvetica, Arial" fill="#ffffff" dominant-baseline="hanging" transform="matrix(1,0,0,1,225,0)" style="display: block; fill: rgb(255, 255, 255);"><tspan dy="0" >JDBC appender integration writing</tspan><tspan dy="1.2em" x="0" >log events to databases</tspan></text><g  id="v-487" color="#ffffff" transform="matrix(1,0,0,1,210,268)" display="none" style="fill: rgb(255, 255, 255);"><g  transform="translate(5 0)"><svg xmlns="http://www.w3.org/2000/svg" width="20" height="20" fill="currentColor" viewBox="0 0 16 16"><path fill-rule="evenodd" d="M6.5 12a5.5 5.5 0 1 0 0-11 5.5 5.5 0 0 0 0 11zM13 6.5a6.5 6.5 0 1 1-13 0 6.5 6.5 0 0 1 13 0z"></path><path d="M10.344 11.742c.03.04.062.078.098.115l3.85 3.85a1 1 0 0 0 1.415-1.414l-3.85-3.85a1.007 1.007 0 0 0-.115-.1 6.538 6.538 0 0 1-1.398 1.4z"></path><path fill-rule="evenodd" d="M6.5 3a.5.5 0 0 1 .5.5V6h2.5a.5.5 0 0 1 0 1H7v2.5a.5.5 0 0 1-1 0V7H3.5a.5.5 0 0 1 0-1H6V3.5a.5.5 0 0 1 .5-.5z"></path></svg></g><g ></g><g ></g><g ></g></g><image  id="v-488"></image></g></g><!--z-index:42--><g   id="j_42"  transform="translate(3564,712)" style=""><g  id="v-408" style="opacity: 1;"><rect  id="v-409" rx="20" ry="20" stroke-width="2" pointer-events="visiblePainted" fill="#85bbf0" stroke="#78a8d8" stroke-dasharray="" width="450" height="300" style="fill: rgb(133, 187, 240); stroke: rgb(120, 168, 216);"></rect><text  id="v-410" font-size="33.599999999999994px" xml:space="preserve" y="101.30000000000001" font-weight="bold" text-anchor="middle" pointer-events="visible" font-family="Tahoma, Verdana, Helvetica, Arial" fill="#000000" dominant-baseline="hanging" transform="matrix(1,0,0,1,225,0)" style="fill: rgb(0, 0, 0);"><tspan dy="0" >Appender</tspan></text><text  id="v-411" font-size="16.799999999999997px" xml:space="preserve" y="142.9" text-anchor="middle" font-family="Tahoma, Verdana, Helvetica, Arial" fill="#000000" dominant-baseline="hanging" transform="matrix(1,0,0,1,225,0)" style="display: block; fill: rgb(0, 0, 0);"><tspan dy="0" >[Component]</tspan></text><text  id="v-412" font-size="24px" xml:space="preserve" y="174.7" text-anchor="middle" font-family="Tahoma, Verdana, Helvetica, Arial" fill="#000000" dominant-baseline="hanging" transform="matrix(1,0,0,1,225,0)" style="display: block; fill: rgb(0, 0, 0);"><tspan dy="0" >Log event output destination</tspan></text><g  id="v-413" color="#000000" transform="matrix(1,0,0,1,222.5,268)" display="none" style="fill: rgb(0, 0, 0);"><g ></g><g ></g><g ></g><g ></g></g><image  id="v-414"></image></g></g><!--z-index:43--><g   id="j_44"  transform="translate(4209,712)" style=""><g  id="v-423" style="opacity: 1;"><rect  id="v-424" rx="20" ry="20" stroke-width="2" pointer-events="visiblePainted" fill="#85bbf0" stroke="#78a8d8" stroke-dasharray="" width="450" height="300" style="fill: rgb(133, 187, 240); stroke: rgb(120, 168, 216);"></rect><text  id="v-425" font-size="33.599999999999994px" xml:space="preserve" y="101.30000000000001" font-weight="bold" text-anchor="middle" pointer-events="visible" font-family="Tahoma, Verdana, Helvetica, Arial" fill="#000000" dominant-baseline="hanging" transform="matrix(1,0,0,1,225,0)" style="fill: rgb(0, 0, 0);"><tspan dy="0" >Filter</tspan></text><text  id="v-426" font-size="16.799999999999997px" xml:space="preserve" y="142.9" text-anchor="middle" font-family="Tahoma, Verdana, Helvetica, Arial" fill="#000000" dominant-baseline="hanging" transform="matrix(1,0,0,1,225,0)" style="display: block; fill: rgb(0, 0, 0);"><tspan dy="0" >[Component]</tspan></text><text  id="v-427" font-size="24px" xml:space="preserve" y="174.7" text-anchor="middle" font-family="Tahoma, Verdana, Helvetica, Arial" fill="#000000" dominant-baseline="hanging" transform="matrix(1,0,0,1,225,0)" style="display: block; fill: rgb(0, 0, 0);"><tspan dy="0" >Log event filtering rules</tspan></text><g  id="v-428" color="#000000" transform="matrix(1,0,0,1,222.5,268)" display="none" style="fill: rgb(0, 0, 0);"><g ></g><g ></g><g ></g><g ></g></g><image  id="v-429"></image></g></g><!--z-index:44--><g   id="j_45"  transform="translate(4209,260)" style=""><g  id="v-433" style="opacity: 1;"><rect  id="v-434" rx="20" ry="20" stroke-width="2" pointer-events="visiblePainted" fill="#85bbf0" stroke="#78a8d8" stroke-dasharray="" width="450" height="300" style="fill: rgb(133, 187, 240); stroke: rgb(120, 168, 216);"></rect><text  id="v-435" font-size="33.599999999999994px" xml:space="preserve" y="101.30000000000001" font-weight="bold" text-anchor="middle" pointer-events="visible" font-family="Tahoma, Verdana, Helvetica, Arial" fill="#000000" dominant-baseline="hanging" transform="matrix(1,0,0,1,225,0)" style="fill: rgb(0, 0, 0);"><tspan dy="0" >Plugin System</tspan></text><text  id="v-436" font-size="16.799999999999997px" xml:space="preserve" y="142.9" text-anchor="middle" font-family="Tahoma, Verdana, Helvetica, Arial" fill="#000000" dominant-baseline="hanging" transform="matrix(1,0,0,1,225,0)" style="display: block; fill: rgb(0, 0, 0);"><tspan dy="0" >[Component]</tspan></text><text  id="v-437" font-size="24px" xml:space="preserve" y="174.7" text-anchor="middle" font-family="Tahoma, Verdana, Helvetica, Arial" fill="#000000" dominant-baseline="hanging" transform="matrix(1,0,0,1,225,0)" style="display: block; fill: rgb(0, 0, 0);"><tspan dy="0" >SPI-based extension framework</tspan></text><g  id="v-438" color="#000000" transform="matrix(1,0,0,1,222.5,268)" display="none" style="fill: rgb(0, 0, 0);"><g ></g><g ></g><g ></g><g ></g></g><image  id="v-439"></image></g></g><!--z-index:45--><g   id="j_46"  transform="translate(4519,1194)" style=""><g  id="v-443" style="opacity: 1;"><rect  id="v-444" rx="20" ry="20" stroke-width="2" pointer-events="visiblePainted" fill="#85bbf0" stroke="#78a8d8" stroke-dasharray="" width="450" height="300" style="fill: rgb(133, 187, 240); stroke: rgb(120, 168, 216);"></rect><text  id="v-445" font-size="33.599999999999994px" xml:space="preserve" y="101.30000000000001" font-weight="bold" text-anchor="middle" pointer-events="visible" font-family="Tahoma, Verdana, Helvetica, Arial" fill="#000000" dominant-baseline="hanging" transform="matrix(1,0,0,1,225,0)" style="fill: rgb(0, 0, 0);"><tspan dy="0" >Layout</tspan></text><text  id="v-446" font-size="16.799999999999997px" xml:space="preserve" y="142.9" text-anchor="middle" font-family="Tahoma, Verdana, Helvetica, Arial" fill="#000000" dominant-baseline="hanging" transform="matrix(1,0,0,1,225,0)" style="display: block; fill: rgb(0, 0, 0);"><tspan dy="0" >[Component]</tspan></text><text  id="v-447" font-size="24px" xml:space="preserve" y="174.7" text-anchor="middle" font-family="Tahoma, Verdana, Helvetica, Arial" fill="#000000" dominant-baseline="hanging" transform="matrix(1,0,0,1,225,0)" style="display: block; fill: rgb(0, 0, 0);"><tspan dy="0" >Log event formatting engine</tspan></text><g  id="v-448" color="#000000" transform="matrix(1,0,0,1,222.5,268)" display="none" style="fill: rgb(0, 0, 0);"><g ></g><g ></g><g ></g><g ></g></g><image  id="v-449"></image></g></g><!--z-index:46--><g   id="j_47"  transform="translate(3564,260)" style=""><g  id="v-453" style="opacity: 1;"><rect  id="v-454" rx="20" ry="20" stroke-width="2" pointer-events="visiblePainted" fill="#85bbf0" stroke="#78a8d8" stroke-dasharray="" width="450" height="300" style="fill: rgb(133, 187, 240); stroke: rgb(120, 168, 216);"></rect><text  id="v-455" font-size="33.599999999999994px" xml:space="preserve" y="101.30000000000001" font-weight="bold" text-anchor="middle" pointer-events="visible" font-family="Tahoma, Verdana, Helvetica, Arial" fill="#000000" dominant-baseline="hanging" transform="matrix(1,0,0,1,225,0)" style="fill: rgb(0, 0, 0);"><tspan dy="0" >Async Logger</tspan></text><text  id="v-456" font-size="16.799999999999997px" xml:space="preserve" y="142.9" text-anchor="middle" font-family="Tahoma, Verdana, Helvetica, Arial" fill="#000000" dominant-baseline="hanging" transform="matrix(1,0,0,1,225,0)" style="display: block; fill: rgb(0, 0, 0);"><tspan dy="0" >[Component]</tspan></text><text  id="v-457" font-size="24px" xml:space="preserve" y="174.7" text-anchor="middle" font-family="Tahoma, Verdana, Helvetica, Arial" fill="#000000" dominant-baseline="hanging" transform="matrix(1,0,0,1,225,0)" style="display: block; fill: rgb(0, 0, 0);"><tspan dy="0" >Asynchronous event processing</tspan></text><g  id="v-458" color="#000000" transform="matrix(1,0,0,1,222.5,268)" display="none" style="fill: rgb(0, 0, 0);"><g ></g><g ></g><g ></g><g ></g></g><image  id="v-459"></image></g></g><!--z-index:47--><g   id="j_50"  style="opacity: 1;"><path fill="none" cursor="pointer" stroke="transparent" stroke-linecap="round" joint-selector="wrapper" id="v-500" stroke-width="10" stroke-linejoin="round" d="M 2474 1494 L 2474 1625 C 2474 1631.7999999999997 2471 1636.4666666666665 2465 1639 L 2149 1776.9"></path><path fill="none" pointer-events="none" joint-selector="line" id="v-499" stroke="#444444" stroke-width="2" stroke-linejoin="round" stroke-dasharray="8 8" d="M 2474 1494 L 2474 1625 C 2474 1631.7999999999997 2471 1636.4666666666665 2465 1639 L 2149 1776.9" marker-end="url(#v-21252848929)"></path><g id="v-492" ><g id="v-493"  label-idx="0" cursor="move" transform="matrix(1,0,0,1,2471.625244140625,1633.7901611328125)" style="cursor: default;"><rect joint-selector="rect" id="v-496" fill="#ffffff" rx="3" ry="3" x="-93.28995513916016" y="-44.73353958129883" width="186.87449645996094" height="84.93964385986328" pointer-events="none"  style="display: block;"></rect><text joint-selector="text" id="v-495" font-size="24px" xml:space="preserve" fill="#444444" text-anchor="middle" pointer-events="none" font-family="Tahoma, Verdana, Helvetica, Arial" font-weight="normal"  style="display: block;"><tspan dy="-0.8999999999999999em" >writes log events</tspan><tspan dy="1.2em" x="0" >over pooled JDBC</tspan><tspan dy="1.2em" x="0" >connections</tspan></text></g><g id="v-494"  label-idx="1" cursor="move" transform="matrix(1,0,0,1,2461.625244140625,1674.5902099609375)" style="cursor: default;"><rect joint-selector="rect" id="v-498" fill="#ffffff" rx="3" ry="3" x="0" y="0" width="0" height="0"  display="none"></rect><text joint-selector="text" id="v-497" fill="#000000" font-size="14" text-anchor="middle" text-vertical-anchor="middle" pointer-events="none"></text></g></g></g><!--z-index:48--><g   id="j_51"  style="opacity: 1;"><path fill="none" cursor="pointer" stroke="transparent" stroke-linecap="round" joint-selector="wrapper" id="v-512" stroke-width="10" stroke-linejoin="round" d="M 4014 928.09 L 4602 1101 C 4608.333333333333 1102.7333333333331 4613 1106.3999999999999 4616 1112 L 4661.33 1194"></path><path fill="none" pointer-events="none" joint-selector="line" id="v-511" stroke="#444444" stroke-width="2" stroke-linejoin="round" stroke-dasharray="8 8" d="M 4014 928.09 L 4602 1101 C 4608.333333333333 1102.7333333333331 4613 1106.3999999999999 4616 1112 L 4661.33 1194" marker-end="url(#v-21252848929)"></path><g id="v-504" ><g id="v-505"  label-idx="0" cursor="move" transform="matrix(1,0,0,1,4609.7236328125,1104.6497802734375)" style="cursor: default;"><rect joint-selector="rect" id="v-508" fill="#ffffff" rx="3" ry="3" x="-100.3548812866211" y="-30.333541870117188" width="198.60671997070312" height="56.13964080810547" pointer-events="none"  style="display: block;"></rect><text joint-selector="text" id="v-507" font-size="24px" xml:space="preserve" fill="#444444" text-anchor="middle" pointer-events="none" font-family="Tahoma, Verdana, Helvetica, Arial" font-weight="normal"  style="display: block;"><tspan dy="-0.3em" >formats log events</tspan><tspan dy="1.2em" x="0" >using</tspan></text></g><g id="v-506"  label-idx="1" cursor="move" transform="matrix(1,0,0,1,4599.7236328125,1131.0498046875)" style="cursor: default;"><rect joint-selector="rect" id="v-510" fill="#ffffff" rx="3" ry="3" x="0" y="0" width="0" height="0"  display="none"></rect><text joint-selector="text" id="v-509" fill="#000000" font-size="14" text-anchor="middle" text-vertical-anchor="middle" pointer-events="none"></text></g></g></g><!--z-index:49--><g   id="j_52"  style="opacity: 1;"><path fill="none" cursor="pointer" stroke="transparent" stroke-linecap="round" joint-selector="wrapper" id="v-524" stroke-width="10" stroke-linejoin="round" d="M 4209 452.01 L 3231 635 C 3224.6666666666665 635.9333333333333 3224.6666666666665 637.5999999999999 3231 640 L 3564 772.56"></path><path fill="none" pointer-events="none" joint-selector="line" id="v-523" stroke="#444444" stroke-width="2" stroke-linejoin="round" stroke-dasharray="8 8" d="M 4209 452.01 L 3231 635 C 3224.6666666666665 635.9333333333333 3224.6666666666665 637.5999999999999 3231 640 L 3564 772.56" marker-end="url(#v-21252848929)"></path><g id="v-516" ><g id="v-517"  label-idx="0" cursor="move" transform="matrix(1,0,0,1,3227.859130859375,635.6812133789062)" style="cursor: default;"><rect joint-selector="rect" id="v-520" fill="#ffffff" rx="3" ry="3" x="-95.49158477783203" y="-30.333541870117188" width="190.98316955566406" height="56.13964080810547" pointer-events="none"  style="display: block;"></rect><text joint-selector="text" id="v-519" font-size="24px" xml:space="preserve" fill="#444444" text-anchor="middle" pointer-events="none" font-family="Tahoma, Verdana, Helvetica, Arial" font-weight="normal"  style="display: block;"><tspan dy="-0.3em" >extends</tspan><tspan dy="1.2em" x="0" >appenders via SPI</tspan></text></g><g id="v-518"  label-idx="1" cursor="move" transform="matrix(1,0,0,1,3217.859130859375,662.0812377929688)" style="cursor: default;"><rect joint-selector="rect" id="v-522" fill="#ffffff" rx="3" ry="3" x="0" y="0" width="0" height="0"  display="none"></rect><text joint-selector="text" id="v-521" fill="#000000" font-size="14" text-anchor="middle" text-vertical-anchor="middle" pointer-events="none"></text></g></g></g><!--z-index:50--><g   id="j_53"  style="opacity: 1;"><path fill="none" cursor="pointer" stroke="transparent" stroke-linecap="round" joint-selector="wrapper" id="v-536" stroke-width="10" stroke-linejoin="round" d="M 4659 538.96 L 4820 631 C 4826 634.5999999999999 4829 639.5999999999999 4829 646 L 4829 1094 C 4829 1100.3999999999999 4828 1106.7333333333331 4826 1113 L 4797.04 1194"></path><path fill="none" pointer-events="none" joint-selector="line" id="v-535" stroke="#444444" stroke-width="2" stroke-linejoin="round" stroke-dasharray="8 8" d="M 4659 538.96 L 4820 631 C 4826 634.5999999999999 4829 639.5999999999999 4829 646 L 4829 1094 C 4829 1100.3999999999999 4828 1106.7333333333331 4826 1113 L 4797.04 1194" marker-end="url(#v-21252848929)"></path><g id="v-528" ><g id="v-529"  label-idx="0" cursor="move" transform="matrix(1,0,0,1,4829,863.2474975585938)" style="cursor: default;"><rect joint-selector="rect" id="v-532" fill="#ffffff" rx="3" ry="3" x="-82.42967224121094" y="-30.333541870117188" width="164.85934448242188" height="56.13964080810547" pointer-events="none"  style="display: block;"></rect><text joint-selector="text" id="v-531" font-size="24px" xml:space="preserve" fill="#444444" text-anchor="middle" pointer-events="none" font-family="Tahoma, Verdana, Helvetica, Arial" font-weight="normal"  style="display: block;"><tspan dy="-0.3em" >extends layouts</tspan><tspan dy="1.2em" x="0" >via SPI</tspan></text></g><g id="v-530"  label-idx="1" cursor="move" transform="matrix(1,0,0,1,4819,889.6475219726562)" style="cursor: default;"><rect joint-selector="rect" id="v-534" fill="#ffffff" rx="3" ry="3" x="0" y="-1.1368683772161603e-13" width="0" height="0"  display="none"></rect><text joint-selector="text" id="v-533" fill="#000000" font-size="14" text-anchor="middle" text-vertical-anchor="middle" pointer-events="none"></text></g></g></g><!--z-index:51--><g   id="j_54"  style="opacity: 1;"><path fill="none" cursor="pointer" stroke="transparent" stroke-linecap="round" joint-selector="wrapper" id="v-548" stroke-width="10" stroke-linejoin="round" d="M 4434 560 L 4434 712"></path><path fill="none" pointer-events="none" joint-selector="line" id="v-547" stroke="#444444" stroke-width="2" stroke-linejoin="round" stroke-dasharray="8 8" d="M 4434 560 L 4434 712" marker-end="url(#v-21252848929)"></path><g id="v-540" ><g id="v-541"  label-idx="0" cursor="move" transform="matrix(1,0,0,1,4434,636)" style="cursor: default;"><rect joint-selector="rect" id="v-544" fill="#ffffff" rx="3" ry="3" x="-93.12564849853516" y="-30.333541870117188" width="186.2594451904297" height="56.13964080810547" pointer-events="none"  style="display: block;"></rect><text joint-selector="text" id="v-543" font-size="24px" xml:space="preserve" fill="#444444" text-anchor="middle" pointer-events="none" font-family="Tahoma, Verdana, Helvetica, Arial" font-weight="normal"  style="display: block;"><tspan dy="-0.3em" >extends filters via</tspan><tspan dy="1.2em" x="0" >SPI</tspan></text></g><g id="v-542"  label-idx="1" cursor="move" transform="matrix(1,0,0,1,4424,662.4000244140625)" style="cursor: default;"><rect joint-selector="rect" id="v-546" fill="#ffffff" rx="3" ry="3" x="0" y="0" width="0" height="0"  display="none"></rect><text joint-selector="text" id="v-545" fill="#000000" font-size="14" text-anchor="middle" text-vertical-anchor="middle" pointer-events="none"></text></g></g></g><!--z-index:52--><g   id="j_55"  style="opacity: 1;"><path fill="none" cursor="pointer" stroke="transparent" stroke-linecap="round" joint-selector="wrapper" id="v-560" stroke-width="10" stroke-linejoin="round" d="M 3885.07 560 L 3929 628 C 3932.333333333333 633.5999999999999 3932.333333333333 639.2666666666667 3929 645 L 3885.41 712"></path><path fill="none" pointer-events="none" joint-selector="line" id="v-559" stroke="#444444" stroke-width="2" stroke-linejoin="round" stroke-dasharray="8 8" d="M 3885.07 560 L 3929 628 C 3932.333333333333 633.5999999999999 3932.333333333333 639.2666666666667 3929 645 L 3885.41 712" marker-end="url(#v-21252848929)"></path><g id="v-552" ><g id="v-553"  label-idx="0" cursor="move" transform="matrix(1,0,0,1,3931.492431640625,635.9852905273438)" style="cursor: default;"><rect joint-selector="rect" id="v-556" fill="#ffffff" rx="3" ry="3" x="-95.57373046875" y="-30.333541870117188" width="191.1474609375" height="56.13964080810547" pointer-events="none"  style="display: block;"></rect><text joint-selector="text" id="v-555" font-size="24px" xml:space="preserve" fill="#444444" text-anchor="middle" pointer-events="none" font-family="Tahoma, Verdana, Helvetica, Arial" font-weight="normal"  style="display: block;"><tspan dy="-0.3em" >dispatches events</tspan><tspan dy="1.2em" x="0" >asynchronously to</tspan></text></g><g id="v-554"  label-idx="1" cursor="move" transform="matrix(1,0,0,1,3921.492431640625,662.3853149414062)" style="cursor: default;"><rect joint-selector="rect" id="v-558" fill="#ffffff" rx="3" ry="3" x="0" y="0" width="0" height="0"  display="none"></rect><text joint-selector="text" id="v-557" fill="#000000" font-size="14" text-anchor="middle" text-vertical-anchor="middle" pointer-events="none"></text></g></g></g><!--z-index:53--><g   id="j_56"  style="opacity: 1;"><path fill="none" cursor="pointer" stroke="transparent" stroke-linecap="round" joint-selector="wrapper" id="v-572" stroke-width="10" stroke-linejoin="round" d="M 3789 1012 L 3789 1094 C 3789 1100.3999999999999 3785.6666666666665 1104.0666666666666 3779 1105 L 2149 1315"></path><path fill="none" pointer-events="none" joint-selector="line" id="v-571" stroke="#444444" stroke-width="2" stroke-linejoin="round" stroke-dasharray="8 8" d="M 3789 1012 L 3789 1094 C 3789 1100.3999999999999 3785.6666666666665 1104.0666666666666 3779 1105 L 2149 1315" marker-end="url(#v-21252848929)"></path><g id="v-564" ><g id="v-565"  label-idx="0" cursor="move" transform="matrix(1,0,0,1,3786.135986328125,1101.9266357421875)" style="cursor: default;"><rect joint-selector="rect" id="v-568" fill="#ffffff" rx="3" ry="3" x="-87.26011657714844" y="-15.933542251586914" width="172.41717529296875" height="27.339641571044922" pointer-events="none"  style="display: block;"></rect><text joint-selector="text" id="v-567" font-size="24px" xml:space="preserve" fill="#444444" text-anchor="middle" pointer-events="none" font-family="Tahoma, Verdana, Helvetica, Arial" font-weight="normal"  style="display: block;"><tspan dy="0.3em" >forwards logs to</tspan></text></g><g id="v-566"  label-idx="1" cursor="move" transform="matrix(1,0,0,1,3776.135986328125,1113.9266357421875)" style="cursor: default;"><rect joint-selector="rect" id="v-570" fill="#ffffff" rx="3" ry="3" x="0" y="0" width="0" height="0"  display="none"></rect><text joint-selector="text" id="v-569" fill="#000000" font-size="14" text-anchor="middle" text-vertical-anchor="middle" pointer-events="none"></text></g></g></g><!--z-index:54--><g   id="j_57"  style="opacity: 1;"><path fill="none" cursor="pointer" stroke="transparent" stroke-linecap="round" joint-selector="wrapper" id="v-584" stroke-width="10" stroke-linejoin="round" d="M 4744 1494 L 4744 1725"></path><path fill="none" pointer-events="none" joint-selector="line" id="v-583" stroke="#444444" stroke-width="2" stroke-linejoin="round" stroke-dasharray="8 8" d="M 4744 1494 L 4744 1725" marker-end="url(#v-21252848929)"></path><g id="v-576" ><g id="v-577"  label-idx="0" cursor="move" transform="matrix(1,0,0,1,4744,1634.4351806640625)" style="cursor: default;"><rect joint-selector="rect" id="v-580" fill="#ffffff" rx="3" ry="3" x="-99.82911682128906" y="-30.333541870117188" width="199.65823364257812" height="56.13964080810547" pointer-events="none"  style="display: block;"></rect><text joint-selector="text" id="v-579" font-size="24px" xml:space="preserve" fill="#444444" text-anchor="middle" pointer-events="none" font-family="Tahoma, Verdana, Helvetica, Arial" font-weight="normal"  style="display: block;"><tspan dy="-0.3em" >invokes Layout SPI</tspan><tspan dy="1.2em" x="0" >implemented by</tspan></text></g><g id="v-578"  label-idx="1" cursor="move" transform="matrix(1,0,0,1,4734,1660.835205078125)" style="cursor: default;"><rect joint-selector="rect" id="v-582" fill="#ffffff" rx="3" ry="3" x="0" y="0" width="0" height="0"  display="none"></rect><text joint-selector="text" id="v-581" fill="#000000" font-size="14" text-anchor="middle" text-vertical-anchor="middle" pointer-events="none"></text></g></g></g><!--z-index:55--><g   id="j_58"  style="opacity: 1;"><path fill="none" cursor="pointer" stroke="transparent" stroke-linecap="round" joint-selector="wrapper" id="v-596" stroke-width="10" stroke-linejoin="round" d="M 4014 1008.92 L 4151 1098 C 4156.333333333333 1101.7333333333331 4155.666666666666 1104.0666666666666 4149 1105 L 2699 1311.9"></path><path fill="none" pointer-events="none" joint-selector="line" id="v-595" stroke="#444444" stroke-width="2" stroke-linejoin="round" stroke-dasharray="8 8" d="M 4014 1008.92 L 4151 1098 C 4156.333333333333 1101.7333333333331 4155.666666666666 1104.0666666666666 4149 1105 L 2699 1311.9" marker-end="url(#v-21252848929)"></path><g id="v-588" ><g id="v-589"  label-idx="0" cursor="move" transform="matrix(1,0,0,1,4152.41796875,1104.2225341796875)" style="cursor: default;"><rect joint-selector="rect" id="v-592" fill="#ffffff" rx="3" ry="3" x="-69.46634674072266" y="-44.73353958129883" width="139.2344970703125" height="84.93964385986328" pointer-events="none"  style="display: block;"></rect><text joint-selector="text" id="v-591" font-size="24px" xml:space="preserve" fill="#444444" text-anchor="middle" pointer-events="none" font-family="Tahoma, Verdana, Helvetica, Arial" font-weight="normal"  style="display: block;"><tspan dy="-0.8999999999999999em" >obtains JDBC</tspan><tspan dy="1.2em" x="0" >connections</tspan><tspan dy="1.2em" x="0" >through</tspan></text></g><g id="v-590"  label-idx="1" cursor="move" transform="matrix(1,0,0,1,4142.41796875,1145.0224609375)" style="cursor: default;"><rect joint-selector="rect" id="v-594" fill="#ffffff" rx="3" ry="3" x="0" y="0" width="0" height="0"  display="none"></rect><text joint-selector="text" id="v-593" fill="#000000" font-size="14" text-anchor="middle" text-vertical-anchor="middle" pointer-events="none"></text></g></g></g><!--z-index:56--><g   id="j_59"  style="opacity: 1;"><path fill="none" cursor="pointer" stroke="transparent" stroke-linecap="round" joint-selector="wrapper" id="v-608" stroke-width="10" stroke-linejoin="round" d="M 3564 924.48 L 2929 1101 C 2922.333333333333 1102.7333333333331 2915.6666666666665 1104.0666666666666 2909 1105 L 649 1322.32"></path><path fill="none" pointer-events="none" joint-selector="line" id="v-607" stroke="#444444" stroke-width="2" stroke-linejoin="round" stroke-dasharray="8 8" d="M 3564 924.48 L 2929 1101 C 2922.333333333333 1102.7333333333331 2915.6666666666665 1104.0666666666666 2909 1105 L 649 1322.32" marker-end="url(#v-21252848929)"></path><g id="v-600" ><g id="v-601"  label-idx="0" cursor="move" transform="matrix(1,0,0,1,2919.078125,1103.2843017578125)" style="cursor: default;"><rect joint-selector="rect" id="v-604" fill="#ffffff" rx="3" ry="3" x="-91.74552154541016" y="-15.933542251586914" width="181.38800048828125" height="27.339641571044922" pointer-events="none"  style="display: block;"></rect><text joint-selector="text" id="v-603" font-size="24px" xml:space="preserve" fill="#444444" text-anchor="middle" pointer-events="none" font-family="Tahoma, Verdana, Helvetica, Arial" font-weight="normal"  style="display: block;"><tspan dy="0.3em" >writes log events</tspan></text></g><g id="v-602"  label-idx="1" cursor="move" transform="matrix(1,0,0,1,2909.078125,1115.2843017578125)" style="cursor: default;"><rect joint-selector="rect" id="v-606" fill="#ffffff" rx="3" ry="3" x="0" y="0" width="0" height="0"  display="none"></rect><text joint-selector="text" id="v-605" fill="#000000" font-size="14" text-anchor="middle" text-vertical-anchor="middle" pointer-events="none"></text></g></g></g><!--z-index:57--><g   id="j_60"  style="opacity: 1;"><path fill="none" cursor="pointer" stroke="transparent" stroke-linecap="round" joint-selector="wrapper" id="v-620" stroke-width="10" stroke-linejoin="round" d="M 3564 955.72 L 3218 1100 C 3211.9999999999995 1102.3999999999999 3205.666666666666 1104.0666666666666 3199 1105 L 1149 1320.33"></path><path fill="none" pointer-events="none" joint-selector="line" id="v-619" stroke="#444444" stroke-width="2" stroke-linejoin="round" stroke-dasharray="8 8" d="M 3564 955.72 L 3218 1100 C 3211.9999999999995 1102.3999999999999 3205.666666666666 1104.0666666666666 3199 1105 L 1149 1320.33" marker-end="url(#v-21252848929)"></path><g id="v-612" ><g id="v-613"  label-idx="0" cursor="move" transform="matrix(1,0,0,1,3208.972412109375,1102.9910888671875)" style="cursor: default;"><rect joint-selector="rect" id="v-616" fill="#ffffff" rx="3" ry="3" x="-91.74552154541016" y="-15.933542251586914" width="181.38800048828125" height="27.339641571044922" pointer-events="none"  style="display: block;"></rect><text joint-selector="text" id="v-615" font-size="24px" xml:space="preserve" fill="#444444" text-anchor="middle" pointer-events="none" font-family="Tahoma, Verdana, Helvetica, Arial" font-weight="normal"  style="display: block;"><tspan dy="0.3em" >writes log events</tspan></text></g><g id="v-614"  label-idx="1" cursor="move" transform="matrix(1,0,0,1,3198.972412109375,1114.9910888671875)" style="cursor: default;"><rect joint-selector="rect" id="v-618" fill="#ffffff" rx="3" ry="3" x="0" y="0" width="0" height="0"  display="none"></rect><text joint-selector="text" id="v-617" fill="#000000" font-size="14" text-anchor="middle" text-vertical-anchor="middle" pointer-events="none"></text></g></g></g><!--z-index:58--><g   id="j_61"  style="opacity: 1;"><path fill="none" cursor="pointer" stroke="transparent" stroke-linecap="round" joint-selector="wrapper" id="v-632" stroke-width="10" stroke-linejoin="round" d="M 3608.95 1012 L 3507 1097 C 3501.6666666666665 1101.3999999999999 3495.6666666666665 1104.0666666666666 3489 1105 L 1649 1317.93"></path><path fill="none" pointer-events="none" joint-selector="line" id="v-631" stroke="#444444" stroke-width="2" stroke-linejoin="round" stroke-dasharray="8 8" d="M 3608.95 1012 L 3507 1097 C 3501.6666666666665 1101.3999999999999 3495.6666666666665 1104.0666666666666 3489 1105 L 1649 1317.93" marker-end="url(#v-21252848929)"></path><g id="v-624" ><g id="v-625"  label-idx="0" cursor="move" transform="matrix(1,0,0,1,3499.060546875,1102.044921875)" style="cursor: default;"><rect joint-selector="rect" id="v-628" fill="#ffffff" rx="3" ry="3" x="-91.74552154541016" y="-15.933542251586914" width="181.38800048828125" height="27.339641571044922" pointer-events="none"  style="display: block;"></rect><text joint-selector="text" id="v-627" font-size="24px" xml:space="preserve" fill="#444444" text-anchor="middle" pointer-events="none" font-family="Tahoma, Verdana, Helvetica, Arial" font-weight="normal"  style="display: block;"><tspan dy="0.3em" >writes log events</tspan></text></g><g id="v-626"  label-idx="1" cursor="move" transform="matrix(1,0,0,1,3489.060546875,1114.044921875)" style="cursor: default;"><rect joint-selector="rect" id="v-630" fill="#ffffff" rx="3" ry="3" x="-4.547473508864641e-13" y="0" width="0" height="0"  display="none"></rect><text joint-selector="text" id="v-629" fill="#000000" font-size="14" text-anchor="middle" text-vertical-anchor="middle" pointer-events="none"></text></g></g></g><!--z-index:59--><g   id="j_62"  style="opacity: 1;"><path fill="none" cursor="pointer" stroke="transparent" stroke-linecap="round" joint-selector="wrapper" id="v-644" stroke-width="10" stroke-linejoin="round" d="M 4014 962.67 L 4320 1100 C 4326 1102.3999999999999 4329 1107.0666666666666 4329 1114 L 4329 1625 C 4329 1631.7999999999997 4325.666666666666 1635.4666666666665 4319 1636 L 2149 1852.57"></path><path fill="none" pointer-events="none" joint-selector="line" id="v-643" stroke="#444444" stroke-width="2" stroke-linejoin="round" stroke-dasharray="8 8" d="M 4014 962.67 L 4320 1100 C 4326 1102.3999999999999 4329 1107.0666666666666 4329 1114 L 4329 1625 C 4329 1631.7999999999997 4325.666666666666 1635.4666666666665 4319 1636 L 2149 1852.57" marker-end="url(#v-21252848929)"></path><g id="v-636" ><g id="v-637"  label-idx="0" cursor="move" transform="matrix(1,0,0,1,4329,1345.39111328125)" style="cursor: default;"><rect joint-selector="rect" id="v-640" fill="#ffffff" rx="3" ry="3" x="-91.74552154541016" y="-30.333541870117188" width="181.38800048828125" height="56.13964080810547" pointer-events="none"  style="display: block;"></rect><text joint-selector="text" id="v-639" font-size="24px" xml:space="preserve" fill="#444444" text-anchor="middle" pointer-events="none" font-family="Tahoma, Verdana, Helvetica, Arial" font-weight="normal"  style="display: block;"><tspan dy="-0.3em" >writes log events</tspan><tspan dy="1.2em" x="0" >through JDBC</tspan></text></g><g id="v-638"  label-idx="1" cursor="move" transform="matrix(1,0,0,1,4319,1371.7911376953125)" style="cursor: default;"><rect joint-selector="rect" id="v-642" fill="#ffffff" rx="3" ry="3" x="0" y="0" width="0" height="0"  display="none"></rect><text joint-selector="text" id="v-641" fill="#000000" font-size="14" text-anchor="middle" text-vertical-anchor="middle" pointer-events="none"></text></g></g></g><!--z-index:60--></g><g  style="user-select: none;"></g><g ></g><g  display="none"></g></g></svg>